<svg width="16" height="16" viewBox="0 0 16 16" fill="none" xmlns="http://www.w3.org/2000/svg">
<path d="M13.3333 5.7832H7.33333C6.59695 5.7832 6 6.35857 6 7.06831V12.8513C6 13.5611 6.59695 14.1364 7.33333 14.1364H13.3333C14.0697 14.1364 14.6667 13.5611 14.6667 12.8513V7.06831C14.6667 6.35857 14.0697 5.7832 13.3333 5.7832Z" stroke="#72798D" stroke-width="1.5" stroke-linecap="round" stroke-linejoin="round"/>
<path d="M3.33203 9.63838H2.66536C2.31174 9.63838 1.9726 9.50299 1.72256 9.26198C1.47251 9.02098 1.33203 8.6941 1.33203 8.35327V2.57027C1.33203 2.22944 1.47251 1.90256 1.72256 1.66156C1.9726 1.42055 2.31174 1.28516 2.66536 1.28516H8.66536C9.01899 1.28516 9.35813 1.42055 9.60817 1.66156C9.85822 1.90256 9.9987 2.22944 9.9987 2.57027V3.21282" stroke="#72798D" stroke-width="1.5" stroke-linecap="round" stroke-linejoin="round"/>
</svg>
