<svg width="328" height="394" viewBox="0 0 328 394" fill="none" xmlns="http://www.w3.org/2000/svg">
<g filter="url(#filter0_b_166_2)">
<path d="M298.245 80.5628C298.245 80.5628 305.451 84.2198 311.091 85.4502C311.54 85.5443 312.007 85.5139 312.44 85.3624C312.873 85.211 313.257 84.9441 313.548 84.591C314.805 83.1062 316.558 80.5628 314.77 79.6486C314.517 79.5181 314.25 79.3736 313.968 79.2208C311.364 77.8127 307.458 75.6999 301.586 77.3183C295.077 79.1124 297.237 80.2466 298.245 80.5628Z" fill="#212136"/>
<path d="M259.195 85.5054C259.195 85.5054 259.754 83.7663 261.142 83.7663C261.544 83.7663 262.15 83.7026 262.834 83.6308C264.509 83.4548 266.655 83.2295 267.444 83.7663C268.555 84.5224 268.065 86.8596 266.754 86.8664C265.442 86.8733 258.636 86.509 259.195 85.5054Z" fill="#212136"/>
<path d="M91.2896 175.98C90.6062 180.517 94.4786 180.297 94.4786 180.297C95.2131 180.398 95.9671 179.525 96.8836 178.464C97.4056 177.859 97.9803 177.194 98.6341 176.613C100.028 175.374 100.397 174.139 101.107 171.765C101.314 171.07 101.551 170.279 101.851 169.361C103.176 165.305 108.388 164.267 109.237 164.267C110.086 164.267 108.85 167.718 105.35 171.712C104.366 172.836 103.271 173.902 102.171 174.975C99.3626 177.713 96.516 180.488 95.3553 184.346C93.7401 189.715 96.4873 192.258 98.5719 191.598C99.5374 191.292 100.01 190.205 100.655 188.721C101.403 186.999 102.383 184.744 104.632 182.552C106.844 180.396 108.019 178.364 109.067 176.55C110.005 174.929 110.84 173.483 112.225 172.282C114.503 170.147 116.582 167.812 118.438 165.305C126.326 148.589 151.602 127.588 158.987 121.453C159.932 120.668 160.584 120.126 160.869 119.868C161.804 119.021 163.117 118.208 164.398 117.415C166.559 116.077 168.627 114.796 168.627 113.51C168.627 111.461 167.495 110.327 165.659 110.554C163.823 110.781 149.231 120.549 138.283 129.409C127.335 138.27 116.609 155.104 114.862 158.734C113.116 162.363 112.502 159.895 112.502 156.458C112.502 154.339 113.11 153.098 113.737 151.82C114.127 151.025 114.524 150.216 114.786 149.172C115.47 146.45 111.363 148.498 110.224 150.086C109.876 150.571 109.208 151.141 108.449 151.789C106.723 153.263 104.522 155.141 104.522 157.352C104.522 160.535 102.928 162.129 99.9594 164.171C96.9912 166.212 91.973 171.444 91.2896 175.98Z" fill="#212136"/>
<path d="M171.153 108.003C170.796 108.181 170.486 108.439 170.246 108.756C170.007 109.073 169.844 109.442 169.772 109.832C169.724 110.076 169.726 110.328 169.778 110.571C169.831 110.814 169.932 111.045 170.076 111.248C170.959 112.465 173.272 111.516 174.763 110.162C176.254 108.808 185.503 103.192 185.503 103.192C185.503 103.192 175.308 105.879 171.153 108.003Z" fill="#212136"/>
<path d="M100.81 198.39C102.943 200.603 104.323 198.39 104.323 198.39C107.097 196.356 110.555 190.783 112.752 187.242C113.458 186.104 114.034 185.175 114.415 184.642C115.982 182.449 125.011 169.973 127.875 166.467C128.525 165.672 128.901 164.951 129.355 164.082C130.9 161.118 133.342 156.437 150.571 141.267C172.853 121.649 197.91 101.274 228.689 100.236C259.468 99.1984 294.955 121.284 294.955 121.284C295.457 121.079 295.912 120.775 296.292 120.39C296.673 120.005 296.972 119.548 297.171 119.045C297.371 118.543 297.466 118.005 297.451 117.465C297.437 116.925 297.313 116.394 297.088 115.902C262.429 94.3522 234.094 92.1732 220.289 94.8609C206.483 97.5486 193.43 104.663 183.953 110.032C174.808 115.212 157.133 129.302 146.435 137.831L145.298 138.738C134.757 147.138 123.748 160.693 121.049 165.106C118.35 169.519 108.32 185.323 104.91 188.471C101.5 191.619 98.6771 196.177 100.81 198.39Z" fill="#212136"/>
<path d="M305.929 97.9332C267.951 83.3191 243.536 86.8248 236.447 88.4059C236.229 88.4557 236.034 88.5742 235.889 88.7436C235.745 88.913 235.66 89.1244 235.646 89.3461C235.632 89.5679 235.69 89.7882 235.812 89.9743C235.934 90.1603 236.113 90.3022 236.322 90.3787C238.326 90.9967 240.394 91.3864 242.487 91.5404C245.722 91.8661 248.836 92.3258 251.759 92.7574C256.239 93.4188 260.271 94.0141 263.609 93.96C269.124 93.8707 282.805 95.4448 291.068 98.5244C299.33 101.604 302.802 102.931 302.802 102.931C302.802 102.931 304.555 103.096 305.895 101.102C307.234 99.1086 305.929 97.9332 305.929 97.9332Z" fill="#212136"/>
<path d="M298.667 111.729C303.423 111.399 302.001 106.326 302.001 106.326C302.001 106.326 283.978 99.198 274.377 96.6065C264.775 94.015 259.66 98.5931 267.108 99.5142C270.835 99.9752 277.545 103.117 283.915 106.099C290.272 109.076 296.291 111.894 298.667 111.729Z" fill="#212136"/>
<path d="M275.984 82.3846C275.779 82.4604 275.601 82.5957 275.473 82.7731C275.345 82.9505 275.274 83.1618 275.268 83.3799C275.262 83.5981 275.322 83.813 275.44 83.997C275.557 84.181 275.728 84.3257 275.929 84.4125C278.096 85.3404 281.582 86.6465 284.392 86.8665C288.816 87.2102 300.806 90.9909 306.522 93.9535C310.18 95.8233 312.044 89.2105 309.683 88.3719C308.414 87.9263 306.58 87.2422 304.537 86.4805C299.679 84.6686 293.642 82.4172 291.232 81.8897C288.347 81.2573 280.512 80.8036 275.984 82.3846Z" fill="#212136"/>
<path d="M286.224 126.73C275.95 120.768 250.846 106.201 210.239 111.736C206.682 112.241 203.641 114.668 201.351 116.497C200.335 117.308 199.467 118.001 198.767 118.356C194.166 120.62 189.733 123.207 185.5 126.096C176.95 132.149 169.025 139.034 161.844 146.649C154.638 154.444 145.726 170.949 143.594 175.011C141.461 179.074 133.502 188.154 131.169 190.478C128.836 192.801 123.417 204.776 119.71 213.299C116.004 221.823 111.337 220.641 112.117 214.262C112.897 207.883 125.902 189.88 129.008 186.23C132.114 182.579 148.453 158.96 149.226 156.988C149.999 155.015 147.666 154.513 145.533 156.988C144.573 158.101 141.961 161.942 139.089 166.164C135.58 171.325 131.683 177.055 129.94 179.074C126.772 182.744 112.732 205.697 112.732 205.697C112.732 205.697 110.799 210.838 107.831 209.168C104.863 207.498 105.774 203.655 109.253 199.345C110.743 197.499 116.496 189.203 122.738 180.202C131.065 168.195 140.262 154.932 141.371 154.052C142.051 153.512 143.306 152.984 144.848 152.335C147.701 151.133 151.537 149.518 154.534 146.649C156.17 145.084 157.822 143.139 159.532 141.125C162.651 137.454 165.962 133.555 169.72 131.313C170.95 130.579 172.613 129.144 174.746 127.304C182.7 120.439 197.192 107.932 220.179 105.103C249.329 101.515 280.681 114.225 293.582 124.886C293.582 124.886 294.479 128.481 291.256 129.127C290.587 129.261 288.914 128.29 286.224 126.73Z" fill="#212136"/>
<path d="M154.144 163.106C154.144 163.106 166.423 144.546 179.683 135.5C184.763 132.035 188.989 128.987 192.503 126.453C198.164 122.371 201.978 119.621 204.533 118.603C204.772 118.508 205.044 118.395 205.35 118.267L205.356 118.265C210.368 116.173 224.601 110.234 254.743 117.091C286.744 124.371 290.603 134.812 289.091 136.874C287.775 138.669 283.857 136.507 278.022 133.289C277.152 132.809 276.239 132.305 275.286 131.788C267.941 127.801 254.17 121.759 243.133 122.034C232.095 122.309 210.166 129.863 208.792 131.238C207.418 132.613 207.273 128.77 210.994 127.945C212.968 127.507 214.597 126.45 216.04 125.513C217.316 124.685 218.448 123.95 219.546 123.821C221.886 123.546 225.483 122.721 225.483 120.803C225.483 118.885 217.621 119.153 213.617 120.803C210.486 122.093 200.353 127.581 194.703 130.64C193.129 131.493 191.903 132.156 191.273 132.489C190.651 132.817 189.99 133.131 189.329 133.446C186.918 134.592 184.505 135.74 183.963 137.569C183.273 139.899 178.579 145.453 176.239 146.663C173.899 147.873 162.026 157.215 160.791 159.414C159.555 161.614 157.871 163.332 154.144 163.106Z" fill="#212136"/>
<path d="M186.753 145.652C180.126 150.629 178.566 148.326 178.566 148.326C178.7 146.8 185.171 142.751 189.263 140.191C190.846 139.2 192.075 138.431 192.441 138.119C193.752 136.998 195.381 139.555 194.815 139.555C194.519 139.555 194.14 139.862 192.897 140.866C191.764 141.782 189.913 143.279 186.753 145.652Z" fill="#212136"/>
<path d="M196.975 144.23C196.975 144.23 195.125 143.687 198.742 141.143C202.359 138.6 226.284 124.227 243.541 125.134C260.797 126.041 280.815 136.229 284.267 139.232C287.718 142.236 285.274 148.23 284.267 147.866C284.112 147.81 283.476 147.382 282.456 146.695C276.83 142.906 259.522 131.251 246.923 130.867C232.041 130.413 217.062 136.05 210.76 139.961L209.905 140.492C204.253 144.01 202.089 145.357 196.975 144.23Z" fill="#212136"/>
<path d="M215.87 143.035C215.997 143.168 216.161 143.26 216.34 143.301C222.508 144.777 226.508 143.644 231.048 142.358C235.43 141.117 240.316 139.732 248.141 140.414C260.436 141.481 269.262 150.214 274.301 155.2C276.116 156.997 277.44 158.307 278.257 158.596C281.343 159.689 282.164 154.224 281.709 151.866C281.253 149.509 272.487 139.321 251.033 134.778C233.687 131.1 220.454 138.593 216.023 141.604C215.87 141.706 215.751 141.851 215.68 142.02C215.609 142.19 215.589 142.376 215.623 142.556C215.657 142.736 215.742 142.903 215.87 143.035Z" fill="#212136"/>
<path d="M238.336 147.144L236.465 146.532C236.413 146.515 236.368 146.482 236.336 146.437C236.304 146.393 236.287 146.34 236.287 146.285C236.287 146.23 236.304 146.177 236.336 146.133C236.368 146.088 236.413 146.055 236.465 146.037C239.227 145.35 248.241 143.604 256.4 146.725C263.607 149.474 269.426 154.712 271.98 157.276C272.058 157.359 272.107 157.466 272.118 157.579C272.129 157.693 272.102 157.807 272.042 157.904C271.981 158 271.89 158.074 271.782 158.114C271.675 158.153 271.557 158.156 271.448 158.122L238.336 147.144Z" fill="#212136"/>
<path d="M119.5 228.223C122.102 230.484 123.089 227.535 123.089 227.535C125.876 222.813 126.748 219.752 127.608 216.733C128.551 213.424 129.48 210.165 132.898 204.824C139.435 194.609 137.82 188.079 137.73 189.797C137.64 191.516 131.262 199.16 129.468 200.947C127.673 202.734 120.487 217.671 119.5 220.084L119.349 220.45C118.363 222.837 117.027 226.073 119.5 228.223Z" fill="#212136"/>
<path d="M128.749 237.461C128.749 237.461 127.762 239.523 126.057 237.461C124.352 235.399 125.96 230.587 128.031 225.659C128.998 223.358 130.138 219.735 131.216 216.308C132.447 212.395 133.598 208.737 134.319 207.594C135.672 205.449 135.845 210.275 135.845 211.718C135.845 211.854 135.849 212.047 135.854 212.289C135.902 214.619 136.047 221.548 133.684 227.46C132.361 230.942 130.708 234.29 128.749 237.461Z" fill="#212136"/>
<path d="M132.699 246.494C135.039 250.337 137.013 247.12 137.013 247.12C138.359 245.511 138.808 241.971 138.808 240.878C138.808 240.326 138.465 239.349 138.068 238.216C137.678 237.106 137.235 235.845 137.013 234.691C136.565 232.361 135.757 230.574 135.219 231.289C134.931 231.67 134.43 233.162 133.92 234.68C133.474 236.008 133.021 237.356 132.699 237.998C131.915 239.277 131.5 240.747 131.5 242.246C131.5 243.745 131.915 245.215 132.699 246.494Z" fill="#212136"/>
<path d="M141.499 250.962C141.499 250.962 140.809 248.749 140.243 248.378C139.677 248.006 138.117 250.158 137.972 251.767C137.891 252.658 138.368 253.222 138.85 253.791C139.237 254.249 139.627 254.71 139.732 255.348C139.967 256.778 141.112 254.99 141.499 253.471C141.725 252.65 141.725 251.783 141.499 250.962Z" fill="#212136"/>
<path d="M157.7 179.424C148.443 190.134 146.538 203.552 146.538 203.552C146.538 203.552 148.119 205.999 148.906 201.662C149.692 197.324 155.546 190.959 156.498 190.821L156.521 190.818C156.79 190.779 156.967 190.754 157.025 190.825C157.139 190.964 156.794 191.476 155.772 192.989C155.513 193.372 155.211 193.819 154.863 194.341C152.412 198.005 143.846 219.96 143.57 225.789C143.294 231.618 145.068 231.756 145.882 231.756C146.697 231.756 155.007 212.914 155.139 210.337C155.234 208.459 158.21 201.84 160.354 197.072C161.154 195.293 161.839 193.77 162.214 192.849C163.445 189.828 162.804 189.079 162.363 188.563C162.309 188.5 162.258 188.441 162.214 188.381C162.037 188.142 161.472 188.16 160.885 188.179C160.122 188.204 159.322 188.23 159.287 187.694C159.256 187.213 160.738 185.515 162.298 183.726C163.819 181.983 165.414 180.155 165.755 179.287C166.033 178.577 166.995 177.183 168.078 175.612C169.682 173.286 171.553 170.572 171.871 169.12C172.402 166.687 171.18 166.955 171.18 166.955C171.18 166.955 166.956 168.715 157.7 179.424Z" fill="#212136"/>
<path d="M168.627 202.198C168.627 202.198 166.411 207.436 161.786 207.051C158.613 206.787 160.9 201.344 163.004 196.335C163.967 194.044 164.891 191.844 165.238 190.271C166.342 185.26 174.901 166.687 176.655 165.058C178.408 163.428 183.191 161.621 183.875 163.133C184.265 163.995 183.368 165.118 182.221 166.551C181.358 167.631 180.353 168.888 179.65 170.344C179.29 171.091 178.745 172.155 178.109 173.395C175.864 177.779 172.488 184.372 172.106 187.013C171.616 190.402 168.627 202.198 168.627 202.198Z" fill="#212136"/>
<path d="M164.415 212.076C164.426 212.49 164.349 212.902 164.191 213.286C165.615 211.798 166.937 210.216 168.146 208.549C171.066 204.769 171.936 199.929 171.984 196.63C172.032 193.33 175.056 187.611 175.056 187.611C184.675 165.51 189.762 160.879 191.602 159.203C191.804 159.02 191.966 158.872 192.091 158.741C193.361 157.407 200.285 156.396 202.218 156.589C203.52 156.719 202.97 158.122 202.115 160.301C201.702 161.355 201.217 162.591 200.837 163.951C199.671 168.124 197.531 174.214 196.557 175.389C195.584 176.565 191.56 182.236 191.298 184.814C191.075 187 189.621 193.969 188.351 200.057L188.348 200.067C188.122 201.153 187.901 202.211 187.694 203.208C186.328 209.8 186.721 218.908 187.108 219.362C187.494 219.816 193.065 234.877 194.307 239.558C195.55 244.239 204.696 261.857 207.422 264.861C210.149 267.865 210.149 269.515 207.422 271.357C204.696 273.199 203.046 272.23 203.046 272.23C193.973 262.134 189.542 245.357 187.616 238.067C186.898 235.346 186.528 233.948 186.397 234.712C185.913 237.523 188.716 250.13 190.29 255.265C191.767 260.084 197.961 271.476 199.106 273.583L199.263 273.873C199.733 274.746 196.972 279.008 193.52 277.557C190.069 276.107 184.236 260.111 183.166 255.361C182.096 250.611 178.866 226.669 180.246 212.419C181.037 203.484 182.867 194.669 185.7 186.154C186.152 184.73 187.76 181.839 189.327 179.02C190.75 176.461 192.139 173.963 192.602 172.674C192.898 171.851 193.329 170.722 193.785 169.527C194.828 166.792 196.005 163.707 196.005 163.133C196.005 162.308 195.163 162.212 194.355 162.562C193.885 162.767 192.31 165.705 190.788 168.545C189.698 170.577 188.636 172.559 188.026 173.451C186.846 175.174 182.885 183.822 180.681 188.633L180.676 188.646C180.148 189.797 179.722 190.727 179.459 191.289C178.1 194.197 175.559 221.624 177.023 237.716C178.486 253.808 186.155 273.103 187.536 275.523C188.429 276.948 188.907 278.592 188.916 280.273C188.916 280.953 183.656 284.149 182.393 283.957C181.13 283.765 180.447 276.389 180.253 273.969C180.06 271.549 173.73 247.704 172.66 249.835C171.59 251.965 174.8 267.576 175.677 270.58C175.861 271.212 176.252 272.179 176.72 273.334C178.475 277.671 181.305 284.665 178.307 286.576C174.51 288.996 173.647 285.462 173.647 285.462C168.719 274.388 166.814 262.214 168.125 250.171C168.125 248.728 168.995 238.891 169.285 235.997C169.575 233.103 170.155 223.411 169.285 223.411C168.663 223.411 168.412 224.227 167.91 225.856C167.71 226.504 167.47 227.283 167.152 228.188C166.034 231.371 165.219 246.7 165.509 250.316C165.799 253.931 166.089 267.102 165.509 269.7C165.093 271.563 163.485 275.363 162.232 278.325C161.738 279.493 161.298 280.532 161.009 281.269C160.19 283.357 160.218 286.744 160.237 288.976C160.241 289.528 160.245 290.01 160.236 290.384C160.151 291.884 159.759 293.35 159.083 294.693C158.408 296.037 157.463 297.228 156.308 298.193C153.443 300.51 148.611 301.087 148.611 300.51C148.611 300.238 149.639 298.208 150.818 295.877C152.148 293.247 153.673 290.235 154.134 288.934C154.518 287.85 155.553 286.003 156.589 284.154C157.901 281.814 159.214 279.47 159.214 278.664C159.214 277.221 159.946 265.652 160.38 263.335C160.815 261.019 160.967 249.305 160.187 249.161C159.407 249.017 156.46 259.719 155.694 263.335C154.927 266.951 153.554 261.885 153.112 259.864C152.678 257.276 152.829 254.625 153.554 252.103C153.888 251.17 154.153 249.333 154.429 247.423C154.779 245 155.145 242.458 155.694 241.49C155.994 240.958 156.593 240.29 157.294 239.507C158.88 237.737 160.993 235.377 161.395 232.67C161.975 228.766 161.975 219.362 161.975 219.362C161.975 219.362 156.011 225.439 156.598 229.254C157.185 233.069 156.425 236.142 154.713 238.376C153.002 240.61 151.262 243.806 151.262 246.267C151.262 248.728 150.095 250.467 149.081 249.45C148.066 248.432 147.051 242.218 147.051 239.036C147.051 235.853 156.336 213.581 157.757 211.299C157.92 211.038 158.065 210.795 158.198 210.571C159.234 208.832 159.597 208.222 162.299 209.306C162.698 209.427 163.066 209.629 163.381 209.9C163.696 210.171 163.951 210.505 164.129 210.879C164.307 211.254 164.404 211.661 164.415 212.076Z" fill="#212136"/>
<path d="M166.71 278.128C166.342 278.067 165.965 278.079 165.602 278.163C165.239 278.247 164.895 278.402 164.592 278.618C164.289 278.835 164.031 279.109 163.835 279.424C163.638 279.74 163.505 280.091 163.445 280.458C163.07 282.324 163.09 285.044 163.104 287.079C163.111 288.043 163.117 288.853 163.079 289.346C163.026 290.042 162.594 291.255 162.189 292.395C161.701 293.767 161.25 295.033 161.54 295.168C162.072 295.416 165.682 294.557 167.449 292.474C169.216 290.391 170.769 287.566 170.707 284.809C170.645 282.053 169.727 278.128 166.71 278.128Z" fill="#212136"/>
<path d="M214.107 156.933C214.797 157.545 212.423 160.439 212.423 160.439C212.423 160.439 207.066 171.87 205.769 174.159C204.471 176.448 196.588 192.678 198.348 199.346C199.883 205.159 199.266 211.182 198.776 215.964C198.704 216.667 198.635 217.343 198.576 217.988C198.113 223.02 204.844 238.335 206.128 240.473C207.411 242.61 217.255 260.215 217.255 260.215L221.231 264.793C221.231 264.793 216.054 270.663 210.877 264.793C205.7 258.922 193.806 231.255 191.894 217.761C189.982 204.267 191.673 194.589 192.281 191.702C192.565 190.352 194.237 186.695 196.064 182.7C198.144 178.153 200.424 173.168 201.082 170.654C202.317 165.931 207.301 157.469 208.675 155.868C210.048 154.266 213.417 156.321 214.107 156.933Z" fill="#212136"/>
<path d="M208.067 195.152C208.205 192.622 208.669 190.12 209.448 187.707C210.615 184.559 211.864 179.314 209.448 178.159C207.032 177.005 202.925 177.843 202.925 186.656C202.925 189.408 202.723 192.295 202.508 195.362C202.035 202.114 201.501 209.744 202.925 218.757C204.996 231.866 215.039 255.292 228.209 267.397C236.036 274.591 238.429 276.027 240.453 277.241C241.835 278.069 243.045 278.795 245.694 281.18C252.224 287.057 285.17 293.251 294.344 292.089C303.518 290.927 305.934 286.638 306.355 285.064C306.776 283.489 305.513 280.864 304.249 282.018L304.244 282.023C302.967 283.191 296.107 289.463 273.912 284.534C251.686 279.599 245.673 274.155 244.41 273C243.781 272.424 240.352 268.985 236.888 265.509L236.885 265.506L236.874 265.495L236.871 265.492C233.387 261.997 229.871 258.47 229.134 257.788C227.664 256.427 213.258 236.911 213.258 234.182C213.258 233.518 214.364 235.11 216.398 238.037C222.717 247.132 237.992 269.115 256.869 276.354C281.823 285.923 290.9 284.225 295.745 282.651L296.48 282.413C301.066 280.927 305.409 279.521 305.409 277.928C305.409 276.251 305.306 272.89 303.614 272.89C303.01 272.89 301.451 273.587 299.491 274.464C295.967 276.041 291.145 278.198 288.235 277.928C286.329 277.752 284.087 277.148 281.681 276.5C278.371 275.608 274.753 274.634 271.275 274.574C265.27 274.471 252.521 267.129 249.47 264.187C249.018 263.752 248.263 263.192 247.253 262.443C241.439 258.13 227.154 247.535 213.334 218.132C213.334 218.132 207.363 200.314 208.067 195.152Z" fill="#212136"/>
<path d="M243.857 283.098C245.155 282.864 251.768 287.332 251.768 287.332C251.768 287.332 254.26 290.797 278.468 293.594C298.508 295.91 303.003 292.036 304.631 290.634C304.969 290.342 305.184 290.157 305.388 290.157C306.575 290.157 307.031 294.516 306.423 296.042C305.816 297.568 299.728 299.692 296.069 300.042C293.823 300.257 292.02 300.162 287.983 299.948C285.444 299.813 282.023 299.632 277.052 299.451C268.499 299.017 260.13 296.814 252.479 292.983C251.908 292.665 250.45 292.794 248.967 292.924C247.687 293.037 246.389 293.151 245.625 292.983C243.975 292.618 243.029 290.164 242.912 287.807L242.894 287.469L242.881 287.221C242.766 285.108 242.668 283.312 243.857 283.098Z" fill="#212136"/>
<path d="M254.96 297.1C254.96 297.1 250.128 293.567 248.581 294.983C247.035 296.399 246.814 300.627 251.771 301.802C254.032 302.338 257.575 303.267 260.994 304.163C265.07 305.231 268.971 306.253 270.318 306.511C272.796 306.985 279.892 308.161 285.324 308.161C288.63 308.161 291.891 307.244 294.446 306.527C296.09 306.065 297.441 305.686 298.322 305.686C300.572 305.686 307.178 305.686 307.537 304.311C307.812 303.26 307.263 301.341 306.931 300.179C306.829 299.822 306.747 299.535 306.716 299.369C306.585 298.661 304.7 298.894 303.396 299.602C302.091 300.31 294.305 302.778 290.757 303.039C287.209 303.301 277.524 303.534 269.02 301.465C264.243 300.316 259.546 298.858 254.96 297.1Z" fill="#212136"/>
<path d="M264.417 313.453C292.532 317.804 302.693 310.862 302.693 310.862C302.693 310.862 305.53 309.803 303.873 307.569C302.575 305.818 299.538 307.103 296.694 308.307C295.909 308.639 295.139 308.965 294.423 309.219C291.117 310.394 283.434 310.717 277.609 310.511C271.783 310.305 250.598 303.328 248.942 302.743C247.844 302.356 246.437 300.777 245.406 299.62C244.881 299.03 244.453 298.55 244.213 298.392C243.502 297.925 236.303 309.102 264.417 313.453Z" fill="#212136"/>
<path d="M247.608 311.219C247.608 311.219 245.04 309.453 245.04 311.219C245.04 312.986 246.42 315.804 249.181 317.096C251.366 318.248 253.799 318.854 256.271 318.863C259.277 319.127 262.204 319.965 264.892 321.331C267.253 322.513 275.646 325.806 290.294 323.097C304.941 320.389 308.482 316.98 309.193 315.921C309.904 314.862 309.545 312.979 309.193 311.453C308.841 309.927 307.813 309.178 306.432 310.429C305.052 311.68 296.541 319.214 275.75 317.921C254.959 316.629 247.608 311.219 247.608 311.219Z" fill="#212136"/>
<path d="M255.433 321.214C260.154 320.039 261.928 322.513 261.928 322.513C261.928 322.513 262.757 326.528 277.314 327.82C288.525 328.815 299.761 323.749 305.412 321.2C307.1 320.439 308.289 319.903 308.832 319.819C311.193 319.454 312.249 321.455 309.591 324.631C306.934 327.806 298.671 330.157 294.654 331.099C291.943 331.734 285.736 332.21 280.702 332.596C278.274 332.782 276.119 332.947 274.76 333.099C270.584 333.567 269.494 333.099 268.548 332.274C268.356 332.107 267.503 331.598 266.307 330.884C261.624 328.089 251.672 322.151 255.433 321.214Z" fill="#212136"/>
<path d="M282.141 335.354C282.141 335.354 275.072 335.443 275.341 336.935C275.611 338.427 278.958 341.341 282.141 340.723C282.684 340.617 283.653 340.445 284.904 340.223L284.917 340.22L284.936 340.217L284.961 340.212L284.975 340.21C291.079 339.126 303.721 336.881 306.714 335.354C307.656 334.873 308.555 334.482 309.371 334.127L309.374 334.126C311.694 333.116 313.334 332.403 313.334 330.776C313.334 328.576 312.692 325.964 311.159 326.528C310.926 326.614 310.37 326.909 309.554 327.344C305.012 329.761 292.4 336.472 282.141 335.354Z" fill="#212136"/>
<path d="M288.624 345.032C288.624 344.152 296.369 341.692 296.369 341.692C298.235 341.552 305.28 337.921 308.832 336.09L308.836 336.088C309.827 335.577 310.546 335.207 310.802 335.093C311.329 334.85 311.903 334.724 312.483 334.724C313.064 334.724 313.637 334.85 314.164 335.093C314.778 335.532 315.572 338.956 315.31 340.805C315.111 342.207 311.151 343.155 307.976 343.915C306.965 344.157 306.033 344.38 305.328 344.592C304.072 344.971 302.343 345.84 300.576 346.727C298.236 347.902 295.83 349.111 294.367 349.26C291.799 349.521 288.624 345.912 288.624 345.032Z" fill="#212136"/>
<path d="M303.811 353.659C302.964 354.097 302.024 354.326 301.071 354.326C300.117 354.326 299.177 354.097 298.33 353.659C295.327 352.161 296.384 350.518 299.02 349.274C300.798 348.435 303.469 347.359 305.59 346.505C306.615 346.092 307.513 345.73 308.118 345.472C309.975 344.682 314.676 342.922 315.331 343.623C315.987 344.325 317.043 346.181 316.871 346.792C316.698 347.404 303.811 353.659 303.811 353.659Z" fill="#212136"/>
<path d="M303.352 357.529C303.352 358.237 308.032 360.698 308.032 360.698C309.889 361.049 320.209 358.409 320.209 355.989C320.209 353.57 317.737 351.281 317.737 351.281C317.737 351.281 308.122 355.151 306.693 355.151C305.264 355.151 303.352 356.821 303.352 357.529Z" fill="#212136"/>
<path d="M320.23 365.977C320.23 365.977 317.669 366.507 316.165 365.977C315.351 365.691 314.46 364.968 313.717 364.365C313.085 363.853 312.56 363.427 312.278 363.427C311.664 363.427 313.707 362.107 315.336 362.052C316.452 362.015 318.045 361.522 319.25 361.149C319.804 360.978 320.276 360.832 320.582 360.767C321.556 360.561 322.791 361.88 322.791 363.516C322.791 365.152 320.23 365.977 320.23 365.977Z" fill="#212136"/>
<path d="M227.33 158.775C227.33 159.304 224.61 161.957 224.61 161.957C221.89 165.106 218.322 174.001 218.087 176.221C217.852 178.441 218.784 184.621 219.723 188.353C220.132 189.978 220.962 194.679 221.875 199.853L221.876 199.856C223.06 206.566 224.385 214.071 225.114 216.695C225.866 219.401 228.045 223.902 229.804 227.535C231.066 230.14 232.111 232.298 232.258 233.027C232.61 234.773 246.788 249.47 248.776 250.288C249.554 250.608 251.874 252.553 254.739 254.955C259.198 258.694 264.979 263.541 268.332 265.101C273.84 267.665 290.593 270.58 293.699 270.814C296.805 271.047 294.569 273.048 294.569 273.048C282.358 275.302 266.578 274.464 251.468 262.654C220.427 238.389 214.801 215.76 212.227 193.832C209.652 171.904 217.756 156.238 220.075 155.736C222.394 155.235 227.33 158.245 227.33 158.775Z" fill="#212136"/>
<path d="M235.417 164.288C235.417 164.288 238.344 163.511 238.461 162.562C238.578 161.614 238.109 159.373 234.319 158.74C230.53 158.108 226.878 160.803 224.304 167.56C221.729 174.317 222.923 188.67 226.181 197.53C227.476 201.051 227.96 204.297 228.462 207.671C229.225 212.786 230.03 218.194 233.774 225.294C234.645 226.946 235.389 228.367 236.032 229.593C239.972 237.113 240.09 237.338 242.202 238.939C244.011 240.31 250.584 246.679 254.674 250.642L254.678 250.646C256.142 252.064 257.289 253.176 257.782 253.636C259.652 255.382 269.613 261.919 271.587 261.919C273.561 261.919 274.403 258.771 274.286 257.251C274.169 255.732 273.934 254.921 271.235 254.804C268.536 254.687 264.677 250.254 264.677 250.254C264.677 250.254 250.272 236.726 249.098 236.025C247.925 235.323 236.335 222.146 236.335 220.627C236.335 219.108 236.57 216.777 237.509 218.063C237.611 218.204 237.784 218.447 238.017 218.773C239.906 221.427 245.721 229.591 249.685 233.227C254.137 237.31 268.191 249.202 271.587 250.604C274.983 252.007 276.509 252.123 276.743 249.436C276.978 246.748 278.614 245.469 280.022 246.287C281.43 247.105 292.005 253.161 295.325 252.818C297.122 252.632 299.386 251.078 301.328 249.746C302.975 248.616 304.389 247.646 305.086 247.807C306.604 248.157 302.276 253.051 300.868 253.869C299.46 254.687 302.042 256.433 302.511 256.667C303.385 257.152 304.392 257.347 305.385 257.223C306.378 257.099 307.306 256.664 308.033 255.98C310.615 253.766 310.849 250.852 309.207 246.769C308.221 244.319 307.648 241.001 307.213 238.483C306.923 236.805 306.694 235.48 306.446 235.007C306.361 234.846 306.278 234.67 306.196 234.494C305.679 233.386 305.172 232.302 304.064 235.007L303.94 235.311C302.628 238.537 300.173 244.57 292.116 245.016C283.798 245.476 274.666 244.328 264.588 237.667C254.51 231.007 242.333 221.926 232.732 194.863C223.13 167.8 235.417 164.288 235.417 164.288Z" fill="#212136"/>
<path fill-rule="evenodd" clip-rule="evenodd" d="M301.557 221.517C302.005 221.416 302.474 221.474 302.884 221.679C303.471 222.146 304.092 225.501 304.092 226.669C304.092 227.838 303.74 239.063 292.613 241.483C283.373 243.492 275.748 239.416 271.079 236.92C270.125 236.41 269.294 235.966 268.598 235.653C264.498 233.811 255.014 225.535 250.327 221.218C245.64 216.901 241.195 207.223 239.786 203.023C239.478 202.102 239.059 200.936 238.579 199.599C236.868 194.835 234.381 187.91 233.346 182.263C232.35 176.826 233.625 174.155 234.618 172.075C234.945 171.389 235.242 170.767 235.417 170.131C236.121 167.567 242.334 164.068 244.908 163.14C247.483 162.212 249.471 166.047 249.354 166.955C249.236 167.862 248.719 171.299 248.719 171.299C248.099 175.503 251.885 182.782 255.202 189.159L255.566 189.859C258.962 196.396 270.911 211.32 280.278 216.454C287.805 220.581 294.81 212.674 297.877 209.212C298.627 208.366 299.141 207.785 299.37 207.711C300.537 207.333 301.365 212.577 300.309 215.959C299.253 219.341 299.957 222.957 300.427 222.229C300.709 221.868 301.109 221.617 301.557 221.517ZM252.086 216.249L252.088 216.252C252.843 217.389 253.41 218.243 253.537 218.413C253.972 219.012 261.302 225.411 261.302 225.411C261.419 224.126 258.493 219.809 255.331 216.193C252.746 213.462 249.923 210.964 246.896 208.728C247.312 209.059 250.251 213.486 252.086 216.249ZM273.56 227.017C275.91 228.811 279.429 231.496 286.718 231.749C295.622 232.072 297.817 227.494 297.396 226.807C296.975 226.119 295.353 226.105 293.648 226.807C293.539 226.851 293.411 226.908 293.265 226.972C291.121 227.917 285 230.615 276.012 224.476C266.41 217.919 255.511 206.171 254.165 203.483C253.912 202.979 253.372 202.084 252.665 200.91C249.604 195.833 243.401 185.544 243.687 179.101C243.687 179.101 242.879 175.018 242.996 174.09C243.114 173.162 240.07 174.674 240.539 176.599C241.008 178.524 245.661 194.849 247.331 198.115C249.002 201.38 253.219 206.006 258.375 211.333C260.411 213.436 262.611 215.927 264.677 218.266C267.845 221.853 270.696 225.08 272.146 225.995C272.579 226.269 273.041 226.621 273.56 227.017Z" fill="#212136"/>
<path fill-rule="evenodd" clip-rule="evenodd" d="M298.196 199.984C297.668 199.984 296.875 200.548 296.071 201.119C294.773 202.042 293.447 202.984 293.157 201.613C292.93 200.537 293.428 198.86 294.005 196.912C294.62 194.842 295.324 192.466 295.346 190.182C295.387 185.748 294.448 177.472 292.343 173.272C290.238 169.072 288.243 165.573 284.612 167.773C281.287 169.787 282.575 171.455 283.987 173.284C284.117 173.453 284.249 173.623 284.377 173.794C284.516 173.98 284.676 174.187 284.851 174.415L284.853 174.418C286.601 176.688 289.899 180.971 289.899 185.741C289.899 190.993 289.085 198.115 287.09 198.568C285.095 199.022 280.187 197.4 275.611 194.018C271.034 190.636 263.876 184.105 262.496 182.126C261.115 180.146 258.161 175.355 258.982 174.564C259.804 173.774 261.088 173.396 262.261 175.609C263.434 177.823 269.64 184.36 271.276 185.879C271.471 186.061 271.714 186.287 271.993 186.548L272 186.554C274.056 188.474 278.066 192.22 279.711 193.344C279.919 193.486 280.132 193.64 280.35 193.796C282.097 195.052 284.136 196.519 285.799 193.921C287.67 191 287.794 184.36 286.386 181.796C284.978 179.232 282.569 174.922 281.844 173.815C281.119 172.708 279.711 170.832 277.012 171.993C274.313 173.155 274.555 175.259 275.369 176.077C275.564 176.272 275.967 176.588 276.473 176.984C278.082 178.242 280.727 180.312 280.995 181.913C281.051 182.248 281.122 182.621 281.195 183.005C281.579 185.03 282.018 187.347 280.643 185.879C279.945 185.134 278.798 183.683 277.63 182.206C276.06 180.22 274.452 178.187 273.851 177.761C272.801 177.018 265.064 172.344 265.064 172.344C265.064 172.344 255.814 168.495 255.227 167.567C254.64 166.639 252.728 166.398 254.095 171.877C254.292 172.666 254.483 173.475 254.676 174.297C255.823 179.172 257.068 184.465 260.377 188.56C263.548 192.485 264.118 194.365 264.673 196.201C264.795 196.602 264.916 197.002 265.064 197.42C265.885 199.751 273.733 211.539 283.922 213.987C292.835 216.128 296.64 207.467 297.845 204.723C298.018 204.33 298.137 204.059 298.21 203.957C298.797 203.146 299.605 199.984 298.196 199.984ZM288.477 207.071C288.248 208.651 286.27 208.087 284.414 207.557C283.419 207.273 282.459 206.999 281.823 207.071C280.001 207.278 276.412 204.067 274.189 201.476C271.966 198.884 270.206 196.252 270.91 195.901C271.261 195.726 272.135 196.508 273.271 197.524C274.414 198.546 275.824 199.807 277.233 200.569C277.527 200.728 277.834 200.896 278.149 201.069C280.839 202.547 284.178 204.381 286.483 204.067C289.057 203.717 288.477 207.071 288.477 207.071Z" fill="#212136"/>
<path d="M308.178 260.242C308.178 259.239 310.249 256.908 310.249 256.908C311.985 256.517 312.088 258.443 312.162 259.809C312.172 260.001 312.182 260.183 312.195 260.345L312.204 260.451C312.311 261.71 312.39 262.634 311.188 263.37C309.952 264.126 309.186 263.679 309.227 262.682C309.248 262.178 308.979 261.816 308.709 261.452C308.444 261.096 308.178 260.738 308.178 260.242Z" fill="#212136"/>
<path d="M312.239 265.349C312.239 265.349 310.113 266.683 310.251 268.236C310.315 268.961 310.265 269.639 310.219 270.269C310.166 270.989 310.118 271.646 310.251 272.237C310.499 273.344 312.28 273.46 312.839 272.237C312.966 271.96 313.109 271.707 313.247 271.462C313.721 270.623 314.137 269.885 313.619 268.683C313.365 268.094 313.298 267.3 313.239 266.606C313.143 265.472 313.07 264.607 312.239 265.349Z" fill="#212136"/>
<path d="M311.162 281.462C310.934 282.685 313.861 280.575 313.861 280.575L313.887 280.559C315.411 279.613 316.4 278.999 314.958 276.237C313.94 274.287 313.634 274.585 313.195 275.011C313.009 275.191 312.799 275.395 312.501 275.461C311.751 275.625 311.501 278.224 311.327 280.032C311.269 280.637 311.219 281.155 311.162 281.462Z" fill="#212136"/>
<path d="M316.188 284.239C316.188 284.239 316.981 281.27 314.745 283.091C313.859 283.812 313.222 284.16 312.783 284.399C312.112 284.764 311.905 284.877 311.984 285.683C312.115 287.016 312.619 289.12 313.834 288.797C313.999 288.753 314.182 288.722 314.372 288.69C315.573 288.489 317.052 288.241 316.188 284.239Z" fill="#212136"/>
<path d="M314.218 294.241C313.922 292.131 317.525 290.46 317.525 290.46C318.314 290.009 318.363 291.076 318.422 292.356C318.454 293.046 318.488 293.797 318.643 294.406C319.085 296.145 317.863 298.324 317.076 298.365C316.289 298.406 314.515 296.351 314.218 294.241Z" fill="#212136"/>
</g>
<path fill-rule="evenodd" clip-rule="evenodd" d="M228.711 431.345C340.623 431.345 431.345 340.623 431.345 228.711C431.345 116.799 340.623 26.0759 228.711 26.0759C116.799 26.0759 26.0761 116.799 26.0761 228.711C26.0761 340.623 116.799 431.345 228.711 431.345ZM228.711 438.582C344.62 438.582 438.582 344.619 438.582 228.711C438.582 112.802 344.62 18.839 228.711 18.839C112.802 18.839 18.8391 112.802 18.8391 228.711C18.8391 344.619 112.802 438.582 228.711 438.582Z" fill="#212136"/>
<path fill-rule="evenodd" clip-rule="evenodd" d="M228.5 445.628C348.416 445.628 445.628 348.416 445.628 228.5C445.628 108.584 348.416 11.3724 228.5 11.3724C108.584 11.3724 11.3724 108.584 11.3724 228.5C11.3724 348.416 108.584 445.628 228.5 445.628ZM228.5 457C354.697 457 457 354.697 457 228.5C457 102.303 354.697 0 228.5 0C102.303 0 0 102.303 0 228.5C0 354.697 102.303 457 228.5 457Z" fill="#212136"/>
<defs>
<filter id="filter0_b_166_2" x="72.2087" y="57.7346" width="269.582" height="327.478" filterUnits="userSpaceOnUse" color-interpolation-filters="sRGB">
<feFlood flood-opacity="0" result="BackgroundImageFix"/>
<feGaussianBlur in="BackgroundImage" stdDeviation="9.5"/>
<feComposite in2="SourceAlpha" operator="in" result="effect1_backgroundBlur_166_2"/>
<feBlend mode="normal" in="SourceGraphic" in2="effect1_backgroundBlur_166_2" result="shape"/>
</filter>
</defs>
</svg>
