<svg width="1920" height="334" viewBox="0 0 1920 334" fill="none" xmlns="http://www.w3.org/2000/svg">
<g opacity="0.3">
<path d="M1919.68 272.818C1821.16 272.768 1719.17 274.637 1621.24 271.02C1500.32 266.557 1383.13 254.233 1262.63 248.67C1164.61 244.147 1079.52 248.984 987.787 261.088C912.099 271.075 837.761 281.898 755.39 282.239C668.336 282.602 589.855 268.371 509.341 258.79C416.366 247.725 336.98 250.078 247.132 263.561C161.57 276.402 81.7871 292.886 -14.7911 291.963C-134.212 290.82 -246.268 273.345 -366.165 272.818" stroke="url(#paint0_linear_29_65)" stroke-miterlimit="10"/>
<path d="M1919.68 264.875C1823.69 264.809 1723.29 266.8 1628.01 262.583C1501.91 257.002 1380.49 242.739 1254.98 235.931C1154.97 230.504 1074.72 236.718 984.918 252.014C913.898 264.111 842.561 278.083 761.335 278.82C670.029 279.639 585.247 261.147 502.878 249.782C459.733 243.86 414.254 238.312 367.22 239.588C321.186 240.842 277.597 247.555 237.341 254.984C156.194 269.923 77.1427 290.487 -19.4177 288.915C-138.312 286.974 -246.62 266.239 -366.165 264.892" stroke="url(#paint1_linear_29_65)" stroke-miterlimit="10"/>
<path d="M1919.68 257.934C1826.02 257.851 1727.25 259.907 1634.58 255.163C1503.66 248.48 1378.45 232.248 1248.28 224.202C1145.98 217.873 1070.36 225.404 982.987 243.996C916.744 258.094 848.389 275.323 767.891 276.493C672.645 277.872 580.575 254.853 496.632 241.824C452.66 234.997 404.164 227.798 355.049 229.383C309.014 230.868 265.884 238.981 227.389 247.393C150.637 264.174 72.3927 289.083 -24.4084 286.861C-142.799 284.134 -246.934 260.062 -366.165 257.934" stroke="url(#paint2_linear_29_65)" stroke-miterlimit="10"/>
<path d="M1919.68 250.856C1828.26 250.757 1730.95 252.799 1640.65 247.74C1505.46 240.16 1376.89 222.336 1242.69 213.275C1191.59 209.829 1143.16 207.836 1093.11 213.88C1052.33 218.807 1016.45 227.455 981.848 236.197C919.939 251.825 854.586 271.868 774.28 273.436C675.545 275.369 576.079 248.357 490.772 234.094C446.04 226.613 394.56 217.948 343.573 219.781C297.333 221.433 254.775 230.719 217.932 239.89C145.261 257.968 67.9548 286.582 -29.3682 283.813C-147.327 280.45 -247.142 253.575 -366.165 250.828" stroke="url(#paint3_linear_29_65)" stroke-miterlimit="10"/>
<path d="M1919.68 244.342C1830.18 244.238 1734.19 246.263 1645.96 240.989C1507.35 232.703 1376.33 213.409 1238.75 203.526C1187.48 199.844 1139.19 197.561 1089.39 204.399C1048.99 209.979 1014.56 219.555 981.641 229.125C923.368 246.043 860.745 268.531 780.043 270.424C728.468 271.637 676.608 262.335 632.066 254.461C582.65 245.725 535.14 235.77 485.74 227.023C440.341 218.99 386.369 209.134 333.668 211.192C287.094 213.008 245.203 223.21 209.677 233.032C140.34 252.238 64.494 283.989 -33.7655 280.773C-151.518 276.932 -247.158 247.475 -366.165 244.32" stroke="url(#paint4_linear_29_65)" stroke-miterlimit="10"/>
<path d="M1919.68 237.337C1831.78 237.232 1736.81 239.277 1650.28 233.866C1509.23 225.05 1376.68 204.289 1236.8 193.715C1185.76 189.846 1137.11 187.375 1087.82 194.754C1047.47 200.796 1014.07 211.27 982.34 221.573C926.495 239.697 866.238 264.227 784.551 266.344C731.564 267.704 678.196 257.556 632.955 249.165C581.889 239.686 532.949 228.897 481.883 219.406C435.848 210.844 380.29 200.138 326.176 202.321C279.11 204.223 237.932 215.139 203.375 225.602C136.181 245.937 62.6528 280.212 -37.1782 276.758C-154.931 272.684 -246.92 240.631 -366.165 237.359" stroke="url(#paint5_linear_29_65)" stroke-miterlimit="10"/>
<path d="M1919.68 230.274C1833.02 230.187 1738.64 232.249 1653.38 226.937C1511.14 218.074 1378.23 196.447 1237.28 185.697C1186.94 181.867 1137.39 179.373 1088.8 186.725C1048.11 192.88 1015.18 203.806 984.032 214.436C929.078 233.223 870.601 258.477 787.201 260.512C733.041 261.836 679.532 251.687 633.657 243.005C581.513 233.157 531.67 221.931 479.542 212.072C432.921 203.253 377.126 192.486 321.902 194.631C274.282 196.48 233.804 207.482 199.676 218.282C133.008 239.372 62.9901 274.156 -39.1716 270.77C-157.223 266.858 -246.431 233.179 -366.165 230.285" stroke="url(#paint6_linear_29_65)" stroke-miterlimit="10"/>
<path d="M1919.68 223.703C1833.34 223.515 1739.26 225.853 1654.36 220.396C1513.08 211.295 1381.87 188.855 1242.02 177.77C1191.83 173.795 1142.3 171.414 1093.74 178.734C1052.47 184.969 1018.88 196.109 987.276 206.951C931.305 226.156 872.206 251.925 787.71 254.329C733.167 255.878 679.973 245.779 633.891 236.894C581.666 226.817 531.917 215.286 479.708 205.204C432.864 196.153 377.353 185.454 321.715 187.769C273.776 189.764 233.535 200.871 199.343 211.874C132.403 233.421 63.7163 268.005 -39.2578 264.791C-157.645 261.109 -245.936 226.25 -366.165 223.703" stroke="url(#paint7_linear_29_65)" stroke-miterlimit="10"/>
<path d="M1919.68 217.75C1832.97 217.41 1739.17 220.348 1653.98 214.532C1515.2 205.059 1386.94 182.335 1249.64 170.901C1198.84 166.667 1150.62 164.465 1101.36 171.808C1059.34 178.063 1024.56 189.046 991.797 199.754C933.967 218.678 872.375 244.61 787.876 247.877C733.666 249.975 680.281 239.887 634.595 231.04C583.004 221.051 534 209.551 482.424 199.551C435.675 190.484 380.162 179.908 324.603 182.648C276.805 185.004 235.977 196.229 201.307 207.069C134.016 228.102 63.3443 261.908 -38.3937 258.8C-157.07 255.17 -245.648 220.243 -366.165 217.75" stroke="url(#paint8_linear_29_65)" stroke-miterlimit="10"/>
<path d="M1919.68 211.423C1832.48 211.015 1738.94 214.78 1653.22 208.61C1517.27 198.823 1392.36 175.748 1257.95 164.023C1206.72 159.542 1159.62 157.544 1109.81 164.81C1067.14 171.036 1030.96 181.759 996.978 192.41C937.212 211.125 872.779 237.024 788.361 241.092C734.643 243.685 681.671 233.782 636.398 224.953C585.68 215.045 537.708 203.59 487.022 193.687C440.415 184.582 385.428 174.283 330.122 177.421C282.277 180.14 240.719 191.441 205.272 202.191C137.093 222.833 64.1033 255.872 -36.8562 252.8C-156.055 249.178 -245.125 213.944 -366.165 211.456" stroke="url(#paint9_linear_29_65)" stroke-miterlimit="10"/>
<path d="M1919.68 205.273C1831.88 204.883 1738.39 209.631 1652.07 203.165C1519.24 193.224 1397.96 169.978 1266.72 158.084C1215.29 153.423 1169.08 151.672 1118.86 158.709C1075.43 164.791 1037.9 175.176 1002.6 185.605C940.342 203.933 873.657 229.386 789.003 234.189C735.922 237.197 683.888 227.75 639.061 219.006C589.456 209.324 542.708 198 493.135 188.306C446.705 179.222 392.782 169.462 337.812 172.937C289.747 175.983 247.333 187.208 210.824 197.78C141.282 217.908 65.6915 249.843 -34.7248 246.797C-154.65 243.158 -244.399 207.787 -366.165 205.289" stroke="url(#paint10_linear_29_65)" stroke-miterlimit="10"/>
<path d="M1919.68 198.847C1831.17 198.539 1737.7 204.441 1650.6 197.681C1521.1 187.632 1403.68 164.128 1275.82 152.143C1224.42 147.314 1178.84 145.812 1128.36 152.556C1084.15 158.463 1045.31 168.507 1008.56 178.638C943.48 196.586 874.762 221.481 789.789 226.987C687.244 233.637 583.619 199.028 500.519 182.714C454.262 173.628 401.799 164.524 347.304 168.336C298.857 171.73 255.553 182.868 217.789 193.303C146.483 212.999 68.0659 243.857 -32.0984 240.787C-152.915 237.091 -243.523 201.388 -366.165 198.847" stroke="url(#paint11_linear_29_65)" stroke-miterlimit="10"/>
<path d="M1919.68 192.642C1830.39 192.472 1736.91 199.608 1648.9 192.642C1522.88 182.63 1409.51 159.118 1285.2 147.145C1233.97 142.216 1188.84 140.989 1138.22 147.315C1093.2 152.951 1053.01 162.508 1014.82 172.279C946.909 189.64 876.143 213.602 790.742 219.763C689.752 227.037 590.587 193.573 509.027 177.591C463.929 168.768 411.355 159.873 358.352 164.419C309.143 168.636 265.791 178.862 225.884 189.268C152.531 208.382 71.0977 237.864 -29.0667 234.775C-150.915 231.024 -242.491 195.205 -366.165 192.603" stroke="url(#paint12_linear_29_65)" stroke-miterlimit="10"/>
<path d="M1919.68 186.946C1829.55 186.946 1735.97 195.494 1646.98 188.234C1524.55 178.244 1415.34 154.515 1294.69 142.549C1085.16 121.749 975.854 198.538 791.797 213.234C692.586 221.165 598.438 188.746 518.355 173.009C473.464 164.203 422.922 156.183 370.586 161.01C320.758 165.606 276.391 175.657 234.881 185.917C159.242 204.631 74.6503 232.911 -25.7197 229.757C-148.694 225.904 -241.349 189.626 -366.165 186.946" stroke="url(#paint13_linear_29_65)" stroke-miterlimit="10"/>
<path d="M1919.68 181.475C1828.67 181.706 1734.94 191.653 1644.89 184.181C1526.11 174.328 1421.07 150.555 1304.19 138.698C1098.99 117.891 974.019 190.965 792.932 206.706C695.436 215.189 606.94 184.22 528.317 168.793C483.617 160.023 435.282 153.064 383.692 158.109C333.198 163.06 287.704 172.853 244.528 182.894C166.461 201.05 78.6475 227.959 -22.1505 224.735C-146.33 220.768 -240.144 184.242 -366.165 181.475" stroke="url(#paint14_linear_29_65)" stroke-miterlimit="10"/>
<path d="M1919.68 175.897C1827.77 176.365 1733.84 187.787 1642.65 180.114C1527.5 170.423 1426.76 146.577 1313.5 134.857C1112.64 114.07 972.202 183.284 794.044 200.107C698.29 209.148 615.806 179.645 538.562 164.492C494.018 155.755 448.078 149.901 397.28 155.121C346.085 160.407 299.415 170.004 254.522 179.816C173.944 197.456 82.8886 223.011 -18.4215 219.709C-143.829 215.614 -238.884 178.741 -366.165 175.875" stroke="url(#paint15_linear_29_65)" stroke-miterlimit="10"/>
<path d="M1919.68 170.221C1826.88 170.934 1732.68 183.854 1640.3 175.998C1528.7 166.501 1432.13 142.575 1322.52 131.021C1125.94 110.296 970.482 175.539 795.25 193.423C701.229 203.02 624.939 175.009 549.014 160.105C504.662 151.398 460.961 146.683 411.006 152.106C359.098 157.744 311.207 167.126 264.632 176.722C181.533 193.86 87.2733 218.073 -14.6689 214.678C-141.39 210.455 -237.618 173.218 -366.165 170.221" stroke="url(#paint16_linear_29_65)" stroke-miterlimit="10"/>
<path d="M1919.68 165.043C1826.02 165.987 1731.51 180.227 1638.07 172.3C1529.91 163.123 1437.41 139.388 1331.3 128.149C1138.61 107.743 968.746 168.269 796.36 187.007C704.056 197.045 633.975 170.814 559.29 156.289C515.13 147.704 473.573 144.171 424.572 149.706C371.951 155.641 322.855 164.736 274.615 173.995C189.073 190.419 91.6733 213.09 -10.9645 209.65C-138.952 205.344 -236.368 168.093 -366.165 165.054" stroke="url(#paint17_linear_29_65)" stroke-miterlimit="10"/>
<path d="M1919.68 159.364C1825.08 160.537 1730.35 176.205 1635.75 168.137C1530.84 159.187 1442.25 135.374 1339.43 124.332C1150.43 104.032 966.976 160.581 797.472 180.39C706.704 190.998 642.89 166.121 569.234 151.83C525.215 143.293 485.831 140.815 437.653 146.532C384.348 152.832 334.059 161.781 284.246 170.808C196.351 186.729 95.9469 208.153 -7.40961 204.612C-136.609 200.178 -235.172 162.508 -366.165 159.364" stroke="url(#paint18_linear_29_65)" stroke-miterlimit="10"/>
<path d="M1919.68 154.58C1824.2 155.925 1729.19 172.631 1633.54 164.601C1531.62 156.05 1446.7 132.59 1346.96 121.967C1250.21 111.658 1147.29 123.296 1056.92 135.731C969.767 147.727 886.922 163.461 798.472 174.34C708.848 185.365 651.686 162.013 578.587 148.297C481.518 130.094 382.099 153.18 293.253 168.149C203.232 183.297 100.004 203.144 -4.03347 199.58C-134.374 195.12 -234.015 157.748 -366.165 154.574" stroke="url(#paint19_linear_29_65)" stroke-miterlimit="10"/>
<path d="M1919.68 149.438C1823.31 150.964 1728.28 169.098 1631.4 160.885C1532.2 152.468 1450.65 128.666 1353.6 118.118C1257.73 107.685 1152.09 119.016 1061.29 130.578C972.376 141.903 887.75 156.858 799.314 168.624C710.878 180.39 659.223 157.844 587.058 144.117C492.193 126.077 388.629 151.278 301.32 165.407C209.407 180.28 103.557 199.206 -1.05491 195.538C-132.415 190.927 -233.043 152.732 -366.165 149.438" stroke="url(#paint20_linear_29_65)" stroke-miterlimit="10"/>
<path d="M1919.68 144.58C1822.4 146.215 1727.46 165.151 1629.45 156.98C1532.62 148.911 1454.07 125.382 1359.59 115.151C1264.45 104.882 1156.4 115.631 1065.18 126.118C974.7 136.528 888.376 150.431 800.084 162.781C758.43 168.605 727.904 168.845 687.631 161.332C654.898 155.225 627.213 146.356 594.528 140.206C550.922 131.99 516.189 132.219 470.519 138.326C415.641 145.675 362.177 154.125 308.331 162.335C214.88 176.543 106.729 194.172 1.64106 190.511C-130.623 185.902 -232.091 147.876 -366.165 144.58" stroke="url(#paint21_linear_29_65)" stroke-miterlimit="10"/>
<path d="M1919.68 139.721C1821.5 141.373 1726.84 161.428 1627.69 153.141C1532.77 145.206 1456.91 121.335 1364.33 111.257C1269.69 100.954 1159.65 111.368 1068.07 121.169C976.488 130.971 888.56 144.297 800.552 157.513C759.882 163.62 730.15 164.485 690.226 156.93C658.572 150.938 632.157 142.095 600.583 136.059C557.214 127.766 523.021 128.647 478.144 135.024C422.997 142.86 368.706 151.384 313.845 159.452C219.218 173.361 108.954 190.19 3.70744 186.478C-129.288 181.792 -231.439 143.124 -366.165 139.771" stroke="url(#paint22_linear_29_65)" stroke-miterlimit="10"/>
<path d="M1919.68 135.707C1820.58 137.31 1726.47 157.991 1626.21 149.708C1532.71 141.975 1459.22 118.001 1367.93 108.254C1273.42 98.1494 1162.2 108.056 1070.05 117.129C977.159 126.267 888.474 138.995 800.837 152.892C760.994 159.203 731.596 160.532 691.976 153.001C661.182 147.156 635.832 138.397 605.133 132.496C561.973 124.203 527.813 125.548 483.621 132.145C428.397 140.378 373.475 148.896 317.775 156.767C222.534 170.23 110.436 186.136 5.2742 182.464C-128.238 177.799 -230.875 139.039 -366.165 135.707" stroke="url(#paint23_linear_29_65)" stroke-miterlimit="10"/>
<path d="M1919.68 130.982C1819.67 132.424 1726.37 153.428 1624.99 145.193C1532.47 137.677 1460.56 113.799 1370.36 104.247C1276.15 94.2765 1163.46 103.888 1071.07 112.324C977.228 120.897 888.144 133.175 800.917 147.702C761.724 154.233 732.167 155.812 692.752 148.295C662.591 142.542 638.035 133.85 607.922 128.043C564.919 119.748 530.282 121.316 486.613 128.157C431.499 136.789 376.163 145.296 319.842 152.971C224.313 165.984 110.91 181.049 6.17354 177.463C-127.659 172.885 -230.554 134.242 -366.165 130.982" stroke="url(#paint24_linear_29_65)" stroke-miterlimit="10"/>
<path d="M1919.68 126.287C1819.16 127.602 1726.51 149.145 1624.52 140.712C1532.31 133.091 1460.83 108.886 1370.92 99.2495C1276.8 89.1655 1163.6 99.1169 1071.19 107.495C977.006 116.032 888.207 128.397 800.869 143.203C761.819 149.83 731.849 151.21 692.704 143.633C662.75 137.835 638.352 129.093 608.398 123.278C565.538 114.961 530.267 116.507 487.01 123.648C432.134 132.705 376.734 141.402 320.175 149.112C225.106 162.073 110.227 177.188 6.30046 173.411C-127.342 168.562 -230.903 130.015 -366.165 126.304" stroke="url(#paint25_linear_29_65)" stroke-miterlimit="10"/>
<path d="M1919.68 121.765C1818.88 123.004 1726.44 144.545 1624.14 136.07C1532.02 128.435 1460.13 104.596 1370.1 95.0849C1275.92 85.1348 1162.91 95.4524 1070.58 103.828C976.642 112.352 888.17 124.612 800.174 138.621C716.879 151.878 675.597 131.49 606.995 118.775C564.109 110.827 528.593 112.275 485.706 119.395C431.034 128.473 375.695 137.09 319.117 144.66C224.545 157.309 108.101 172.393 4.8568 168.323C-128.297 163.068 -233.193 126.339 -367.634 121.847" stroke="url(#paint26_linear_29_65)" stroke-miterlimit="10"/>
<path d="M1919.68 118.187C1818.58 119.378 1726.35 141 1623.74 132.484C1531.61 124.833 1459.44 101.331 1369.36 91.9412C1275.18 82.1033 1162.5 92.7775 1070.31 101.151C976.734 109.649 888.593 121.81 800.087 135.064C717.489 147.438 674.729 127.483 606.078 115.388C563.191 107.813 527.356 109.212 484.851 116.317C430.432 125.412 375.25 133.933 318.687 141.344C224.494 153.691 106.888 168.562 4.49925 164.234C-127.99 158.637 -234.175 123.63 -367.634 118.443" stroke="url(#paint27_linear_29_65)" stroke-miterlimit="10"/>
<path d="M1918.21 113.578C1816.82 114.738 1724.81 136.555 1621.88 127.993C1529.93 120.345 1457.37 97.0897 1367.28 87.7898C1273.17 78.1068 1160.93 89.0589 1068.97 97.4453C975.906 105.925 888.014 118.004 799.249 130.537C717.293 142.096 673.101 122.566 604.321 111.023C561.351 103.819 525.271 105.219 483.11 112.325C429.029 121.445 373.995 129.875 317.565 137.118C223.673 149.181 105.43 163.7 3.80757 159.143C-127.943 153.24 -235.28 119.847 -367.634 114.016" stroke="url(#paint28_linear_29_65)" stroke-miterlimit="10"/>
<path d="M1918.21 109.895C1816.39 111.049 1724.55 133.121 1621.1 124.52C1529.22 116.887 1456.21 93.8037 1366.05 84.6541C1271.97 75.1035 1160.29 86.3456 1068.37 94.7374C975.807 103.195 888.183 115.195 799.051 127.019C717.713 137.811 671.964 118.721 602.865 107.759C559.751 100.916 523.384 102.371 481.493 109.483C427.833 118.685 372.771 126.873 316.547 134.011C222.732 145.785 104.154 159.823 3.11691 155.039C-127.779 148.872 -236.436 117.04 -367.634 110.631" stroke="url(#paint29_linear_29_65)" stroke-miterlimit="10"/>
<path d="M1918.21 105.809C1815.94 106.955 1724.12 129.086 1620.17 120.548C1528.37 113.02 1454.88 90.3815 1364.6 81.4723C1270.55 72.1919 1159.36 83.5413 1067.61 91.8445C975.541 100.164 888.157 111.928 798.82 122.917C718.087 132.853 670.688 114.44 601.178 104.204C557.859 97.8222 521.223 99.3507 479.571 106.387C426.235 115.473 371.374 123.459 315.279 130.304C221.419 141.642 102.859 154.837 2.36302 149.956C-127.689 143.64 -237.582 113.73 -367.634 106.862" stroke="url(#paint30_linear_29_65)" stroke-miterlimit="10"/>
<path d="M1918.21 101.654C1815.41 102.802 1723.61 125.041 1619.06 116.6C1527.33 109.192 1453.31 86.9646 1363 78.3008C1268.99 69.2834 1158.38 80.7264 1066.71 88.9279C975.324 97.0859 887.969 108.621 798.535 118.792C718.371 127.912 669.225 110.193 599.237 100.686C555.678 94.7691 518.755 96.4061 477.276 103.406C424.304 112.371 369.688 120.148 313.774 126.689C219.752 137.566 101.554 149.836 1.48416 144.859C-127.667 138.442 -238.753 110.4 -367.634 103.139" stroke="url(#paint31_linear_29_65)" stroke-miterlimit="10"/>
<path d="M1918.21 97.8433C1814.84 99.0344 1722.96 121.798 1617.81 113.284C1526.14 105.905 1451.58 83.7263 1361.18 75.179C1267.24 66.3007 1157.23 77.9858 1065.76 86.2078C975.013 94.3692 887.754 105.801 798.289 115.319C718.681 123.783 667.694 106.495 597.182 97.5951C553.354 92.0807 516.146 93.8674 474.794 100.904C422.173 109.886 367.785 117.561 312.039 123.871C217.716 134.476 100.186 145.863 0.481789 140.729C-127.732 134.112 -239.96 107.527 -367.634 99.7844" stroke="url(#paint32_linear_29_65)" stroke-miterlimit="10"/>
<path d="M1918.21 94.2651C1814.22 95.4751 1722.35 118.192 1616.43 109.891C1524.82 102.708 1449.67 81.1569 1359.17 72.9705C1265.31 64.4843 1155.98 76.0717 1064.64 84.0947C974.524 92.0141 887.343 103.029 797.956 111.641C718.887 119.271 665.946 102.882 594.878 94.8428C550.748 89.8557 513.253 91.8124 471.996 98.6581C419.742 107.402 365.611 114.756 310.08 120.656C215.391 130.657 98.8112 140.751 -0.60849 135.617C-127.871 129.077 -241.165 104.604 -367.634 96.636" stroke="url(#paint33_linear_29_65)" stroke-miterlimit="10"/>
<path d="M1918.21 89.9831C1813.57 91.2417 1721.61 114.268 1615.02 106.049C1523.36 99.0066 1447.63 77.742 1357.02 69.8075C1263.25 61.5994 1154.69 73.2276 1063.35 81.1621C973.902 88.9434 886.786 99.6851 797.495 107.527C718.967 114.427 663.964 98.7385 592.309 91.4661C547.862 86.9571 510.098 89.1131 468.873 95.9532C417 104.577 363.14 111.703 307.848 117.256C212.795 126.783 97.3921 135.67 -1.80396 130.455C-128.065 123.85 -242.373 101.195 -367.634 92.9216" stroke="url(#paint34_linear_29_65)" stroke-miterlimit="10"/>
<path d="M1918.21 86.6956C1812.92 88.0019 1720.85 111.416 1613.32 103.275C1521.81 96.3413 1445.44 75.3413 1354.73 67.6524C1261.08 59.7099 1153.26 71.3949 1062.13 79.2272C973.33 86.8775 886.278 97.3389 797.177 104.433C719.141 110.65 661.964 95.6137 589.753 89.1318C544.989 85.1027 506.923 87.4783 465.683 94.3184C414.202 102.832 360.631 109.729 305.61 114.927C209.938 123.966 95.9634 131.517 -3.07395 126.276C-128.351 119.662 -243.564 98.7609 -367.634 90.1901" stroke="url(#paint35_linear_29_65)" stroke-miterlimit="10"/>
<path d="M1918.21 82.9553C1812.16 84.3272 1719.91 107.769 1611.62 99.8494C1520.12 93.165 1443.09 72.7566 1352.32 65.4492C1258.74 57.9232 1151.74 69.4445 1060.73 77.0799C972.6 84.4748 885.611 94.4549 796.749 100.691C719.173 106.157 659.741 92.05 586.991 86.4806C541.893 83.01 503.542 85.6171 462.238 92.3069C411.148 100.559 357.874 107.102 303.15 111.846C206.89 120.219 94.5028 126.27 -4.4075 121.067C-128.7 114.535 -244.738 95.7884 -367.634 87.0928" stroke="url(#paint36_linear_29_65)" stroke-miterlimit="10"/>
<path d="M1918.21 79.5383C1811.39 80.9964 1718.99 104.911 1609.79 97.0849C1518.38 90.5291 1440.72 70.3425 1349.8 63.2952C1256.35 56.049 1150.17 67.6086 1059.3 75.1531C971.806 82.4158 884.929 92.0755 796.352 97.5709C719.173 102.359 657.439 88.9661 584.134 84.1776C538.718 81.2118 500.097 84.1058 458.651 90.8052C407.959 98.937 354.994 105.23 300.594 109.583C203.763 117.404 93.0901 121.999 -5.77263 116.763C-129.097 110.241 -245.865 93.2961 -367.634 84.3323" stroke="url(#paint37_linear_29_65)" stroke-miterlimit="10"/>
<path d="M1918.21 76.7423C1810.65 78.2672 1718.01 102.243 1607.97 94.6567C1516.54 88.3543 1438.23 68.7505 1347.19 62.097C1253.87 55.279 1148.53 66.6442 1057.73 73.9614C970.854 80.9659 884.103 90.0986 795.812 94.761C718.967 98.8145 654.884 86.3797 581.054 82.5017C535.305 80.0937 496.414 83.2422 454.809 89.7969C404.512 97.664 351.857 103.591 297.8 107.47C200.318 114.562 91.5345 117.568 -7.29647 112.407C-129.526 106.011 -246.993 91.2121 -367.634 82.1616" stroke="url(#paint38_linear_29_65)" stroke-miterlimit="10"/>
<path d="M1918.21 73.1772C1809.86 74.8012 1716.98 99.227 1606.03 91.7945C1514.6 85.6479 1435.63 66.2879 1344.48 59.9306C1251.28 53.4459 1146.79 64.7858 1056.1 71.9911C969.808 78.8472 883.211 87.5822 795.297 91.4952C718.718 94.9039 652.298 83.2313 577.989 80.1996C531.952 78.3207 492.758 81.7903 450.991 88.3304C401.082 96.0537 348.743 101.7 295.054 105.152C196.949 111.598 90.0805 113.033 -8.75522 107.857C-130.101 101.505 -248.034 88.6187 -367.634 79.3405" stroke="url(#paint39_linear_29_65)" stroke-miterlimit="10"/>
<path d="M1918.21 70.3287C1809.08 72.0277 1715.93 96.5855 1604.11 89.3815C1512.69 83.4847 1433.04 64.6802 1341.78 58.7448C1248.75 52.677 1145.14 63.8362 1054.48 70.8086C968.76 77.428 882.361 85.5864 794.82 88.6919C718.389 91.4059 649.705 80.6935 574.831 78.5643C528.465 77.2459 489.114 81.0024 446.955 87.4232C397.435 94.8808 345.42 100.151 292.126 103.111C68.3116 115.958 -151.01 94.2853 -367.634 77.1853" stroke="url(#paint40_linear_29_65)" stroke-miterlimit="10"/>
<path d="M1918.21 67.4948C1808.27 69.2761 1714.85 93.8901 1602.1 86.957C1510.68 81.3337 1430.34 63.1157 1338.97 57.5637C1246.09 51.9186 1143.36 62.8691 1052.87 69.594C967.647 75.9461 881.5 83.526 794.352 85.8115C717.935 87.8339 647.09 78.1384 571.657 76.8779C525.019 76.1106 485.335 80.1663 442.935 86.4527C393.98 93.7586 341.993 98.4172 289.212 100.993C71.089 111.642 -156.416 91.8732 -367.634 74.998" stroke="url(#paint41_linear_29_65)" stroke-miterlimit="10"/>
<path d="M1918.21 64.7275C1807.46 66.6049 1713.75 91.4724 1600.08 84.7587C1508.65 79.3406 1427.64 61.582 1336.16 56.3944C1243.44 51.1409 1141.59 61.9608 1051.21 68.4713C966.441 74.5921 880.595 81.6462 793.844 83.1887C717.284 84.5501 644.439 75.7559 568.434 75.3881C521.527 75.1631 481.588 79.5437 438.856 85.7633C390.218 92.8393 338.58 97.1046 286.244 99.2236C186.54 103.258 85.4389 99.822 -13.4397 94.8869C-132.081 88.9637 -250.898 82.4641 -367.634 72.9288" stroke="url(#paint42_linear_29_65)" stroke-miterlimit="10"/>
<path d="M1918.21 61.8363C1807.6 63.7588 1714.03 88.4738 1600.47 82.3849C1509.4 77.4833 1428.24 60.551 1337.47 55.4152C1245.72 50.225 1145.93 60.5238 1056.34 66.7434C969.731 72.7342 881.998 79.4276 793.344 80.2663C714.642 81.0125 637.957 72.7669 559.431 73.7309C512.032 74.3136 472.523 79.6291 429.077 85.5328C383.948 91.6653 336.296 95.1781 288.103 96.8392C185.528 100.374 83.7946 95.1618 -17.5582 90.2438C-134.546 84.5689 -252.582 80.201 -367.634 70.7137" stroke="url(#paint43_linear_29_65)" stroke-miterlimit="10"/>
<path d="M1918.21 59.1083C1806.84 61.1386 1712.88 86.2495 1598.48 80.3504C1507.39 75.6531 1425.58 59.0424 1334.67 54.2463C1243.11 49.4393 1144.1 59.668 1054.64 65.7317C968.441 71.5814 881.039 77.8042 792.844 77.8042C713.681 77.8042 635.295 70.5991 556.116 72.4374C508.653 73.5349 468.81 79.198 425.03 85.0203C380.202 90.9797 332.865 94.146 285.085 95.3971C182.174 98.0915 82.2005 91.1608 -19.1385 86.3427C-135.367 80.8168 -253.39 78.4627 -367.634 68.7827" stroke="url(#paint44_linear_29_65)" stroke-miterlimit="10"/>
<path d="M1918.21 56.3834C1805.99 58.5126 1711.84 83.8918 1596.47 78.2086C1505.35 73.7192 1422.89 57.5333 1331.85 53.0989C1240.48 48.6371 1142.25 58.8207 1052.83 64.702C967.106 70.3522 880.035 76.0299 792.297 75.2267C712.559 74.4949 632.632 68.3551 552.783 71.0564C505.255 72.6684 465.092 78.6487 421.025 84.3594C376.576 90.1197 329.461 92.92 282.123 93.7508C178.939 95.5718 80.613 86.9727 -20.6979 82.2743C-136.2 76.9157 -254.053 76.6186 -367.634 66.7926" stroke="url(#paint45_linear_29_65)" stroke-miterlimit="10"/>
<path d="M1918.21 54.6397C1805.22 56.8375 1710.67 82.397 1594.49 76.9576C1503.35 72.6886 1420.27 56.9638 1329.08 52.931C1237.9 48.8982 1140.47 58.9308 1051.28 64.6009C965.77 70.0403 879.113 75.1775 791.852 73.5677C711.417 72.0842 630.125 67.0514 549.611 70.5952C501.988 72.6886 461.541 78.985 417.061 84.5563C372.582 90.1275 326.07 92.523 279.178 92.9406C175.995 93.8691 78.9716 83.6717 -22.2267 79.1114C-137.061 73.9358 -254.816 75.694 -367.634 65.7383" stroke="url(#paint46_linear_29_65)" stroke-miterlimit="10"/>
<path d="M1918.21 51.9537C1804.44 54.2479 1709.56 79.8126 1592.55 74.656C1501.36 70.6192 1417.67 55.4606 1326.37 51.7898C1235.44 48.1354 1138.6 58.0444 1049.58 63.4906C964.319 68.7018 878.137 73.274 791.305 70.8868C710.075 68.6527 627.576 64.736 546.347 69.0842C498.867 71.6297 457.943 78.2175 413.146 83.6309C369.174 88.9405 322.662 90.9835 276.277 90.9999C173.094 91.0436 77.308 79.3538 -23.7481 74.94C-138.043 69.9473 -255.514 73.7328 -367.634 63.6763" stroke="url(#paint47_linear_29_65)" stroke-miterlimit="10"/>
<path d="M1918.21 50C1803.68 52.3687 1708.51 78.1236 1590.66 73.168C1499.43 69.3476 1415.14 54.6118 1323.72 51.3371C1232.89 48.0625 1137.03 57.8864 1047.99 63.1367C962.904 68.136 877.152 72.1911 790.828 69.0311C708.727 66.0293 625.166 63.2022 543.192 68.3543C495.728 71.3288 454.455 78.2437 409.325 83.5268C365.56 88.6461 319.446 90.3216 273.49 89.9505C170.467 89.1264 75.6826 75.9515 -25.2293 71.6453C-138.872 66.7989 -256.039 72.6168 -367.634 62.3672" stroke="url(#paint48_linear_29_65)" stroke-miterlimit="10"/>
<path d="M1918.21 48C1802.97 50.4466 1707.47 76.3353 1588.85 71.6055C1497.58 67.96 1412.65 53.7216 1321.19 50.7627C1230.55 47.8311 1135.47 57.6231 1046.49 62.669C961.562 67.4696 876.243 71.0115 790.415 67.0991C707.396 63.3174 622.807 61.5628 540.265 67.4969C492.851 70.9025 451.23 78.1335 405.705 83.2992C362.212 88.2034 316.338 89.5548 270.781 88.8083C168.032 87.1354 74.0608 72.5536 -26.6722 68.3469C-139.771 63.6226 -256.583 71.4475 -367.634 61.0124" stroke="url(#paint49_linear_29_65)" stroke-miterlimit="10"/>
<path d="M1918.21 46C1802.33 48.517 1706.48 74.5292 1587.1 70.0009C1495.78 66.5326 1410.37 52.7572 1318.7 50.1315C1228.22 47.5439 1133.84 57.2964 1044.99 62.1564C960.177 66.8044 875.284 69.8052 789.963 65.1626C705.974 60.5962 620.621 59.8895 537.363 66.576C490.043 70.3814 448.025 77.9214 402.197 82.9553C358.925 87.7066 313.304 88.6905 268.223 87.5924C165.836 85.0972 72.5144 69.2072 -28.0303 65.0648C-140.734 60.4386 -257.073 70.2455 -367.634 59.5851" stroke="url(#paint50_linear_29_65)" stroke-miterlimit="10"/>
<path d="M1918.21 44C1801.6 46.6297 1705.5 73.3537 1585.44 68.9154C1494.04 65.5423 1408.12 51.9001 1316.35 49.5479C1226.01 47.2344 1132.36 57.1872 1043.59 61.9917C958.853 66.5798 874.372 69.1318 789.526 63.656C704.68 58.1803 618.485 58.5021 534.575 66.0804C487.366 70.3467 444.935 78.2857 398.853 83.4008C355.994 88.1664 310.309 88.7656 265.782 87.2843C163.808 83.9556 71.0095 66.43 -29.3295 62.258C-141.542 57.5922 -257.549 69.6255 -367.634 58.4521" stroke="url(#paint51_linear_29_65)" stroke-miterlimit="10"/>
<path d="M1918.21 43C1800.96 45.6751 1704.65 72.4763 1583.88 68.2259C1492.5 65.0257 1406.07 51.8435 1314.19 49.8039C1224.05 47.8031 1130.99 57.752 1042.32 62.4003C957.629 66.822 873.542 68.8837 789.185 62.7098C703.241 56.4255 616.535 57.7354 532.019 66.0261C484.904 70.6358 442.106 78.8436 395.753 83.8678C353.066 88.494 307.618 88.7593 263.55 86.9851C215.466 85.0451 168.589 80.6012 122.426 75.671C72.6121 70.3594 21.3535 62.2566 -30.5401 60.1121C-142.376 55.4858 -257.989 69.464 -367.634 58.0007" stroke="url(#paint52_linear_29_65)" stroke-miterlimit="10"/>
<path d="M1918.21 41C1800.39 43.7147 1703.91 70.6415 1582.43 66.5418C1490.98 63.4519 1404.09 50.6561 1312.09 48.9235C1222.1 47.2075 1129.71 57.2002 1041.12 61.7248C956.43 66.0397 872.676 67.6123 788.812 60.7537C701.932 53.6468 614.655 55.9035 529.521 64.8975C482.612 69.8635 439.45 78.3057 392.858 83.2497C350.347 87.7577 305.105 87.7246 261.466 85.6499C213.478 83.3766 166.871 78.554 120.978 73.3176C71.5296 67.6785 20.1921 59.1701 -31.6853 57.0126C-143.171 52.3832 -258.419 68.2965 -367.634 56.4608" stroke="url(#paint53_linear_29_65)" stroke-miterlimit="10"/>
<path d="M1918.21 40C1799.85 42.7559 1703.12 69.813 1581.12 65.8391C1489.61 62.8517 1402.3 50.4558 1310.23 48.9731C1220.37 47.5235 1128.6 57.621 1040.07 62.0249C955.37 66.2304 871.92 67.3603 788.55 59.8202C700.671 51.8999 612.999 55.0415 527.264 64.7147C480.531 69.9839 437.052 78.6759 390.223 83.5593C347.887 87.9687 302.916 87.6601 259.596 85.3176C211.72 82.727 165.352 77.546 119.698 72.0287C70.5839 66.0926 19.1838 57.2187 -32.6925 55.0305C-143.811 50.3455 -258.786 68.176 -367.634 55.9289" stroke="url(#paint54_linear_29_65)" stroke-miterlimit="10"/>
<path d="M1918.21 39C1799.36 41.7577 1702.47 69.0203 1579.95 65.1375C1488.32 62.2309 1400.57 50.1687 1308.41 48.9277C1218.64 47.7143 1127.44 57.9675 1039.01 62.286C954.275 66.4171 871.063 67.1285 788.201 58.9382C699.417 50.1632 611.523 54.1343 525.184 64.4536C478.61 70.0296 434.845 78.9536 387.826 83.7961C345.633 88.1367 300.821 87.5852 257.913 84.9929C210.101 82.1029 163.987 76.5875 118.539 70.8018C69.695 64.5749 18.2632 55.3918 -33.6766 53.1525C-144.573 48.3652 -259.262 68.0993 -367.634 55.3587" stroke="url(#paint55_linear_29_65)" stroke-miterlimit="10"/>
<path d="M1918.21 38C1798.9 40.764 1701.91 68.2601 1578.92 64.4292C1487.28 61.5768 1399.13 49.8078 1306.89 48.7574C1217.22 47.7569 1126.62 58.2158 1038.19 62.4834C953.409 66.5741 870.356 66.9058 787.971 58.061C698.267 48.4258 610.326 53.1577 523.352 64.1418C476.985 70.0015 432.966 79.1502 385.773 83.9706C343.707 88.2714 299.118 87.5085 256.512 84.6893C208.763 81.5218 162.856 75.6953 117.6 69.6532C68.9778 63.1578 17.5938 53.716 -34.4885 51.4109C-145.146 46.4633 -259.692 68.1054 -367.634 54.7719" stroke="url(#paint56_linear_29_65)" stroke-miterlimit="10"/>
<path d="M1918.21 37C1799.49 39.7722 1702.81 67.3496 1580.54 63.7735C1483.91 60.9514 1390.51 48.2051 1293.01 48.4656C1209.66 48.6874 1126.02 58.2514 1043.68 62.3652C956.196 66.7342 872.46 66.6122 787.74 57.2589C693.798 46.9132 605.777 52.3522 515.231 64.655C474.641 70.1661 435.972 77.6842 395.081 82.8459C351.808 88.3071 304.297 87.7748 259.771 84.7421C209.243 81.3046 160.875 74.7623 113.222 68.1092C65.1868 61.3784 14.12 51.9031 -37.6769 49.6854C-147.208 45.0226 -261.12 68.0426 -367.634 54.1597" stroke="url(#paint57_linear_29_65)" stroke-miterlimit="10"/>
<path d="M1918.21 37C1799.15 39.6986 1702.48 67.1061 1579.87 63.57C1483.22 60.7783 1389.39 48.4896 1291.92 48.9001C1208.63 49.2559 1125.42 58.961 1043.13 63.0281C955.583 67.3524 871.864 66.9254 787.558 57.089C692.664 46.0099 605.103 52.0092 513.812 64.7523C473.413 70.3904 434.633 77.8786 393.631 82.9802C350.454 88.3774 303.15 87.7424 258.877 84.5785C208.382 80.9713 160.205 74.233 112.694 67.4892C64.7234 60.6798 13.673 51.221 -38.2506 48.922C-147.574 44.116 -261.612 68.5457 -367.634 54.1769" stroke="url(#paint58_linear_29_65)" stroke-miterlimit="10"/>
<path d="M1918.21 36C1798.92 38.6784 1702.32 66.4948 1579.36 62.8721C1482.69 60.0225 1388.66 47.8898 1291.06 48.4365C1207.8 48.9004 1124.99 59.0064 1042.73 63.1427C955.139 67.5606 871.293 66.8592 787.526 56.339C691.711 44.3112 604.849 50.8719 512.781 64.2692C472.477 70.1285 433.601 77.7605 392.567 82.9681C349.422 88.4408 302.531 87.7505 258.29 84.4095C156.078 76.6781 64.5012 52.4734 -38.6951 47.5915C-147.828 42.4281 -262.168 68.7369 -367.634 53.5116" stroke="url(#paint59_linear_29_65)" stroke-miterlimit="10"/>
<path d="M1918.21 36C1798.72 38.6058 1702.16 66.4026 1579.05 62.7161C1482.36 59.8141 1388.01 47.9976 1290.46 48.6284C1207.18 49.177 1124.73 59.5672 1042.5 63.7474C954.874 68.2019 870.74 67.3023 787.447 56.2867C690.788 43.4992 604.892 50.3949 511.948 64.2412C471.976 70.1823 433.005 78.0545 391.874 83.0247C348.188 88.2966 302.708 87.8687 257.99 84.4016C155.6 76.4581 64.5292 52.3917 -39.0351 47.1911C-148.028 41.7053 -262.863 69.4363 -367.634 53.5108" stroke="url(#paint60_linear_29_65)" stroke-miterlimit="10"/>
<path d="M1918.21 36C1798.6 38.5428 1702.22 66.6575 1578.99 62.8129C1482.31 59.7957 1387.83 48.113 1290.1 48.7969C1206.81 49.3816 1124.68 60.27 1042.47 64.5724C954.848 69.1562 870.274 68.1026 787.478 56.4696C690.079 42.7735 605.394 49.9553 511.566 64.407C425.849 77.601 355.228 92.6209 258.161 84.8876C155.508 76.7075 64.8702 52.7132 -39.0535 47.0649C-147.914 41.1463 -263.346 70.5352 -367.634 53.684" stroke="url(#paint61_linear_29_65)" stroke-miterlimit="10"/>
</g>
<defs>
<linearGradient id="paint0_linear_29_65" x1="776.757" y1="247" x2="776.757" y2="292" gradientUnits="userSpaceOnUse">
<stop stop-color="#32344B"/>
<stop offset="0.307292" stop-color="#282941"/>
<stop offset="1" stop-color="#434566"/>
</linearGradient>
<linearGradient id="paint1_linear_29_65" x1="776.757" y1="234" x2="776.757" y2="289" gradientUnits="userSpaceOnUse">
<stop stop-color="#32344B"/>
<stop offset="0.307292" stop-color="#282941"/>
<stop offset="1" stop-color="#434566"/>
</linearGradient>
<linearGradient id="paint2_linear_29_65" x1="776.757" y1="222" x2="776.757" y2="287" gradientUnits="userSpaceOnUse">
<stop stop-color="#32344B"/>
<stop offset="0.307292" stop-color="#282941"/>
<stop offset="1" stop-color="#434566"/>
</linearGradient>
<linearGradient id="paint3_linear_29_65" x1="776.757" y1="210" x2="776.757" y2="284" gradientUnits="userSpaceOnUse">
<stop stop-color="#32344B"/>
<stop offset="0.307292" stop-color="#282941"/>
<stop offset="1" stop-color="#434566"/>
</linearGradient>
<linearGradient id="paint4_linear_29_65" x1="776.757" y1="200" x2="776.757" y2="281" gradientUnits="userSpaceOnUse">
<stop stop-color="#32344B"/>
<stop offset="0.307292" stop-color="#282941"/>
<stop offset="1" stop-color="#434566"/>
</linearGradient>
<linearGradient id="paint5_linear_29_65" x1="776.757" y1="190" x2="776.757" y2="277" gradientUnits="userSpaceOnUse">
<stop stop-color="#32344B"/>
<stop offset="0.307292" stop-color="#282941"/>
<stop offset="1" stop-color="#434566"/>
</linearGradient>
<linearGradient id="paint6_linear_29_65" x1="776.757" y1="182" x2="776.757" y2="271" gradientUnits="userSpaceOnUse">
<stop stop-color="#32344B"/>
<stop offset="0.307292" stop-color="#282941"/>
<stop offset="1" stop-color="#434566"/>
</linearGradient>
<linearGradient id="paint7_linear_29_65" x1="776.757" y1="174" x2="776.757" y2="265" gradientUnits="userSpaceOnUse">
<stop stop-color="#32344B"/>
<stop offset="0.307292" stop-color="#282941"/>
<stop offset="1" stop-color="#434566"/>
</linearGradient>
<linearGradient id="paint8_linear_29_65" x1="776.757" y1="167" x2="776.757" y2="259" gradientUnits="userSpaceOnUse">
<stop stop-color="#32344B"/>
<stop offset="0.307292" stop-color="#282941"/>
<stop offset="1" stop-color="#434566"/>
</linearGradient>
<linearGradient id="paint9_linear_29_65" x1="776.757" y1="160" x2="776.757" y2="253" gradientUnits="userSpaceOnUse">
<stop stop-color="#32344B"/>
<stop offset="0.307292" stop-color="#282941"/>
<stop offset="1" stop-color="#434566"/>
</linearGradient>
<linearGradient id="paint10_linear_29_65" x1="776.757" y1="154" x2="776.757" y2="247" gradientUnits="userSpaceOnUse">
<stop stop-color="#32344B"/>
<stop offset="0.307292" stop-color="#282941"/>
<stop offset="1" stop-color="#434566"/>
</linearGradient>
<linearGradient id="paint11_linear_29_65" x1="776.757" y1="148" x2="776.757" y2="241" gradientUnits="userSpaceOnUse">
<stop stop-color="#32344B"/>
<stop offset="0.307292" stop-color="#282941"/>
<stop offset="1" stop-color="#434566"/>
</linearGradient>
<linearGradient id="paint12_linear_29_65" x1="776.757" y1="143" x2="776.757" y2="235" gradientUnits="userSpaceOnUse">
<stop stop-color="#32344B"/>
<stop offset="0.307292" stop-color="#282941"/>
<stop offset="1" stop-color="#434566"/>
</linearGradient>
<linearGradient id="paint13_linear_29_65" x1="776.757" y1="139" x2="776.757" y2="230" gradientUnits="userSpaceOnUse">
<stop stop-color="#32344B"/>
<stop offset="0.307292" stop-color="#282941"/>
<stop offset="1" stop-color="#434566"/>
</linearGradient>
<linearGradient id="paint14_linear_29_65" x1="776.757" y1="135" x2="776.757" y2="225" gradientUnits="userSpaceOnUse">
<stop stop-color="#32344B"/>
<stop offset="0.307292" stop-color="#282941"/>
<stop offset="1" stop-color="#434566"/>
</linearGradient>
<linearGradient id="paint15_linear_29_65" x1="776.757" y1="131" x2="776.757" y2="220" gradientUnits="userSpaceOnUse">
<stop stop-color="#32344B"/>
<stop offset="0.307292" stop-color="#282941"/>
<stop offset="1" stop-color="#434566"/>
</linearGradient>
<linearGradient id="paint16_linear_29_65" x1="776.757" y1="127" x2="776.757" y2="215" gradientUnits="userSpaceOnUse">
<stop stop-color="#32344B"/>
<stop offset="0.307292" stop-color="#282941"/>
<stop offset="1" stop-color="#434566"/>
</linearGradient>
<linearGradient id="paint17_linear_29_65" x1="776.757" y1="124" x2="776.757" y2="210" gradientUnits="userSpaceOnUse">
<stop stop-color="#32344B"/>
<stop offset="0.307292" stop-color="#282941"/>
<stop offset="1" stop-color="#434566"/>
</linearGradient>
<linearGradient id="paint18_linear_29_65" x1="776.757" y1="120" x2="776.757" y2="205" gradientUnits="userSpaceOnUse">
<stop stop-color="#32344B"/>
<stop offset="0.307292" stop-color="#282941"/>
<stop offset="1" stop-color="#434566"/>
</linearGradient>
<linearGradient id="paint19_linear_29_65" x1="776.757" y1="118" x2="776.757" y2="200" gradientUnits="userSpaceOnUse">
<stop stop-color="#32344B"/>
<stop offset="0.307292" stop-color="#282941"/>
<stop offset="1" stop-color="#434566"/>
</linearGradient>
<linearGradient id="paint20_linear_29_65" x1="776.757" y1="114" x2="776.757" y2="196" gradientUnits="userSpaceOnUse">
<stop stop-color="#32344B"/>
<stop offset="0.307292" stop-color="#282941"/>
<stop offset="1" stop-color="#434566"/>
</linearGradient>
<linearGradient id="paint21_linear_29_65" x1="776.757" y1="111" x2="776.757" y2="191" gradientUnits="userSpaceOnUse">
<stop stop-color="#32344B"/>
<stop offset="0.307292" stop-color="#282941"/>
<stop offset="1" stop-color="#434566"/>
</linearGradient>
<linearGradient id="paint22_linear_29_65" x1="776.757" y1="107" x2="776.757" y2="187" gradientUnits="userSpaceOnUse">
<stop stop-color="#32344B"/>
<stop offset="0.307292" stop-color="#282941"/>
<stop offset="1" stop-color="#434566"/>
</linearGradient>
<linearGradient id="paint23_linear_29_65" x1="776.757" y1="104" x2="776.757" y2="183" gradientUnits="userSpaceOnUse">
<stop stop-color="#32344B"/>
<stop offset="0.307292" stop-color="#282941"/>
<stop offset="1" stop-color="#434566"/>
</linearGradient>
<linearGradient id="paint24_linear_29_65" x1="776.757" y1="100" x2="776.757" y2="178" gradientUnits="userSpaceOnUse">
<stop stop-color="#32344B"/>
<stop offset="0.307292" stop-color="#282941"/>
<stop offset="1" stop-color="#434566"/>
</linearGradient>
<linearGradient id="paint25_linear_29_65" x1="776.757" y1="95" x2="776.757" y2="174" gradientUnits="userSpaceOnUse">
<stop stop-color="#32344B"/>
<stop offset="0.307292" stop-color="#282941"/>
<stop offset="1" stop-color="#434566"/>
</linearGradient>
<linearGradient id="paint26_linear_29_65" x1="776.022" y1="91" x2="776.022" y2="169" gradientUnits="userSpaceOnUse">
<stop stop-color="#32344B"/>
<stop offset="0.307292" stop-color="#282941"/>
<stop offset="1" stop-color="#434566"/>
</linearGradient>
<linearGradient id="paint27_linear_29_65" x1="776.022" y1="88" x2="776.022" y2="165" gradientUnits="userSpaceOnUse">
<stop stop-color="#32344B"/>
<stop offset="0.307292" stop-color="#282941"/>
<stop offset="1" stop-color="#434566"/>
</linearGradient>
<linearGradient id="paint28_linear_29_65" x1="775.287" y1="84" x2="775.287" y2="160" gradientUnits="userSpaceOnUse">
<stop stop-color="#32344B"/>
<stop offset="0.307292" stop-color="#282941"/>
<stop offset="1" stop-color="#434566"/>
</linearGradient>
<linearGradient id="paint29_linear_29_65" x1="775.287" y1="81" x2="775.287" y2="156" gradientUnits="userSpaceOnUse">
<stop stop-color="#32344B"/>
<stop offset="0.307292" stop-color="#282941"/>
<stop offset="1" stop-color="#434566"/>
</linearGradient>
<linearGradient id="paint30_linear_29_65" x1="775.287" y1="78" x2="775.287" y2="151" gradientUnits="userSpaceOnUse">
<stop stop-color="#32344B"/>
<stop offset="0.307292" stop-color="#282941"/>
<stop offset="1" stop-color="#434566"/>
</linearGradient>
<linearGradient id="paint31_linear_29_65" x1="775.287" y1="75" x2="775.287" y2="146" gradientUnits="userSpaceOnUse">
<stop stop-color="#32344B"/>
<stop offset="0.307292" stop-color="#282941"/>
<stop offset="1" stop-color="#434566"/>
</linearGradient>
<linearGradient id="paint32_linear_29_65" x1="775.287" y1="72" x2="775.287" y2="142" gradientUnits="userSpaceOnUse">
<stop stop-color="#32344B"/>
<stop offset="0.307292" stop-color="#282941"/>
<stop offset="1" stop-color="#434566"/>
</linearGradient>
<linearGradient id="paint33_linear_29_65" x1="775.287" y1="70" x2="775.287" y2="137" gradientUnits="userSpaceOnUse">
<stop stop-color="#32344B"/>
<stop offset="0.307292" stop-color="#282941"/>
<stop offset="1" stop-color="#434566"/>
</linearGradient>
<linearGradient id="paint34_linear_29_65" x1="775.287" y1="67" x2="775.287" y2="132" gradientUnits="userSpaceOnUse">
<stop stop-color="#32344B"/>
<stop offset="0.307292" stop-color="#282941"/>
<stop offset="1" stop-color="#434566"/>
</linearGradient>
<linearGradient id="paint35_linear_29_65" x1="775.287" y1="65" x2="775.287" y2="128" gradientUnits="userSpaceOnUse">
<stop stop-color="#32344B"/>
<stop offset="0.307292" stop-color="#282941"/>
<stop offset="1" stop-color="#434566"/>
</linearGradient>
<linearGradient id="paint36_linear_29_65" x1="775.287" y1="63" x2="775.287" y2="123" gradientUnits="userSpaceOnUse">
<stop stop-color="#32344B"/>
<stop offset="0.307292" stop-color="#282941"/>
<stop offset="1" stop-color="#434566"/>
</linearGradient>
<linearGradient id="paint37_linear_29_65" x1="775.287" y1="61" x2="775.287" y2="119" gradientUnits="userSpaceOnUse">
<stop stop-color="#32344B"/>
<stop offset="0.307292" stop-color="#282941"/>
<stop offset="1" stop-color="#434566"/>
</linearGradient>
<linearGradient id="paint38_linear_29_65" x1="775.287" y1="60" x2="775.287" y2="115" gradientUnits="userSpaceOnUse">
<stop stop-color="#32344B"/>
<stop offset="0.307292" stop-color="#282941"/>
<stop offset="1" stop-color="#434566"/>
</linearGradient>
<linearGradient id="paint39_linear_29_65" x1="775.287" y1="58" x2="775.287" y2="111" gradientUnits="userSpaceOnUse">
<stop stop-color="#32344B"/>
<stop offset="0.307292" stop-color="#282941"/>
<stop offset="1" stop-color="#434566"/>
</linearGradient>
<linearGradient id="paint40_linear_29_65" x1="775.287" y1="57" x2="775.287" y2="107" gradientUnits="userSpaceOnUse">
<stop stop-color="#32344B"/>
<stop offset="0.307292" stop-color="#282941"/>
<stop offset="1" stop-color="#434566"/>
</linearGradient>
<linearGradient id="paint41_linear_29_65" x1="775.287" y1="56" x2="775.287" y2="104" gradientUnits="userSpaceOnUse">
<stop stop-color="#32344B"/>
<stop offset="0.307292" stop-color="#282941"/>
<stop offset="1" stop-color="#434566"/>
</linearGradient>
<linearGradient id="paint42_linear_29_65" x1="775.287" y1="55" x2="775.287" y2="101" gradientUnits="userSpaceOnUse">
<stop stop-color="#32344B"/>
<stop offset="0.307292" stop-color="#282941"/>
<stop offset="1" stop-color="#434566"/>
</linearGradient>
<linearGradient id="paint43_linear_29_65" x1="775.287" y1="54" x2="775.287" y2="98" gradientUnits="userSpaceOnUse">
<stop stop-color="#32344B"/>
<stop offset="0.307292" stop-color="#282941"/>
<stop offset="1" stop-color="#434566"/>
</linearGradient>
<linearGradient id="paint44_linear_29_65" x1="775.287" y1="53" x2="775.287" y2="96" gradientUnits="userSpaceOnUse">
<stop stop-color="#32344B"/>
<stop offset="0.307292" stop-color="#282941"/>
<stop offset="1" stop-color="#434566"/>
</linearGradient>
<linearGradient id="paint45_linear_29_65" x1="775.287" y1="52" x2="775.287" y2="94" gradientUnits="userSpaceOnUse">
<stop stop-color="#32344B"/>
<stop offset="0.307292" stop-color="#282941"/>
<stop offset="1" stop-color="#434566"/>
</linearGradient>
<linearGradient id="paint46_linear_29_65" x1="775.287" y1="52" x2="775.287" y2="93" gradientUnits="userSpaceOnUse">
<stop stop-color="#32344B"/>
<stop offset="0.307292" stop-color="#282941"/>
<stop offset="1" stop-color="#434566"/>
</linearGradient>
<linearGradient id="paint47_linear_29_65" x1="775.287" y1="51" x2="775.287" y2="91" gradientUnits="userSpaceOnUse">
<stop stop-color="#32344B"/>
<stop offset="0.307292" stop-color="#282941"/>
<stop offset="1" stop-color="#434566"/>
</linearGradient>
<linearGradient id="paint48_linear_29_65" x1="775.287" y1="50" x2="775.287" y2="90" gradientUnits="userSpaceOnUse">
<stop stop-color="#32344B"/>
<stop offset="0.307292" stop-color="#282941"/>
<stop offset="1" stop-color="#434566"/>
</linearGradient>
<linearGradient id="paint49_linear_29_65" x1="775.287" y1="48" x2="775.287" y2="89" gradientUnits="userSpaceOnUse">
<stop stop-color="#32344B"/>
<stop offset="0.307292" stop-color="#282941"/>
<stop offset="1" stop-color="#434566"/>
</linearGradient>
<linearGradient id="paint50_linear_29_65" x1="775.287" y1="46" x2="775.287" y2="88" gradientUnits="userSpaceOnUse">
<stop stop-color="#32344B"/>
<stop offset="0.307292" stop-color="#282941"/>
<stop offset="1" stop-color="#434566"/>
</linearGradient>
<linearGradient id="paint51_linear_29_65" x1="775.287" y1="44" x2="775.287" y2="88" gradientUnits="userSpaceOnUse">
<stop stop-color="#32344B"/>
<stop offset="0.307292" stop-color="#282941"/>
<stop offset="1" stop-color="#434566"/>
</linearGradient>
<linearGradient id="paint52_linear_29_65" x1="775.287" y1="43" x2="775.287" y2="88" gradientUnits="userSpaceOnUse">
<stop stop-color="#32344B"/>
<stop offset="0.307292" stop-color="#282941"/>
<stop offset="1" stop-color="#434566"/>
</linearGradient>
<linearGradient id="paint53_linear_29_65" x1="775.287" y1="41" x2="775.287" y2="87" gradientUnits="userSpaceOnUse">
<stop stop-color="#32344B"/>
<stop offset="0.307292" stop-color="#282941"/>
<stop offset="1" stop-color="#434566"/>
</linearGradient>
<linearGradient id="paint54_linear_29_65" x1="775.287" y1="40" x2="775.287" y2="87" gradientUnits="userSpaceOnUse">
<stop stop-color="#32344B"/>
<stop offset="0.307292" stop-color="#282941"/>
<stop offset="1" stop-color="#434566"/>
</linearGradient>
<linearGradient id="paint55_linear_29_65" x1="775.287" y1="39" x2="775.287" y2="87" gradientUnits="userSpaceOnUse">
<stop stop-color="#32344B"/>
<stop offset="0.307292" stop-color="#282941"/>
<stop offset="1" stop-color="#434566"/>
</linearGradient>
<linearGradient id="paint56_linear_29_65" x1="775.287" y1="38" x2="775.287" y2="87" gradientUnits="userSpaceOnUse">
<stop stop-color="#32344B"/>
<stop offset="0.307292" stop-color="#282941"/>
<stop offset="1" stop-color="#434566"/>
</linearGradient>
<linearGradient id="paint57_linear_29_65" x1="775.287" y1="37" x2="775.287" y2="87" gradientUnits="userSpaceOnUse">
<stop stop-color="#32344B"/>
<stop offset="0.307292" stop-color="#282941"/>
<stop offset="1" stop-color="#434566"/>
</linearGradient>
<linearGradient id="paint58_linear_29_65" x1="775.287" y1="37" x2="775.287" y2="87" gradientUnits="userSpaceOnUse">
<stop stop-color="#32344B"/>
<stop offset="0.307292" stop-color="#282941"/>
<stop offset="1" stop-color="#434566"/>
</linearGradient>
<linearGradient id="paint59_linear_29_65" x1="775.287" y1="36" x2="775.287" y2="87" gradientUnits="userSpaceOnUse">
<stop stop-color="#32344B"/>
<stop offset="0.307292" stop-color="#282941"/>
<stop offset="1" stop-color="#434566"/>
</linearGradient>
<linearGradient id="paint60_linear_29_65" x1="775.287" y1="36" x2="775.287" y2="87" gradientUnits="userSpaceOnUse">
<stop stop-color="#32344B"/>
<stop offset="0.307292" stop-color="#282941"/>
<stop offset="1" stop-color="#434566"/>
</linearGradient>
<linearGradient id="paint61_linear_29_65" x1="775.287" y1="36" x2="775.287" y2="87" gradientUnits="userSpaceOnUse">
<stop stop-color="#32344B"/>
<stop offset="0.307292" stop-color="#282941"/>
<stop offset="1" stop-color="#434566"/>
</linearGradient>
</defs>
</svg>
