<svg width="93" height="93" viewBox="0 0 93 93" fill="none" xmlns="http://www.w3.org/2000/svg">
    <circle cx="46.5" cy="46.5" r="46.5" fill="#282A47"/>
    <path d="M55.75 39C58.8566 39 61.375 36.4816 61.375 33.375C61.375 30.2684 58.8566 27.75 55.75 27.75C52.6434 27.75 50.125 30.2684 50.125 33.375C50.125 36.4816 52.6434 39 55.75 39Z" stroke="#0084F9" stroke-width="4" stroke-linecap="round" stroke-linejoin="round"/>
    <path d="M33.25 52.125C36.3566 52.125 38.875 49.6066 38.875 46.5C38.875 43.3934 36.3566 40.875 33.25 40.875C30.1434 40.875 27.625 43.3934 27.625 46.5C27.625 49.6066 30.1434 52.125 33.25 52.125Z" stroke="#0084F9" stroke-width="4" stroke-linecap="round" stroke-linejoin="round"/>
    <path d="M55.75 65.25C58.8566 65.25 61.375 62.7316 61.375 59.625C61.375 56.5184 58.8566 54 55.75 54C52.6434 54 50.125 56.5184 50.125 59.625C50.125 62.7316 52.6434 65.25 55.75 65.25Z" stroke="#0084F9" stroke-width="4" stroke-linecap="round" stroke-linejoin="round"/>
    <path d="M38.1062 49.3313L50.9125 56.7938" stroke="#0084F9" stroke-width="4" stroke-linecap="round" stroke-linejoin="round"/>
    <path d="M50.8937 36.2063L38.1062 43.6688" stroke="#0084F9" stroke-width="4" stroke-linecap="round" stroke-linejoin="round"/>
</svg>
