<svg width="93" height="93" viewBox="0 0 93 93" fill="none" xmlns="http://www.w3.org/2000/svg">
    <circle cx="46.5" cy="46.5" r="46.5" fill="#282A47"/>
    <g clip-path="url(#clip0_0_1)">
        <path d="M57.6375 58.6375C54.4324 61.0807 50.5296 62.4342 46.5 62.5C33.375 62.5 25.875 47.5 25.875 47.5C28.2073 43.1536 31.4421 39.3562 35.3625 36.3625M42.5625 32.95C43.8531 32.6479 45.1745 32.4969 46.5 32.5C59.625 32.5 67.125 47.5 67.125 47.5C65.9868 49.6293 64.6295 51.6339 63.075 53.4813M50.475 51.475C49.96 52.0277 49.339 52.471 48.649 52.7784C47.959 53.0858 47.2142 53.2512 46.4589 53.2645C45.7036 53.2778 44.9534 53.1389 44.253 52.856C43.5526 52.5731 42.9164 52.152 42.3822 51.6178C41.8481 51.0837 41.427 50.4474 41.1441 49.747C40.8612 49.0466 40.7222 48.2964 40.7356 47.5411C40.7489 46.7859 40.9142 46.041 41.2216 45.351C41.5291 44.661 41.9723 44.04 42.525 43.525" stroke="#0084F9" stroke-width="4" stroke-linecap="round" stroke-linejoin="round"/>
        <path d="M25.875 26.875L67.125 68.125" stroke="#0084F9" stroke-width="4" stroke-linecap="round" stroke-linejoin="round"/>
    </g>
    <defs>
        <clipPath id="clip0_0_1">
            <rect width="45" height="45" fill="white" transform="translate(24 25)"/>
        </clipPath>
    </defs>
</svg>
