<svg width="93" height="93" viewBox="0 0 93 93" fill="none" xmlns="http://www.w3.org/2000/svg">
    <circle cx="46.5" cy="46.5" r="46.5" fill="#282A47"/>
    <path d="M59.625 43.625H33.375C31.3039 43.625 29.625 45.3039 29.625 47.375V60.5C29.625 62.5711 31.3039 64.25 33.375 64.25H59.625C61.6961 64.25 63.375 62.5711 63.375 60.5V47.375C63.375 45.3039 61.6961 43.625 59.625 43.625Z" stroke="#0084F9" stroke-width="4" stroke-linecap="round" stroke-linejoin="round"/>
    <path d="M37.125 43.625V36.125C37.125 33.6386 38.1127 31.254 39.8709 29.4959C41.629 27.7377 44.0136 26.75 46.5 26.75C48.9864 26.75 51.371 27.7377 53.1291 29.4959C54.8873 31.254 55.875 33.6386 55.875 36.125V43.625" stroke="#0084F9" stroke-width="4" stroke-linecap="round" stroke-linejoin="round"/>
</svg>