<svg width="1920" height="961" viewBox="0 0 1920 961" fill="none" xmlns="http://www.w3.org/2000/svg">
<g filter="url(#filter0_f_186_2)">
<ellipse rx="276.146" ry="97.6341" transform="matrix(0.998067 -0.0621431 0.466888 0.884316 311.196 480.5)" fill="#838383"/>
</g>
<g filter="url(#filter1_f_186_2)">
<ellipse rx="267.375" ry="48.5845" transform="matrix(0.999999 0.0015841 -0.0134312 0.99991 -135.973 480.341)" fill="#086BC1"/>
</g>
<g filter="url(#filter2_f_186_2)">
<path d="M-178.374 492.05C-406.207 501.994 -514.426 432.985 -591.807 439.959C-689.079 448.726 -634.379 516.369 -540.266 537.58C-429.333 562.583 -23.9753 485.311 -178.374 492.05Z" fill="#00EAFF"/>
</g>
<g filter="url(#filter3_f_186_2)">
<path d="M-299.139 502.604C-368.458 506.92 -394.376 521.575 -385.387 538.602C-366.629 574.13 251.93 548.664 328.948 513.266C385.549 487.252 360.629 457.134 283.1 450.716C195.485 443.464 147.198 449.133 72.6345 463.821C10.4206 476.076 -7.20094 485.069 -76.6611 496.462C-141.675 507.126 -237.567 498.77 -299.139 502.604Z" fill="#3EFFAE"/>
</g>
<g opacity="0.3">
<path d="M-161.984 476.818C-105.347 476.768 -46.7112 478.637 9.58791 475.02C79.1108 470.557 146.48 458.233 215.757 452.67C272.11 448.147 321.027 452.984 373.767 465.088C417.28 475.075 460.018 485.898 507.373 486.239C557.421 486.602 602.541 472.371 648.828 462.79C702.28 451.725 747.92 454.078 799.574 467.561C848.764 480.402 894.632 496.886 950.155 495.963C1018.81 494.82 1083.23 477.345 1152.16 476.818" stroke="url(#paint0_linear_186_2)" stroke-miterlimit="10"/>
<path d="M-161.984 468.875C-106.799 468.809 -49.0773 470.8 5.69669 466.583C78.1932 461.002 147.998 446.739 220.156 439.931C277.65 434.504 323.791 440.718 375.416 456.014C416.246 468.111 457.258 482.083 503.955 482.82C556.448 483.639 605.189 465.147 652.544 453.782C677.348 447.86 703.494 442.312 730.534 443.588C757 444.842 782.059 451.555 805.203 458.984C851.855 473.923 897.302 494.487 952.815 492.915C1021.17 490.974 1083.43 470.239 1152.16 468.892" stroke="url(#paint1_linear_186_2)" stroke-miterlimit="10"/>
<path d="M-161.984 461.934C-108.139 461.851 -51.3557 463.907 1.92308 459.163C77.1869 452.48 149.174 436.248 224.009 428.202C282.819 421.873 326.296 429.404 376.526 447.996C414.61 462.094 453.907 479.323 500.186 480.493C554.944 481.872 607.876 458.853 656.135 445.824C681.415 438.997 709.295 431.798 737.532 433.383C763.998 434.868 788.793 442.981 810.924 451.393C855.05 468.174 900.033 493.083 955.684 490.861C1023.75 488.134 1083.62 464.062 1152.16 461.934" stroke="url(#paint2_linear_186_2)" stroke-miterlimit="10"/>
<path d="M-161.984 454.856C-109.427 454.757 -53.4844 456.799 -1.56647 451.74C76.1507 444.16 150.071 426.336 227.223 417.275C256.599 413.829 284.443 411.836 313.217 417.88C336.662 422.807 357.287 431.455 377.181 440.197C412.773 455.825 450.345 475.868 496.513 477.436C553.277 479.369 610.46 452.357 659.504 438.094C685.221 430.613 714.816 421.948 744.129 423.781C770.713 425.433 795.18 434.719 816.361 443.89C858.14 461.968 902.584 490.582 958.536 487.813C1026.35 484.45 1083.74 457.575 1152.16 454.828" stroke="url(#paint3_linear_186_2)" stroke-miterlimit="10"/>
<path d="M-161.984 448.342C-110.531 448.238 -55.3461 450.263 -4.62369 444.989C75.0647 436.703 150.391 417.409 229.486 407.526C258.963 403.844 286.724 401.561 315.353 408.399C338.578 413.979 358.373 423.555 377.3 433.125C410.802 450.043 446.804 472.531 493.2 474.424C522.851 475.637 552.665 466.335 578.273 458.461C606.682 449.725 633.996 439.77 662.397 431.023C688.497 422.99 719.525 413.134 749.824 415.192C776.6 417.008 800.683 427.21 821.107 437.032C860.97 456.238 904.574 487.989 961.064 484.773C1028.76 480.932 1083.74 451.475 1152.16 448.32" stroke="url(#paint4_linear_186_2)" stroke-miterlimit="10"/>
<path d="M-161.984 441.337C-111.453 441.232 -56.8519 443.277 -7.10596 437.866C73.9878 429.05 150.19 408.289 230.608 397.715C259.949 393.846 287.92 391.375 316.256 398.754C339.454 404.796 358.656 415.27 376.898 425.573C409.004 443.697 443.646 468.227 490.609 470.344C521.071 471.704 551.753 461.556 577.762 453.165C607.12 443.686 635.256 432.897 664.614 423.406C691.08 414.844 723.021 404.138 754.131 406.321C781.19 408.223 804.863 419.139 824.73 429.602C863.361 449.937 905.632 484.212 963.026 480.758C1030.72 476.684 1083.61 444.631 1152.16 441.359" stroke="url(#paint5_linear_186_2)" stroke-miterlimit="10"/>
<path d="M-161.984 434.274C-112.166 434.187 -57.9042 436.249 -8.88979 430.937C72.8861 422.074 149.296 400.447 230.333 389.697C259.271 385.867 287.761 383.373 315.695 390.725C339.085 396.88 358.02 407.806 375.925 418.436C407.519 437.223 441.138 462.477 489.085 464.512C520.222 465.836 550.985 455.687 577.358 447.005C607.336 437.157 635.991 425.931 665.96 416.072C692.762 407.253 724.839 396.486 756.588 398.631C783.965 400.48 807.236 411.482 826.856 422.282C865.185 443.372 905.438 478.156 964.172 474.77C1032.04 470.858 1083.33 437.179 1152.16 434.285" stroke="url(#paint6_linear_186_2)" stroke-miterlimit="10"/>
<path d="M-161.984 427.703C-112.347 427.515 -58.2573 429.853 -9.45134 424.396C71.7702 415.295 147.206 392.855 227.606 381.77C256.462 377.795 284.936 375.414 312.852 382.734C336.58 388.969 355.89 400.109 374.06 410.951C406.239 430.156 440.215 455.925 488.792 458.329C520.149 459.878 550.731 449.779 577.224 440.894C607.248 430.817 635.849 419.286 665.864 409.204C692.795 400.153 724.709 389.454 756.696 391.769C784.256 393.764 807.391 404.871 827.048 415.874C865.533 437.421 905.021 472.005 964.221 468.791C1032.28 465.109 1083.04 430.25 1152.16 427.703" stroke="url(#paint7_linear_186_2)" stroke-miterlimit="10"/>
<path d="M-161.984 421.75C-112.136 421.41 -58.2095 424.348 -9.22913 418.532C70.5521 409.059 144.292 386.335 223.224 374.901C252.428 370.667 280.154 368.465 308.472 375.808C332.629 382.063 352.625 393.046 371.461 403.754C404.708 422.678 440.118 448.61 488.696 451.877C519.862 453.975 550.554 443.887 576.819 435.04C606.479 425.051 634.652 413.551 664.303 403.551C691.18 394.484 723.094 383.908 755.036 386.648C782.515 389.004 805.987 400.229 825.919 411.069C864.605 432.102 905.235 465.908 963.724 462.8C1031.95 459.17 1082.88 424.243 1152.16 421.75" stroke="url(#paint8_linear_186_2)" stroke-miterlimit="10"/>
<path d="M-161.984 415.423C-111.854 415.015 -58.0733 418.78 -8.79214 412.61C69.3641 402.823 141.178 379.748 218.449 368.023C247.899 363.542 274.976 361.544 303.614 368.81C328.145 375.036 348.943 385.759 368.482 396.41C402.842 415.125 439.885 441.024 488.418 445.092C519.301 447.685 549.755 437.782 575.783 428.953C604.941 419.045 632.52 407.59 661.66 397.687C688.454 388.582 720.067 378.283 751.862 381.421C779.369 384.14 803.261 395.441 823.64 406.191C862.836 426.833 904.798 459.872 962.841 456.8C1031.37 453.178 1082.58 417.944 1152.16 415.456" stroke="url(#paint9_linear_186_2)" stroke-miterlimit="10"/>
<path d="M-161.984 409.273C-111.509 408.883 -57.7575 413.631 -8.13127 407.165C68.2336 397.224 137.955 373.978 213.407 362.084C242.975 357.423 269.54 355.672 298.414 362.709C323.383 368.791 344.956 379.176 365.252 389.605C401.043 407.933 439.381 433.386 488.049 438.189C518.566 441.197 548.48 431.75 574.251 423.006C602.77 413.324 629.645 402 658.145 392.306C684.838 383.222 715.839 373.462 747.441 376.937C775.074 379.983 799.458 391.208 820.448 401.78C860.428 421.908 903.885 453.843 961.615 450.797C1030.56 447.158 1082.16 411.787 1152.16 409.289" stroke="url(#paint10_linear_186_2)" stroke-miterlimit="10"/>
<path d="M-161.984 402.847C-111.097 402.539 -57.3629 408.441 -7.28848 401.681C67.1615 391.632 134.667 368.128 208.177 356.143C237.727 351.314 263.928 349.812 292.948 356.556C318.364 362.463 340.696 372.507 361.822 382.638C399.239 400.586 438.745 425.481 487.597 430.987C546.551 437.637 606.126 403.028 653.9 386.714C680.494 377.628 710.655 368.524 741.985 372.336C769.837 375.73 794.733 386.868 816.444 397.303C857.438 416.999 902.52 447.857 960.105 444.787C1029.56 441.091 1081.65 405.388 1152.16 402.847" stroke="url(#paint11_linear_186_2)" stroke-miterlimit="10"/>
<path d="M-161.984 396.642C-110.65 396.472 -56.9066 403.608 -6.31199 396.642C66.1394 386.63 131.317 363.118 202.783 351.145C232.233 346.216 258.178 344.989 287.281 351.315C313.162 356.951 336.269 366.508 358.227 376.279C397.268 393.64 437.951 417.602 487.049 423.763C545.109 431.037 602.119 397.573 649.009 381.591C674.936 372.768 705.161 363.873 735.633 368.419C763.924 372.636 788.847 382.862 811.789 393.268C853.961 412.382 900.777 441.864 958.362 438.775C1028.41 435.024 1081.06 399.205 1152.16 396.603" stroke="url(#paint12_linear_186_2)" stroke-miterlimit="10"/>
<path d="M-161.984 390.946C-110.166 390.946 -56.3689 399.494 -5.20884 392.234C65.1796 382.244 127.966 358.515 197.323 346.549C317.786 325.749 380.627 402.538 486.443 417.234C543.48 425.165 597.606 392.746 643.646 377.009C669.454 368.203 698.511 360.183 728.6 365.01C757.246 369.606 782.753 379.657 806.617 389.917C850.103 408.631 898.735 436.911 956.438 433.757C1027.14 429.904 1080.41 393.626 1152.16 390.946" stroke="url(#paint13_linear_186_2)" stroke-miterlimit="10"/>
<path d="M-161.984 385.475C-109.665 385.706 -55.7765 395.653 -4.00531 388.181C64.2837 378.328 124.67 354.555 191.864 342.698C309.834 321.891 381.682 394.965 485.79 410.706C541.841 419.189 592.718 388.22 637.919 372.793C663.617 364.023 691.405 357.064 721.065 362.109C750.094 367.06 776.249 376.853 801.071 386.894C845.952 405.05 896.437 431.959 954.386 428.735C1025.78 424.768 1079.71 388.242 1152.16 385.475" stroke="url(#paint14_linear_186_2)" stroke-miterlimit="10"/>
<path d="M-161.984 379.897C-109.142 380.365 -55.1423 391.787 -2.72104 384.114C63.4809 374.423 121.396 350.577 186.512 338.857C301.987 318.07 382.727 387.284 485.151 404.107C540.201 413.148 587.621 383.645 632.029 368.492C657.637 359.755 684.049 353.901 713.253 359.121C742.685 364.407 769.516 374.004 795.325 383.816C841.65 401.456 893.999 427.011 952.242 423.709C1024.34 419.614 1078.99 382.741 1152.16 379.875" stroke="url(#paint15_linear_186_2)" stroke-miterlimit="10"/>
<path d="M-161.984 374.221C-108.633 374.934 -54.4791 387.854 -1.36569 379.998C62.7902 370.501 118.313 346.575 181.328 335.021C294.345 314.296 383.716 379.539 484.458 397.423C538.511 407.02 582.371 379.009 626.02 364.105C651.518 355.398 676.642 350.683 705.362 356.106C735.204 361.744 762.737 371.126 789.513 380.722C837.288 397.86 891.478 422.073 950.085 418.678C1022.94 414.455 1078.26 377.218 1152.16 374.221" stroke="url(#paint16_linear_186_2)" stroke-miterlimit="10"/>
<path d="M-161.984 369.043C-108.142 369.987 -53.8068 384.227 -0.0834055 376.3C62.0995 367.123 115.275 343.388 176.281 332.149C287.059 311.743 384.713 372.269 483.819 391.007C536.885 401.045 577.176 374.814 620.112 360.289C645.5 351.704 669.391 348.171 697.563 353.706C727.815 359.641 756.041 368.736 783.774 377.995C832.952 394.419 888.948 417.09 947.955 413.65C1021.54 409.344 1077.54 372.093 1152.16 369.054" stroke="url(#paint17_linear_186_2)" stroke-miterlimit="10"/>
<path d="M-161.984 363.364C-107.601 364.537 -53.136 380.205 1.24662 372.137C61.5613 363.187 112.494 339.374 171.604 328.332C280.26 308.032 385.731 364.581 483.18 384.39C535.363 394.998 572.05 370.121 614.395 355.83C639.702 347.293 662.344 344.815 690.042 350.532C720.688 356.832 749.599 365.781 778.237 374.808C828.768 390.729 886.491 412.153 945.912 408.612C1020.19 404.178 1076.85 366.508 1152.16 363.364" stroke="url(#paint18_linear_186_2)" stroke-miterlimit="10"/>
<path d="M-161.984 358.58C-107.091 359.925 -52.4714 376.631 2.52198 368.601C61.111 360.05 109.935 336.59 167.274 325.967C222.897 315.658 282.07 327.296 334.024 339.731C384.126 351.727 431.755 367.461 482.605 378.34C534.13 389.365 566.993 366.013 609.019 352.297C664.824 334.094 721.98 357.18 773.059 372.149C824.812 387.297 884.159 407.144 943.971 403.58C1018.9 399.12 1076.19 361.748 1152.16 358.574" stroke="url(#paint19_linear_186_2)" stroke-miterlimit="10"/>
<path d="M-161.984 353.438C-106.578 354.964 -51.9481 373.098 3.74947 364.885C60.7795 356.468 107.661 332.666 163.459 322.118C218.573 311.685 279.308 323.016 331.51 334.578C382.626 345.903 431.279 360.858 482.121 372.624C532.963 384.39 562.66 361.844 604.148 348.117C658.687 330.077 718.227 355.278 768.421 369.407C821.262 384.28 882.116 403.206 942.258 399.538C1017.78 394.927 1075.63 356.732 1152.16 353.438" stroke="url(#paint20_linear_186_2)" stroke-miterlimit="10"/>
<path d="M-161.984 348.58C-106.058 350.215 -51.4743 369.151 4.87085 360.98C60.5407 352.911 105.697 329.382 160.016 319.151C214.71 308.882 276.832 319.631 329.271 330.118C381.29 340.528 430.918 354.431 481.678 366.781C505.626 372.605 523.175 372.845 546.328 365.332C565.147 359.225 581.063 350.356 599.854 344.206C624.923 335.99 644.891 336.219 671.148 342.326C702.697 349.675 733.434 358.125 764.39 366.335C818.116 380.543 880.293 398.172 940.708 394.511C1016.75 389.902 1075.08 351.876 1152.16 348.58" stroke="url(#paint21_linear_186_2)" stroke-miterlimit="10"/>
<path d="M-161.984 343.721C-105.538 345.373 -51.1176 365.428 5.88503 357.141C60.451 349.206 104.065 325.335 157.29 315.257C211.701 304.954 274.964 315.368 327.613 325.169C380.263 334.971 430.813 348.297 481.409 361.513C504.791 367.62 521.884 368.485 544.837 360.93C563.034 354.938 578.221 346.095 596.373 340.059C621.306 331.766 640.964 332.647 666.764 339.024C698.468 346.86 729.68 355.384 761.22 363.452C815.622 377.361 879.013 394.19 939.52 390.478C1015.98 385.792 1074.71 347.124 1152.16 343.771" stroke="url(#paint22_linear_186_2)" stroke-miterlimit="10"/>
<path d="M-161.984 339.707C-105.011 341.31 -50.9048 361.991 6.73352 353.708C60.4843 345.975 102.737 322.001 155.219 312.254C209.554 302.149 273.498 312.056 326.473 321.129C379.877 330.267 430.862 342.995 481.246 356.892C504.151 363.203 521.052 364.532 543.83 357.001C561.534 351.156 576.108 342.397 593.757 336.496C618.57 328.203 638.209 329.548 663.615 336.145C695.363 344.378 726.939 352.896 758.961 360.767C813.715 374.23 878.161 390.136 938.62 386.464C1015.38 381.799 1074.38 343.039 1152.16 339.707" stroke="url(#paint23_linear_186_2)" stroke-miterlimit="10"/>
<path d="M-161.984 334.982C-104.49 336.424 -50.8469 357.428 7.4318 349.193C60.6273 341.677 101.968 317.799 153.822 308.247C207.985 298.276 272.771 307.888 325.884 316.324C379.837 324.897 431.052 337.175 481.2 351.702C503.732 358.233 520.724 359.812 543.384 352.295C560.724 346.542 574.842 337.85 592.154 332.043C616.876 323.748 636.789 325.316 661.895 332.157C693.58 340.789 725.393 349.296 757.773 356.971C812.693 369.984 877.889 385.049 938.103 381.463C1015.04 376.885 1074.2 338.242 1152.16 334.982" stroke="url(#paint24_linear_186_2)" stroke-miterlimit="10"/>
<path d="M-161.984 330.287C-104.198 331.602 -50.9291 353.145 7.70555 344.712C60.7186 337.091 101.813 312.886 153.503 303.249C207.611 293.165 272.688 303.117 325.82 311.495C379.965 320.032 431.016 332.397 481.227 347.203C503.677 353.83 520.907 355.21 543.412 347.633C560.632 341.835 574.659 333.093 591.88 327.278C616.52 318.961 636.798 320.507 661.666 327.648C693.215 336.705 725.065 345.402 757.581 353.112C812.237 366.073 878.282 381.188 938.03 377.411C1014.86 372.562 1074.4 334.015 1152.16 330.304" stroke="url(#paint25_linear_186_2)" stroke-miterlimit="10"/>
<path d="M-161.984 325.765C-104.034 327.004 -50.8874 348.545 7.92063 340.07C60.8844 332.435 102.214 308.596 153.973 299.085C208.115 289.135 273.087 299.452 326.169 307.828C380.174 316.352 431.037 328.612 481.627 342.621C529.513 355.878 553.247 335.49 592.686 322.775C617.342 314.827 637.76 316.275 662.416 323.395C693.847 332.473 725.662 341.09 758.189 348.66C812.559 361.309 879.504 376.393 938.86 372.323C1015.41 367.068 1075.72 330.339 1153.01 325.847" stroke="url(#paint26_linear_186_2)" stroke-miterlimit="10"/>
<path d="M-161.984 322.187C-103.859 323.378 -50.8394 345 8.15247 336.484C61.1174 328.833 102.613 305.331 154.399 295.941C208.542 286.103 273.324 296.777 326.325 305.151C380.121 313.649 430.794 325.81 481.677 339.064C529.163 351.438 553.746 331.483 593.214 319.388C617.87 311.813 638.471 313.212 662.908 320.317C694.194 329.412 725.918 337.933 758.437 345.344C812.589 357.691 880.201 372.562 939.065 368.234C1015.23 362.637 1076.28 327.63 1153.01 322.443" stroke="url(#paint27_linear_186_2)" stroke-miterlimit="10"/>
<path d="M-161.139 317.578C-102.852 318.738 -49.9499 340.555 9.22194 331.993C62.0878 324.345 103.802 301.09 155.591 291.79C209.698 282.107 274.227 293.059 327.093 301.445C380.597 309.925 431.127 322.004 482.159 334.537C529.275 346.096 554.681 326.566 594.224 315.023C618.927 307.819 639.67 309.219 663.908 316.325C695 325.445 726.639 333.875 759.082 341.118C813.061 353.181 881.039 367.7 939.463 363.143C1015.21 357.24 1076.92 323.847 1153.01 318.016" stroke="url(#paint28_linear_186_2)" stroke-miterlimit="10"/>
<path d="M-161.139 313.895C-102.605 315.049 -49.8015 337.121 9.67268 328.52C62.494 320.887 104.465 297.804 156.3 288.654C210.39 279.104 274.592 290.346 327.44 298.737C380.654 307.195 431.03 319.195 482.272 331.019C529.034 341.811 555.335 322.721 595.061 311.759C619.847 304.916 640.755 306.371 664.838 313.483C695.688 322.685 727.344 330.873 759.667 338.011C813.601 349.785 881.773 363.823 939.86 359.039C1015.11 352.872 1077.58 321.04 1153.01 314.631" stroke="url(#paint29_linear_186_2)" stroke-miterlimit="10"/>
<path d="M-161.139 309.809C-102.341 310.955 -49.5575 333.086 10.2075 324.548C62.9822 317.02 105.235 294.382 157.133 285.472C211.204 276.192 275.13 287.541 327.877 295.845C380.807 304.164 431.045 315.928 482.405 326.917C528.819 336.853 556.069 318.44 596.031 308.204C620.935 301.822 641.997 303.351 665.944 310.387C696.607 319.473 728.146 327.459 760.396 334.304C814.357 345.642 882.518 358.837 940.293 353.956C1015.06 347.64 1078.24 317.73 1153.01 310.862" stroke="url(#paint30_linear_186_2)" stroke-miterlimit="10"/>
<path d="M-161.139 305.654C-102.038 306.802 -49.2623 329.041 10.842 320.6C63.5816 313.192 106.137 290.965 158.055 282.301C212.099 273.283 275.69 284.726 328.393 292.928C380.932 301.086 431.153 312.621 482.569 322.792C528.656 331.912 556.91 314.193 597.147 304.686C622.189 298.769 643.416 300.406 667.262 307.406C697.717 316.371 729.115 324.148 761.261 330.689C815.315 341.566 883.268 353.836 940.798 348.859C1015.05 342.442 1078.91 314.4 1153.01 307.139" stroke="url(#paint31_linear_186_2)" stroke-miterlimit="10"/>
<path d="M-161.139 301.843C-101.71 303.034 -48.889 325.798 11.5618 317.284C64.2645 309.905 107.129 287.726 159.102 279.179C213.11 270.301 276.353 281.986 328.937 290.208C381.111 298.369 431.276 309.801 482.71 319.319C528.477 327.783 557.79 310.495 598.328 301.595C623.525 296.081 644.916 297.867 668.689 304.904C698.942 313.886 730.21 321.561 762.258 327.871C816.485 338.476 884.054 349.863 941.375 344.729C1015.09 338.112 1079.61 311.527 1153.01 303.784" stroke="url(#paint32_linear_186_2)" stroke-miterlimit="10"/>
<path d="M-161.139 298.265C-101.354 299.475 -48.5406 322.192 12.3581 313.891C65.0251 306.708 108.228 285.157 160.256 276.97C214.219 268.484 277.071 280.072 329.583 288.095C381.392 296.014 431.513 307.029 482.902 315.641C528.359 323.271 558.795 306.882 599.653 298.843C625.023 293.856 646.579 295.812 670.298 302.658C700.339 311.402 731.459 318.756 763.385 324.656C817.822 334.657 884.844 344.751 942.002 339.617C1015.17 333.077 1080.3 308.604 1153.01 300.636" stroke="url(#paint33_linear_186_2)" stroke-miterlimit="10"/>
<path d="M-161.139 293.983C-100.98 295.242 -48.1132 318.268 13.1679 310.049C65.8615 303.007 109.402 281.742 161.493 273.808C215.4 265.599 277.813 277.228 330.324 285.162C381.749 292.943 431.833 303.685 483.167 311.527C528.313 318.427 559.935 302.738 601.13 295.466C626.682 290.957 648.393 293.113 672.093 299.953C701.916 308.577 732.88 315.703 764.668 321.256C819.314 330.783 885.66 339.67 942.689 334.455C1015.28 327.85 1080.99 305.195 1153.01 296.922" stroke="url(#paint34_linear_186_2)" stroke-miterlimit="10"/>
<path d="M-161.139 290.696C-100.606 292.002 -47.6752 315.416 14.1444 307.275C66.7559 300.341 110.661 279.341 162.807 271.652C216.651 263.71 278.635 275.395 331.027 283.227C382.078 290.878 432.125 301.339 483.349 308.433C528.213 314.65 561.085 299.614 602.599 293.132C628.334 289.103 650.218 291.478 673.928 298.318C703.525 306.832 734.323 313.729 765.954 318.927C820.957 327.966 886.482 335.517 943.419 330.276C1015.44 323.662 1081.68 302.761 1153.01 294.19" stroke="url(#paint35_linear_186_2)" stroke-miterlimit="10"/>
<path d="M-161.139 286.955C-100.168 288.327 -47.1368 311.769 15.1209 303.849C67.7232 297.165 112.012 276.757 164.194 269.449C217.992 261.923 279.511 273.445 331.83 281.08C382.498 288.475 432.508 298.455 483.596 304.691C528.194 310.157 562.362 296.05 604.187 290.481C630.114 287.01 652.162 289.617 675.908 296.307C705.28 304.559 735.907 311.102 767.369 315.846C822.709 324.219 887.321 330.27 944.186 325.067C1015.64 318.535 1082.35 299.788 1153.01 291.093" stroke="url(#paint36_linear_186_2)" stroke-miterlimit="10"/>
<path d="M-161.139 283.538C-99.73 284.996 -46.6075 308.911 16.1704 301.085C68.7271 294.529 113.372 274.343 165.645 267.295C219.37 260.049 280.414 271.609 332.651 279.153C382.954 286.416 432.901 296.076 483.824 301.571C528.194 306.359 563.686 292.966 605.829 288.178C631.939 285.212 654.143 288.106 677.971 294.805C707.114 302.937 737.564 309.23 768.838 313.583C824.507 321.404 888.134 325.999 944.97 320.763C1015.87 314.241 1083 297.296 1153.01 288.332" stroke="url(#paint37_linear_186_2)" stroke-miterlimit="10"/>
<path d="M-161.139 280.742C-99.3011 282.267 -46.0416 306.243 17.2199 298.657C69.7857 292.354 114.804 272.751 167.142 266.097C220.794 259.279 281.354 270.644 333.555 277.961C383.502 284.966 433.375 294.099 484.134 298.761C528.313 302.814 565.155 290.38 607.6 286.502C633.901 284.094 656.26 287.242 680.179 293.797C709.095 301.664 739.367 307.591 770.445 311.47C826.487 318.562 889.028 321.568 945.846 316.407C1016.12 310.011 1083.65 295.212 1153.01 286.162" stroke="url(#paint38_linear_186_2)" stroke-miterlimit="10"/>
<path d="M-161.139 277.177C-98.8509 278.801 -45.452 303.227 18.3328 295.795C70.9012 289.648 116.296 270.288 168.7 263.931C222.282 257.446 282.352 268.786 334.492 275.991C384.103 282.847 433.888 291.582 484.43 295.495C528.456 298.904 566.641 287.231 609.362 284.2C635.829 282.321 658.362 285.79 682.374 292.33C711.067 300.054 741.157 305.7 772.023 309.152C828.424 315.598 889.864 317.033 946.685 311.857C1016.45 305.505 1084.25 292.619 1153.01 283.34" stroke="url(#paint39_linear_186_2)" stroke-miterlimit="10"/>
<path d="M-161.139 274.329C-98.3998 276.028 -44.8502 300.586 19.4404 293.381C71.9952 287.485 117.788 268.68 170.252 262.745C223.737 256.677 283.301 267.836 335.427 274.809C384.705 281.428 434.377 289.586 484.705 292.692C528.645 295.406 568.132 284.694 611.178 282.564C637.834 281.246 660.457 285.002 684.695 291.423C713.164 298.881 743.068 304.151 773.707 307.111C902.379 319.958 1028.47 298.285 1153.01 281.185" stroke="url(#paint40_linear_186_2)" stroke-miterlimit="10"/>
<path d="M-161.139 271.495C-97.9321 273.276 -44.2256 297.89 20.5965 290.957C73.1532 285.334 119.34 267.116 171.869 261.564C225.266 255.919 284.329 266.869 336.347 273.594C385.345 279.946 434.872 287.526 484.974 289.811C528.906 291.834 569.636 282.138 613.003 280.878C639.815 280.111 662.63 284.166 687.005 290.453C715.15 297.759 745.038 302.417 775.382 304.993C900.782 315.642 1031.58 295.873 1153.01 278.998" stroke="url(#paint41_linear_186_2)" stroke-miterlimit="10"/>
<path d="M-161.139 268.727C-97.4667 270.605 -43.5959 295.472 21.7555 288.759C74.3213 283.341 120.891 265.582 173.485 260.394C226.79 255.141 285.342 265.961 337.306 272.471C386.039 278.592 435.392 285.646 485.266 287.189C529.28 288.55 571.16 279.756 614.855 279.388C641.822 279.163 664.784 283.544 689.351 289.763C717.313 296.839 747 301.105 777.088 303.224C834.409 307.258 892.532 303.822 949.378 298.887C1017.59 292.964 1085.89 286.464 1153.01 276.929" stroke="url(#paint42_linear_186_2)" stroke-miterlimit="10"/>
<path d="M-161.139 265.836C-97.5502 267.759 -43.7535 292.474 21.5327 286.385C73.8875 281.483 120.548 264.551 172.729 259.415C225.477 254.225 282.851 264.524 334.357 270.743C384.147 276.734 434.586 283.428 485.553 284.266C530.799 285.012 574.886 276.767 620.032 277.731C647.281 278.314 669.995 283.629 694.973 289.533C720.917 295.665 748.313 299.178 776.019 300.839C834.99 304.374 893.478 299.162 951.746 294.244C1019 288.569 1086.86 284.201 1153.01 274.714" stroke="url(#paint43_linear_186_2)" stroke-miterlimit="10"/>
<path d="M-161.139 263.108C-97.1108 265.139 -43.0939 290.249 22.6772 284.35C75.0423 279.653 122.078 263.042 174.342 258.246C226.981 253.439 283.9 263.668 335.334 269.732C384.889 275.581 435.137 281.804 485.841 281.804C531.352 281.804 576.416 274.599 621.937 276.437C649.224 277.535 672.13 283.198 697.299 289.02C723.071 294.98 750.285 298.146 777.754 299.397C836.918 302.091 894.394 295.161 952.655 290.343C1019.48 284.817 1087.33 282.463 1153.01 272.783" stroke="url(#paint44_linear_186_2)" stroke-miterlimit="10"/>
<path d="M-161.139 260.383C-96.6249 262.513 -42.4966 287.892 23.8335 282.209C76.2187 277.719 123.621 261.533 175.96 257.099C228.491 252.637 284.965 262.821 336.374 268.702C385.656 274.352 435.714 280.03 486.155 279.227C531.997 278.495 577.948 272.355 623.853 275.056C651.177 276.668 674.267 282.649 699.602 288.359C725.155 294.12 752.242 296.92 779.457 297.751C838.778 299.572 895.307 290.973 953.551 286.274C1019.95 280.916 1087.71 280.619 1153.01 270.793" stroke="url(#paint45_linear_186_2)" stroke-miterlimit="10"/>
<path d="M-161.139 258.64C-96.1786 260.837 -41.8229 286.397 24.9717 280.958C77.3653 276.689 125.132 260.964 177.553 256.931C229.974 252.898 285.99 262.931 337.261 268.601C386.424 274.04 436.244 279.177 486.411 277.568C532.653 276.084 579.389 271.051 625.677 274.595C653.055 276.689 676.309 282.985 701.88 288.556C727.452 294.128 754.192 296.523 781.151 296.941C840.471 297.869 896.25 287.672 954.43 283.111C1020.45 277.936 1088.15 279.694 1153.01 269.738" stroke="url(#paint46_linear_186_2)" stroke-miterlimit="10"/>
<path d="M-161.139 255.954C-95.731 258.248 -41.1833 283.813 26.0864 278.656C78.5077 274.619 126.621 259.461 179.116 255.79C231.391 252.135 287.061 262.044 338.241 267.491C387.258 272.702 436.805 277.274 486.726 274.887C533.425 272.653 580.854 268.736 627.553 273.084C654.85 275.63 678.377 282.218 704.132 287.631C729.411 292.941 756.151 294.983 782.818 295C842.139 295.044 897.207 283.354 955.305 278.94C1021.01 273.947 1088.55 277.733 1153.01 267.676" stroke="url(#paint47_linear_186_2)" stroke-miterlimit="10"/>
<path d="M-161.139 254C-95.2938 256.369 -40.5826 282.124 27.1699 277.168C79.6178 273.348 128.078 258.612 180.635 255.337C232.855 252.063 287.968 261.886 339.156 267.137C388.072 272.136 437.372 276.191 486.999 273.031C534.2 270.029 582.24 267.202 629.367 272.354C656.654 275.329 680.382 282.244 706.328 287.527C731.489 292.646 758 294.322 784.42 293.951C843.649 293.126 898.141 279.951 956.156 275.645C1021.49 270.799 1088.85 276.617 1153.01 266.367" stroke="url(#paint48_linear_186_2)" stroke-miterlimit="10"/>
<path d="M-161.139 252C-94.8859 254.447 -39.9853 280.335 28.2115 275.605C80.6846 271.96 129.507 257.722 182.09 254.763C234.198 251.831 288.861 261.623 340.02 266.669C388.843 271.47 437.894 275.012 487.237 271.099C534.965 267.317 583.596 265.563 631.05 271.497C658.309 274.903 682.236 282.134 708.409 287.299C733.414 292.203 759.787 293.555 785.978 292.808C845.049 291.135 899.074 276.554 956.986 272.347C1022.01 267.623 1089.16 275.447 1153.01 265.012" stroke="url(#paint49_linear_186_2)" stroke-miterlimit="10"/>
<path d="M-161.139 250C-94.5195 252.517 -39.417 278.529 29.2193 274.001C81.7209 270.533 130.818 256.757 183.521 254.132C235.539 251.544 289.802 261.296 340.88 266.156C389.64 270.804 438.445 273.805 487.497 269.163C535.783 264.596 584.853 263.89 632.718 270.576C659.923 274.381 684.079 281.921 710.426 286.955C735.303 291.707 761.531 292.691 787.449 291.592C846.311 289.097 899.963 273.207 957.766 269.065C1022.56 264.439 1089.44 274.245 1153.01 263.585" stroke="url(#paint50_linear_186_2)" stroke-miterlimit="10"/>
<path d="M-161.139 248C-94.0992 250.63 -38.8503 277.354 30.1697 272.915C82.7173 269.542 132.116 255.9 184.874 253.548C236.81 251.234 290.653 261.187 341.686 265.992C390.401 270.58 438.969 273.132 487.748 267.656C536.526 262.18 586.081 262.502 634.321 270.08C661.462 274.347 685.855 282.286 712.348 287.401C736.989 292.166 763.253 292.766 788.852 291.284C847.477 287.956 900.828 270.43 958.513 266.258C1023.03 261.592 1089.72 273.626 1153.01 262.452" stroke="url(#paint51_linear_186_2)" stroke-miterlimit="10"/>
<path d="M-161.139 247C-93.7318 249.675 -38.3624 276.476 31.0707 272.226C83.6019 269.026 133.295 255.843 186.118 253.804C237.937 251.803 291.436 261.752 342.415 266.4C391.104 270.822 439.447 272.884 487.944 266.71C537.354 260.425 587.202 261.735 635.79 270.026C662.877 274.636 687.482 282.844 714.131 287.868C738.672 292.494 764.8 292.759 790.135 290.985C817.779 289.045 844.729 284.601 871.268 279.671C899.906 274.359 929.375 266.257 959.209 264.112C1023.5 259.486 1089.97 273.464 1153.01 262.001" stroke="url(#paint52_linear_186_2)" stroke-miterlimit="10"/>
<path d="M-161.139 245C-93.4038 247.715 -37.9343 274.642 31.8999 270.542C84.4763 267.452 134.433 254.656 187.32 252.924C239.057 251.208 292.172 261.2 343.106 265.725C391.794 270.04 439.944 271.612 488.158 264.754C538.107 257.647 588.283 259.904 637.227 268.898C664.195 273.864 689.009 282.306 715.795 287.25C740.235 291.758 766.245 291.725 791.333 289.65C818.922 287.377 845.717 282.554 872.101 277.318C900.529 271.678 930.043 263.17 959.868 261.013C1023.96 256.383 1090.22 272.296 1153.01 260.461" stroke="url(#paint53_linear_186_2)" stroke-miterlimit="10"/>
<path d="M-161.139 244C-93.0949 246.756 -37.4806 273.813 32.6533 269.839C85.2652 266.852 135.459 254.456 188.39 252.973C240.053 251.524 292.81 261.621 343.707 266.025C392.403 270.23 440.379 271.36 488.309 263.82C538.831 255.9 589.234 259.042 638.524 268.715C665.392 273.984 690.388 282.676 717.31 287.559C741.649 291.969 767.503 291.66 792.408 289.318C819.933 286.727 846.59 281.546 872.836 276.029C901.073 270.093 930.623 261.219 960.447 259.031C1024.33 254.346 1090.43 272.176 1153.01 259.929" stroke="url(#paint54_linear_186_2)" stroke-miterlimit="10"/>
<path d="M-161.139 243C-92.812 245.758 -37.1064 273.02 33.3286 269.137C86.0044 266.231 136.453 254.169 189.439 252.928C241.047 251.714 293.477 261.967 344.318 266.286C393.033 270.417 440.872 271.129 488.51 262.938C539.552 254.163 590.083 258.134 639.72 268.454C666.496 274.03 691.656 282.954 718.688 287.796C742.945 292.137 768.708 291.585 793.376 288.993C820.863 286.103 847.375 280.587 873.503 274.802C901.584 268.575 931.152 259.392 961.013 257.153C1024.77 252.365 1090.7 272.099 1153.01 259.359" stroke="url(#paint55_linear_186_2)" stroke-miterlimit="10"/>
<path d="M-161.139 242C-92.5478 244.764 -36.7879 272.26 33.9205 268.429C86.605 265.577 137.282 253.808 190.313 252.757C241.866 251.757 293.948 262.216 344.789 266.483C393.531 270.574 441.278 270.906 488.642 262.061C540.213 252.426 590.772 257.158 640.773 268.142C667.43 274.001 692.736 283.15 719.868 287.971C744.052 292.271 769.687 291.509 794.181 288.689C821.632 285.522 848.025 279.695 874.043 273.653C901.996 267.158 931.537 257.716 961.479 255.411C1025.1 250.463 1090.95 272.105 1153.01 258.772" stroke="url(#paint56_linear_186_2)" stroke-miterlimit="10"/>
<path d="M-161.139 241C-92.885 243.772 -37.3072 271.35 32.991 267.774C88.5414 264.951 142.239 252.205 198.292 252.466C246.213 252.687 294.298 262.251 341.635 266.365C391.929 270.734 440.069 270.612 488.775 261.259C542.783 250.913 593.387 256.352 645.442 268.655C668.777 274.166 691.009 281.684 714.517 286.846C739.395 292.307 766.709 291.775 792.308 288.742C821.356 285.305 849.163 278.762 876.56 272.109C904.175 265.378 933.534 255.903 963.312 253.685C1026.28 249.023 1091.77 272.043 1153.01 258.16" stroke="url(#paint57_linear_186_2)" stroke-miterlimit="10"/>
<path d="M-161.139 241C-92.6938 243.699 -37.1164 271.106 33.3729 267.57C88.9412 264.778 142.885 252.49 198.919 252.9C246.803 253.256 294.642 262.961 341.951 267.028C392.281 271.352 440.411 270.925 488.88 261.089C543.435 250.01 593.774 256.009 646.258 268.752C669.483 274.39 691.778 281.879 715.351 286.98C740.173 292.377 767.369 291.742 792.821 288.579C821.851 284.971 849.549 278.233 876.863 271.489C904.442 264.68 933.791 255.221 963.642 252.922C1026.49 248.116 1092.05 272.546 1153.01 258.177" stroke="url(#paint58_linear_186_2)" stroke-miterlimit="10"/>
<path d="M-161.139 240C-92.5569 242.678 -37.0251 270.495 33.665 266.872C89.2424 264.022 143.305 251.89 199.412 252.436C247.278 252.9 294.888 263.006 342.179 267.143C392.536 271.561 440.74 270.859 488.898 260.339C543.982 248.311 593.92 254.872 646.851 268.269C670.022 274.129 692.371 281.76 715.962 286.968C740.767 292.441 767.725 291.751 793.159 288.409C851.921 280.678 904.57 256.473 963.898 251.592C1026.64 246.428 1092.37 272.737 1153.01 257.512" stroke="url(#paint59_linear_186_2)" stroke-miterlimit="10"/>
<path d="M-161.139 240C-92.4455 242.606 -36.9304 270.403 33.8438 266.716C89.4319 263.814 143.678 251.998 199.759 252.628C247.636 253.177 295.038 263.567 342.312 267.747C392.689 272.202 441.058 271.302 488.943 260.287C544.513 247.499 593.895 254.395 647.33 268.241C670.31 274.182 692.715 282.055 716.361 287.025C741.476 292.297 767.623 291.869 793.332 288.402C852.196 280.458 904.553 256.392 964.093 251.191C1026.75 245.705 1092.77 273.436 1153.01 257.511" stroke="url(#paint60_linear_186_2)" stroke-miterlimit="10"/>
<path d="M-161.139 240C-92.3763 242.543 -36.9647 270.657 33.8786 266.813C89.4635 263.796 143.78 252.113 199.967 252.797C247.85 253.382 295.067 264.27 342.329 268.572C392.703 273.156 441.325 272.103 488.925 260.47C544.921 246.774 593.607 253.955 647.549 268.407C696.828 281.601 737.429 296.621 793.233 288.888C852.249 280.707 904.357 256.713 964.104 251.065C1026.69 245.146 1093.05 274.535 1153.01 257.684" stroke="url(#paint61_linear_186_2)" stroke-miterlimit="10"/>
</g>
<rect x="767" y="183" width="527" height="355" fill="url(#paint62_linear_186_2)"/>
<g clip-path="url(#clip0_186_2)">
<path fill-rule="evenodd" clip-rule="evenodd" d="M-357 450.882L-311.355 460.76C-265.71 470.637 -171.884 490.392 -80.5942 490.392C10.6958 490.392 104.522 470.637 195.812 441.005C289.638 411.372 380.928 371.862 472.218 401.495C566.043 431.127 657.333 529.902 748.623 549.657C842.449 569.412 933.739 510.147 1025.03 520.024C1118.86 529.902 1210.15 608.921 1303.97 599.044C1395.26 589.166 1486.55 490.392 1580.38 450.882C1671.67 411.372 1762.96 431.127 1856.78 460.76C1948.07 490.392 2039.36 529.902 2133.19 608.921C2224.48 687.941 2318.3 806.471 2409.59 826.225C2500.88 845.98 2594.71 766.961 2640.36 727.451L2686 687.941V925H2640.36C2594.71 925 2500.88 925 2409.59 925C2318.3 925 2224.48 925 2133.19 925C2039.36 925 1948.07 925 1856.78 925C1762.96 925 1671.67 925 1580.38 925C1486.55 925 1395.26 925 1303.97 925C1210.15 925 1118.86 925 1025.03 925C933.739 925 842.449 925 748.623 925C657.333 925 566.043 925 472.218 925C380.928 925 289.638 925 195.812 925C104.522 925 10.6958 925 -80.5942 925C-171.884 925 -265.71 925 -311.355 925H-357V450.882Z" fill="#181928"/>
</g>
<defs>
<filter id="filter0_f_186_2" x="-360.203" y="0.454803" width="1342.8" height="960.09" filterUnits="userSpaceOnUse" color-interpolation-filters="sRGB">
<feFlood flood-opacity="0" result="BackgroundImageFix"/>
<feBlend mode="normal" in="SourceGraphic" in2="BackgroundImageFix" result="shape"/>
<feGaussianBlur stdDeviation="196" result="effect1_foregroundBlur_186_2"/>
</filter>
<filter id="filter1_f_186_2" x="-603.348" y="231.759" width="934.75" height="497.164" filterUnits="userSpaceOnUse" color-interpolation-filters="sRGB">
<feFlood flood-opacity="0" result="BackgroundImageFix"/>
<feBlend mode="normal" in="SourceGraphic" in2="BackgroundImageFix" result="shape"/>
<feGaussianBlur stdDeviation="100" result="effect1_foregroundBlur_186_2"/>
</filter>
<filter id="filter2_f_186_2" x="-843.065" y="239.463" width="899.327" height="503.116" filterUnits="userSpaceOnUse" color-interpolation-filters="sRGB">
<feFlood flood-opacity="0" result="BackgroundImageFix"/>
<feBlend mode="normal" in="SourceGraphic" in2="BackgroundImageFix" result="shape"/>
<feGaussianBlur stdDeviation="100" result="effect1_foregroundBlur_186_2"/>
</filter>
<filter id="filter3_f_186_2" x="-760.105" y="74.571" width="1492.86" height="854.124" filterUnits="userSpaceOnUse" color-interpolation-filters="sRGB">
<feFlood flood-opacity="0" result="BackgroundImageFix"/>
<feBlend mode="normal" in="SourceGraphic" in2="BackgroundImageFix" result="shape"/>
<feGaussianBlur stdDeviation="186.5" result="effect1_foregroundBlur_186_2"/>
</filter>
<linearGradient id="paint0_linear_186_2" x1="495.089" y1="451" x2="495.089" y2="496" gradientUnits="userSpaceOnUse">
<stop stop-color="#32344B"/>
<stop offset="0.307292" stop-color="#282941"/>
<stop offset="1" stop-color="#434566"/>
</linearGradient>
<linearGradient id="paint1_linear_186_2" x1="495.089" y1="438" x2="495.089" y2="493" gradientUnits="userSpaceOnUse">
<stop stop-color="#32344B"/>
<stop offset="0.307292" stop-color="#282941"/>
<stop offset="1" stop-color="#434566"/>
</linearGradient>
<linearGradient id="paint2_linear_186_2" x1="495.089" y1="426" x2="495.089" y2="491" gradientUnits="userSpaceOnUse">
<stop stop-color="#32344B"/>
<stop offset="0.307292" stop-color="#282941"/>
<stop offset="1" stop-color="#434566"/>
</linearGradient>
<linearGradient id="paint3_linear_186_2" x1="495.089" y1="414" x2="495.089" y2="488" gradientUnits="userSpaceOnUse">
<stop stop-color="#32344B"/>
<stop offset="0.307292" stop-color="#282941"/>
<stop offset="1" stop-color="#434566"/>
</linearGradient>
<linearGradient id="paint4_linear_186_2" x1="495.089" y1="404" x2="495.089" y2="485" gradientUnits="userSpaceOnUse">
<stop stop-color="#32344B"/>
<stop offset="0.307292" stop-color="#282941"/>
<stop offset="1" stop-color="#434566"/>
</linearGradient>
<linearGradient id="paint5_linear_186_2" x1="495.089" y1="394" x2="495.089" y2="481" gradientUnits="userSpaceOnUse">
<stop stop-color="#32344B"/>
<stop offset="0.307292" stop-color="#282941"/>
<stop offset="1" stop-color="#434566"/>
</linearGradient>
<linearGradient id="paint6_linear_186_2" x1="495.089" y1="386" x2="495.089" y2="475" gradientUnits="userSpaceOnUse">
<stop stop-color="#32344B"/>
<stop offset="0.307292" stop-color="#282941"/>
<stop offset="1" stop-color="#434566"/>
</linearGradient>
<linearGradient id="paint7_linear_186_2" x1="495.089" y1="378" x2="495.089" y2="469" gradientUnits="userSpaceOnUse">
<stop stop-color="#32344B"/>
<stop offset="0.307292" stop-color="#282941"/>
<stop offset="1" stop-color="#434566"/>
</linearGradient>
<linearGradient id="paint8_linear_186_2" x1="495.089" y1="371" x2="495.089" y2="463" gradientUnits="userSpaceOnUse">
<stop stop-color="#32344B"/>
<stop offset="0.307292" stop-color="#282941"/>
<stop offset="1" stop-color="#434566"/>
</linearGradient>
<linearGradient id="paint9_linear_186_2" x1="495.089" y1="364" x2="495.089" y2="457" gradientUnits="userSpaceOnUse">
<stop stop-color="#32344B"/>
<stop offset="0.307292" stop-color="#282941"/>
<stop offset="1" stop-color="#434566"/>
</linearGradient>
<linearGradient id="paint10_linear_186_2" x1="495.089" y1="358" x2="495.089" y2="451" gradientUnits="userSpaceOnUse">
<stop stop-color="#32344B"/>
<stop offset="0.307292" stop-color="#282941"/>
<stop offset="1" stop-color="#434566"/>
</linearGradient>
<linearGradient id="paint11_linear_186_2" x1="495.089" y1="352" x2="495.089" y2="445" gradientUnits="userSpaceOnUse">
<stop stop-color="#32344B"/>
<stop offset="0.307292" stop-color="#282941"/>
<stop offset="1" stop-color="#434566"/>
</linearGradient>
<linearGradient id="paint12_linear_186_2" x1="495.089" y1="347" x2="495.089" y2="439" gradientUnits="userSpaceOnUse">
<stop stop-color="#32344B"/>
<stop offset="0.307292" stop-color="#282941"/>
<stop offset="1" stop-color="#434566"/>
</linearGradient>
<linearGradient id="paint13_linear_186_2" x1="495.089" y1="343" x2="495.089" y2="434" gradientUnits="userSpaceOnUse">
<stop stop-color="#32344B"/>
<stop offset="0.307292" stop-color="#282941"/>
<stop offset="1" stop-color="#434566"/>
</linearGradient>
<linearGradient id="paint14_linear_186_2" x1="495.089" y1="339" x2="495.089" y2="429" gradientUnits="userSpaceOnUse">
<stop stop-color="#32344B"/>
<stop offset="0.307292" stop-color="#282941"/>
<stop offset="1" stop-color="#434566"/>
</linearGradient>
<linearGradient id="paint15_linear_186_2" x1="495.089" y1="335" x2="495.089" y2="424" gradientUnits="userSpaceOnUse">
<stop stop-color="#32344B"/>
<stop offset="0.307292" stop-color="#282941"/>
<stop offset="1" stop-color="#434566"/>
</linearGradient>
<linearGradient id="paint16_linear_186_2" x1="495.089" y1="331" x2="495.089" y2="419" gradientUnits="userSpaceOnUse">
<stop stop-color="#32344B"/>
<stop offset="0.307292" stop-color="#282941"/>
<stop offset="1" stop-color="#434566"/>
</linearGradient>
<linearGradient id="paint17_linear_186_2" x1="495.089" y1="328" x2="495.089" y2="414" gradientUnits="userSpaceOnUse">
<stop stop-color="#32344B"/>
<stop offset="0.307292" stop-color="#282941"/>
<stop offset="1" stop-color="#434566"/>
</linearGradient>
<linearGradient id="paint18_linear_186_2" x1="495.089" y1="324" x2="495.089" y2="409" gradientUnits="userSpaceOnUse">
<stop stop-color="#32344B"/>
<stop offset="0.307292" stop-color="#282941"/>
<stop offset="1" stop-color="#434566"/>
</linearGradient>
<linearGradient id="paint19_linear_186_2" x1="495.089" y1="322" x2="495.089" y2="404" gradientUnits="userSpaceOnUse">
<stop stop-color="#32344B"/>
<stop offset="0.307292" stop-color="#282941"/>
<stop offset="1" stop-color="#434566"/>
</linearGradient>
<linearGradient id="paint20_linear_186_2" x1="495.089" y1="318" x2="495.089" y2="400" gradientUnits="userSpaceOnUse">
<stop stop-color="#32344B"/>
<stop offset="0.307292" stop-color="#282941"/>
<stop offset="1" stop-color="#434566"/>
</linearGradient>
<linearGradient id="paint21_linear_186_2" x1="495.089" y1="315" x2="495.089" y2="395" gradientUnits="userSpaceOnUse">
<stop stop-color="#32344B"/>
<stop offset="0.307292" stop-color="#282941"/>
<stop offset="1" stop-color="#434566"/>
</linearGradient>
<linearGradient id="paint22_linear_186_2" x1="495.089" y1="311" x2="495.089" y2="391" gradientUnits="userSpaceOnUse">
<stop stop-color="#32344B"/>
<stop offset="0.307292" stop-color="#282941"/>
<stop offset="1" stop-color="#434566"/>
</linearGradient>
<linearGradient id="paint23_linear_186_2" x1="495.089" y1="308" x2="495.089" y2="387" gradientUnits="userSpaceOnUse">
<stop stop-color="#32344B"/>
<stop offset="0.307292" stop-color="#282941"/>
<stop offset="1" stop-color="#434566"/>
</linearGradient>
<linearGradient id="paint24_linear_186_2" x1="495.089" y1="304" x2="495.089" y2="382" gradientUnits="userSpaceOnUse">
<stop stop-color="#32344B"/>
<stop offset="0.307292" stop-color="#282941"/>
<stop offset="1" stop-color="#434566"/>
</linearGradient>
<linearGradient id="paint25_linear_186_2" x1="495.089" y1="299" x2="495.089" y2="378" gradientUnits="userSpaceOnUse">
<stop stop-color="#32344B"/>
<stop offset="0.307292" stop-color="#282941"/>
<stop offset="1" stop-color="#434566"/>
</linearGradient>
<linearGradient id="paint26_linear_186_2" x1="495.512" y1="295" x2="495.512" y2="373" gradientUnits="userSpaceOnUse">
<stop stop-color="#32344B"/>
<stop offset="0.307292" stop-color="#282941"/>
<stop offset="1" stop-color="#434566"/>
</linearGradient>
<linearGradient id="paint27_linear_186_2" x1="495.512" y1="292" x2="495.512" y2="369" gradientUnits="userSpaceOnUse">
<stop stop-color="#32344B"/>
<stop offset="0.307292" stop-color="#282941"/>
<stop offset="1" stop-color="#434566"/>
</linearGradient>
<linearGradient id="paint28_linear_186_2" x1="495.934" y1="288" x2="495.934" y2="364" gradientUnits="userSpaceOnUse">
<stop stop-color="#32344B"/>
<stop offset="0.307292" stop-color="#282941"/>
<stop offset="1" stop-color="#434566"/>
</linearGradient>
<linearGradient id="paint29_linear_186_2" x1="495.934" y1="285" x2="495.934" y2="360" gradientUnits="userSpaceOnUse">
<stop stop-color="#32344B"/>
<stop offset="0.307292" stop-color="#282941"/>
<stop offset="1" stop-color="#434566"/>
</linearGradient>
<linearGradient id="paint30_linear_186_2" x1="495.934" y1="282" x2="495.934" y2="355" gradientUnits="userSpaceOnUse">
<stop stop-color="#32344B"/>
<stop offset="0.307292" stop-color="#282941"/>
<stop offset="1" stop-color="#434566"/>
</linearGradient>
<linearGradient id="paint31_linear_186_2" x1="495.934" y1="279" x2="495.934" y2="350" gradientUnits="userSpaceOnUse">
<stop stop-color="#32344B"/>
<stop offset="0.307292" stop-color="#282941"/>
<stop offset="1" stop-color="#434566"/>
</linearGradient>
<linearGradient id="paint32_linear_186_2" x1="495.934" y1="276" x2="495.934" y2="346" gradientUnits="userSpaceOnUse">
<stop stop-color="#32344B"/>
<stop offset="0.307292" stop-color="#282941"/>
<stop offset="1" stop-color="#434566"/>
</linearGradient>
<linearGradient id="paint33_linear_186_2" x1="495.934" y1="274" x2="495.934" y2="341" gradientUnits="userSpaceOnUse">
<stop stop-color="#32344B"/>
<stop offset="0.307292" stop-color="#282941"/>
<stop offset="1" stop-color="#434566"/>
</linearGradient>
<linearGradient id="paint34_linear_186_2" x1="495.934" y1="271" x2="495.934" y2="336" gradientUnits="userSpaceOnUse">
<stop stop-color="#32344B"/>
<stop offset="0.307292" stop-color="#282941"/>
<stop offset="1" stop-color="#434566"/>
</linearGradient>
<linearGradient id="paint35_linear_186_2" x1="495.934" y1="269" x2="495.934" y2="332" gradientUnits="userSpaceOnUse">
<stop stop-color="#32344B"/>
<stop offset="0.307292" stop-color="#282941"/>
<stop offset="1" stop-color="#434566"/>
</linearGradient>
<linearGradient id="paint36_linear_186_2" x1="495.934" y1="267" x2="495.934" y2="327" gradientUnits="userSpaceOnUse">
<stop stop-color="#32344B"/>
<stop offset="0.307292" stop-color="#282941"/>
<stop offset="1" stop-color="#434566"/>
</linearGradient>
<linearGradient id="paint37_linear_186_2" x1="495.934" y1="265" x2="495.934" y2="323" gradientUnits="userSpaceOnUse">
<stop stop-color="#32344B"/>
<stop offset="0.307292" stop-color="#282941"/>
<stop offset="1" stop-color="#434566"/>
</linearGradient>
<linearGradient id="paint38_linear_186_2" x1="495.934" y1="264" x2="495.934" y2="319" gradientUnits="userSpaceOnUse">
<stop stop-color="#32344B"/>
<stop offset="0.307292" stop-color="#282941"/>
<stop offset="1" stop-color="#434566"/>
</linearGradient>
<linearGradient id="paint39_linear_186_2" x1="495.934" y1="262" x2="495.934" y2="315" gradientUnits="userSpaceOnUse">
<stop stop-color="#32344B"/>
<stop offset="0.307292" stop-color="#282941"/>
<stop offset="1" stop-color="#434566"/>
</linearGradient>
<linearGradient id="paint40_linear_186_2" x1="495.934" y1="261" x2="495.934" y2="311" gradientUnits="userSpaceOnUse">
<stop stop-color="#32344B"/>
<stop offset="0.307292" stop-color="#282941"/>
<stop offset="1" stop-color="#434566"/>
</linearGradient>
<linearGradient id="paint41_linear_186_2" x1="495.934" y1="260" x2="495.934" y2="308" gradientUnits="userSpaceOnUse">
<stop stop-color="#32344B"/>
<stop offset="0.307292" stop-color="#282941"/>
<stop offset="1" stop-color="#434566"/>
</linearGradient>
<linearGradient id="paint42_linear_186_2" x1="495.934" y1="259" x2="495.934" y2="305" gradientUnits="userSpaceOnUse">
<stop stop-color="#32344B"/>
<stop offset="0.307292" stop-color="#282941"/>
<stop offset="1" stop-color="#434566"/>
</linearGradient>
<linearGradient id="paint43_linear_186_2" x1="495.934" y1="258" x2="495.934" y2="302" gradientUnits="userSpaceOnUse">
<stop stop-color="#32344B"/>
<stop offset="0.307292" stop-color="#282941"/>
<stop offset="1" stop-color="#434566"/>
</linearGradient>
<linearGradient id="paint44_linear_186_2" x1="495.934" y1="257" x2="495.934" y2="300" gradientUnits="userSpaceOnUse">
<stop stop-color="#32344B"/>
<stop offset="0.307292" stop-color="#282941"/>
<stop offset="1" stop-color="#434566"/>
</linearGradient>
<linearGradient id="paint45_linear_186_2" x1="495.934" y1="256" x2="495.934" y2="298" gradientUnits="userSpaceOnUse">
<stop stop-color="#32344B"/>
<stop offset="0.307292" stop-color="#282941"/>
<stop offset="1" stop-color="#434566"/>
</linearGradient>
<linearGradient id="paint46_linear_186_2" x1="495.934" y1="256" x2="495.934" y2="297" gradientUnits="userSpaceOnUse">
<stop stop-color="#32344B"/>
<stop offset="0.307292" stop-color="#282941"/>
<stop offset="1" stop-color="#434566"/>
</linearGradient>
<linearGradient id="paint47_linear_186_2" x1="495.934" y1="255" x2="495.934" y2="295" gradientUnits="userSpaceOnUse">
<stop stop-color="#32344B"/>
<stop offset="0.307292" stop-color="#282941"/>
<stop offset="1" stop-color="#434566"/>
</linearGradient>
<linearGradient id="paint48_linear_186_2" x1="495.934" y1="254" x2="495.934" y2="294" gradientUnits="userSpaceOnUse">
<stop stop-color="#32344B"/>
<stop offset="0.307292" stop-color="#282941"/>
<stop offset="1" stop-color="#434566"/>
</linearGradient>
<linearGradient id="paint49_linear_186_2" x1="495.934" y1="252" x2="495.934" y2="293" gradientUnits="userSpaceOnUse">
<stop stop-color="#32344B"/>
<stop offset="0.307292" stop-color="#282941"/>
<stop offset="1" stop-color="#434566"/>
</linearGradient>
<linearGradient id="paint50_linear_186_2" x1="495.934" y1="250" x2="495.934" y2="292" gradientUnits="userSpaceOnUse">
<stop stop-color="#32344B"/>
<stop offset="0.307292" stop-color="#282941"/>
<stop offset="1" stop-color="#434566"/>
</linearGradient>
<linearGradient id="paint51_linear_186_2" x1="495.934" y1="248" x2="495.934" y2="292" gradientUnits="userSpaceOnUse">
<stop stop-color="#32344B"/>
<stop offset="0.307292" stop-color="#282941"/>
<stop offset="1" stop-color="#434566"/>
</linearGradient>
<linearGradient id="paint52_linear_186_2" x1="495.934" y1="247" x2="495.934" y2="292" gradientUnits="userSpaceOnUse">
<stop stop-color="#32344B"/>
<stop offset="0.307292" stop-color="#282941"/>
<stop offset="1" stop-color="#434566"/>
</linearGradient>
<linearGradient id="paint53_linear_186_2" x1="495.934" y1="245" x2="495.934" y2="291" gradientUnits="userSpaceOnUse">
<stop stop-color="#32344B"/>
<stop offset="0.307292" stop-color="#282941"/>
<stop offset="1" stop-color="#434566"/>
</linearGradient>
<linearGradient id="paint54_linear_186_2" x1="495.934" y1="244" x2="495.934" y2="291" gradientUnits="userSpaceOnUse">
<stop stop-color="#32344B"/>
<stop offset="0.307292" stop-color="#282941"/>
<stop offset="1" stop-color="#434566"/>
</linearGradient>
<linearGradient id="paint55_linear_186_2" x1="495.934" y1="243" x2="495.934" y2="291" gradientUnits="userSpaceOnUse">
<stop stop-color="#32344B"/>
<stop offset="0.307292" stop-color="#282941"/>
<stop offset="1" stop-color="#434566"/>
</linearGradient>
<linearGradient id="paint56_linear_186_2" x1="495.934" y1="242" x2="495.934" y2="291" gradientUnits="userSpaceOnUse">
<stop stop-color="#32344B"/>
<stop offset="0.307292" stop-color="#282941"/>
<stop offset="1" stop-color="#434566"/>
</linearGradient>
<linearGradient id="paint57_linear_186_2" x1="495.934" y1="241" x2="495.934" y2="291" gradientUnits="userSpaceOnUse">
<stop stop-color="#32344B"/>
<stop offset="0.307292" stop-color="#282941"/>
<stop offset="1" stop-color="#434566"/>
</linearGradient>
<linearGradient id="paint58_linear_186_2" x1="495.934" y1="241" x2="495.934" y2="291" gradientUnits="userSpaceOnUse">
<stop stop-color="#32344B"/>
<stop offset="0.307292" stop-color="#282941"/>
<stop offset="1" stop-color="#434566"/>
</linearGradient>
<linearGradient id="paint59_linear_186_2" x1="495.934" y1="240" x2="495.934" y2="291" gradientUnits="userSpaceOnUse">
<stop stop-color="#32344B"/>
<stop offset="0.307292" stop-color="#282941"/>
<stop offset="1" stop-color="#434566"/>
</linearGradient>
<linearGradient id="paint60_linear_186_2" x1="495.934" y1="240" x2="495.934" y2="291" gradientUnits="userSpaceOnUse">
<stop stop-color="#32344B"/>
<stop offset="0.307292" stop-color="#282941"/>
<stop offset="1" stop-color="#434566"/>
</linearGradient>
<linearGradient id="paint61_linear_186_2" x1="495.934" y1="240" x2="495.934" y2="291" gradientUnits="userSpaceOnUse">
<stop stop-color="#32344B"/>
<stop offset="0.307292" stop-color="#282941"/>
<stop offset="1" stop-color="#434566"/>
</linearGradient>
<linearGradient id="paint62_linear_186_2" x1="767" y1="379" x2="1293.99" y2="381.931" gradientUnits="userSpaceOnUse">
<stop stop-color="#181928" stop-opacity="0"/>
<stop offset="0.333333" stop-color="#181928" stop-opacity="0.713542"/>
<stop offset="1" stop-color="#181928"/>
</linearGradient>
<clipPath id="clip0_186_2">
<rect width="3043" height="534" fill="white" transform="translate(-357 391)"/>
</clipPath>
</defs>
</svg>
