<svg width="1920" height="534" viewBox="0 0 1920 534" fill="none" xmlns="http://www.w3.org/2000/svg">
<path fill-rule="evenodd" clip-rule="evenodd" d="M-357 59.8821L-311.355 69.7595C-265.71 79.637 -171.884 99.3919 -80.5942 99.3919C10.6958 99.3919 104.522 79.637 195.812 50.0046C289.638 20.3723 380.928 -19.1376 472.218 10.4948C566.043 40.1272 657.333 138.902 748.623 158.657C842.449 178.412 933.739 119.147 1025.03 129.024C1118.86 138.902 1210.15 217.921 1303.97 208.044C1395.26 198.166 1486.55 99.3919 1580.38 59.8821C1671.67 20.3723 1762.96 40.1272 1856.78 69.7595C1948.07 99.3919 2039.36 138.902 2133.19 217.921C2224.48 296.941 2318.3 415.471 2409.59 435.225C2500.88 454.98 2594.71 375.961 2640.36 336.451L2686 296.941V534H2640.36C2594.71 534 2500.88 534 2409.59 534C2318.3 534 2224.48 534 2133.19 534C2039.36 534 1948.07 534 1856.78 534C1762.96 534 1671.67 534 1580.38 534C1486.55 534 1395.26 534 1303.97 534C1210.15 534 1118.86 534 1025.03 534C933.739 534 842.449 534 748.623 534C657.333 534 566.043 534 472.218 534C380.928 534 289.638 534 195.812 534C104.522 534 10.6958 534 -80.5942 534C-171.884 534 -265.71 534 -311.355 534H-357V59.8821Z" fill="url(#paint0_linear_19_255)"/>
<defs>
<linearGradient id="paint0_linear_19_255" x1="1164.5" y1="58.5093" x2="1164.5" y2="481" gradientUnits="userSpaceOnUse">
<stop stop-color="#151620"/>
<stop offset="1" stop-color="#181928"/>
</linearGradient>
</defs>
</svg>
