<svg width="457" height="353" viewBox="0 0 457 353" fill="none" xmlns="http://www.w3.org/2000/svg">
<g filter="url(#filter0_d_27_32)">
<g clip-path="url(#clip0_27_32)">
<rect x="63" y="114.026" width="279.626" height="170" rx="9" transform="rotate(-11.5246 63 114.026)" fill="url(#paint0_linear_27_32)"/>
<g filter="url(#filter1_f_27_32)">
<path d="M284.342 44.4427C299.066 38.4114 314.871 35.4604 330.78 35.7718C346.689 36.0832 362.365 39.6503 376.843 46.2532C391.32 52.8561 404.292 62.3548 414.957 74.1635C425.622 85.9722 433.756 99.8406 438.855 114.913C443.955 129.986 445.912 145.944 444.608 161.802C443.303 177.661 438.763 193.084 431.269 207.121C423.774 221.157 413.484 233.51 401.032 243.417C388.58 253.323 374.23 260.574 358.868 264.722L328.5 152.25L284.342 44.4427Z" fill="url(#paint1_linear_27_32)"/>
</g>
<g opacity="0.7" filter="url(#filter2_f_27_32)">
<path d="M210.342 -2.55725C225.066 -8.58859 240.871 -11.5396 256.78 -11.2282C272.689 -10.9168 288.365 -7.34968 302.843 -0.746782C317.32 5.85611 330.292 15.3548 340.957 27.1635C351.622 38.9722 359.756 52.8406 364.855 67.9134C369.955 82.9862 371.912 98.9439 370.608 114.802C369.303 130.661 364.763 146.084 357.269 160.121C349.774 174.157 339.484 186.51 327.032 196.417C314.58 206.323 300.23 213.574 284.868 217.722L254.5 105.25L210.342 -2.55725Z" fill="url(#paint2_linear_27_32)"/>
</g>
<g filter="url(#filter3_b_27_32)">
<path d="M301.029 90.3344C301.029 90.3344 302.163 90.6727 303.009 90.7044C303.077 90.7063 303.143 90.6901 303.202 90.6574C303.261 90.6247 303.31 90.5767 303.343 90.5188C303.487 90.2746 303.676 89.8664 303.395 89.7815C303.355 89.7693 303.313 89.7555 303.268 89.7409C302.856 89.6062 302.238 89.4042 301.43 89.7855C300.534 90.2082 300.875 90.315 301.029 90.3344Z" fill="#0DAC66"/>
<path d="M295.508 92.0386C295.508 92.0386 295.545 91.7759 295.746 91.7404C295.804 91.7301 295.89 91.7055 295.987 91.6778C296.225 91.6098 296.529 91.5228 296.657 91.5793C296.836 91.659 296.825 92.0054 296.635 92.0399C296.446 92.0744 295.453 92.1963 295.508 92.0386Z" fill="#0DAC66"/>
<path d="M273.518 109.256C273.534 109.922 274.088 109.792 274.088 109.792C274.197 109.787 274.284 109.643 274.39 109.468C274.45 109.369 274.516 109.259 274.596 109.159C274.766 108.946 274.789 108.76 274.831 108.403C274.844 108.299 274.858 108.179 274.878 108.041C274.967 107.427 275.694 107.146 275.817 107.124C275.94 107.102 275.848 107.627 275.443 108.287C275.329 108.473 275.198 108.653 275.066 108.835C274.729 109.298 274.388 109.767 274.317 110.348C274.22 111.156 274.681 111.449 274.966 111.302C275.098 111.233 275.138 111.066 275.194 110.837C275.259 110.572 275.344 110.225 275.613 109.854C275.879 109.49 275.997 109.169 276.103 108.883C276.198 108.628 276.282 108.4 276.452 108.193C276.727 107.83 276.969 107.443 277.174 107.037C277.892 104.447 281.016 100.801 281.928 99.7357C282.045 99.5994 282.126 99.5053 282.16 99.4611C282.274 99.3163 282.444 99.1665 282.609 99.0205C282.887 98.774 283.154 98.5382 283.122 98.3544C283.07 98.0617 282.878 97.9286 282.618 98.0079C282.358 98.0873 280.495 99.8558 279.136 101.402C277.777 102.947 276.652 105.627 276.491 106.19C276.33 106.753 276.179 106.416 276.092 105.925C276.038 105.622 276.095 105.429 276.154 105.231C276.19 105.107 276.227 104.981 276.238 104.826C276.268 104.419 275.726 104.817 275.602 105.073C275.564 105.151 275.482 105.25 275.388 105.362C275.176 105.616 274.905 105.941 274.961 106.257C275.041 106.711 274.851 106.98 274.474 107.348C274.096 107.715 273.503 108.591 273.518 109.256Z" fill="#0DAC66"/>
<path d="M283.348 97.5032C283.301 97.5376 283.262 97.5824 283.236 97.6338C283.209 97.6853 283.195 97.7421 283.194 97.7997C283.193 97.8358 283.2 97.8717 283.214 97.9051C283.227 97.9385 283.248 97.9689 283.274 97.9942C283.432 98.1455 283.743 97.9509 283.924 97.7193C284.105 97.4877 285.301 96.4489 285.301 96.4489C285.301 96.4489 283.895 97.0935 283.348 97.5032Z" fill="#0DAC66"/>
<path d="M275.461 112.215C275.825 112.477 275.969 112.125 275.969 112.125C276.318 111.764 276.677 110.879 276.906 110.317C276.979 110.136 277.039 109.989 277.08 109.903C277.252 109.55 278.242 107.536 278.567 106.962C278.641 106.832 278.677 106.719 278.721 106.584C278.87 106.121 279.104 105.389 281.212 102.782C283.938 99.4093 287.046 95.8579 291.47 94.9229C295.893 93.988 301.582 96.2366 301.582 96.2366C301.649 96.1944 301.707 96.1393 301.752 96.0746C301.798 96.0099 301.829 95.9369 301.846 95.86C301.862 95.7831 301.862 95.7039 301.846 95.6271C301.83 95.5503 301.799 95.4775 301.754 95.4131C296.199 93.2199 292.047 93.6328 290.119 94.3696C288.191 95.1065 286.484 96.4566 285.249 97.4658C284.058 98.4397 281.859 100.905 280.527 102.396L280.386 102.555C279.074 104.025 277.825 106.243 277.546 106.942C277.267 107.642 276.216 110.156 275.803 110.693C275.39 111.23 275.096 111.953 275.461 112.215Z" fill="#0DAC66"/>
<path d="M302.578 92.6198C296.719 91.5025 293.277 92.6273 292.292 93.0344C292.262 93.0471 292.237 93.069 292.22 93.0969C292.204 93.1248 292.197 93.1572 292.2 93.1892C292.204 93.2213 292.218 93.2513 292.24 93.2747C292.263 93.2982 292.292 93.3139 292.324 93.3195C292.63 93.3565 292.938 93.3594 293.245 93.3279C293.721 93.2917 294.183 93.2778 294.616 93.2648C295.281 93.2448 295.879 93.2268 296.36 93.1338C297.155 92.98 299.172 92.8553 300.445 93.0841C301.717 93.3129 302.253 93.4137 302.253 93.4137C302.253 93.4137 302.51 93.3925 302.654 93.0734C302.797 92.7544 302.578 92.6198 302.578 92.6198Z" fill="#0DAC66"/>
<path d="M301.877 94.7765C302.556 94.6078 302.223 93.9193 302.223 93.9193C302.223 93.9193 299.437 93.3615 297.983 93.2367C296.53 93.1118 295.906 93.8966 297.006 93.8379C297.556 93.8085 298.606 94.0858 299.602 94.3491C300.596 94.612 301.538 94.8608 301.877 94.7765Z" fill="#0DAC66"/>
<path d="M297.856 91.1637C297.829 91.1797 297.806 91.2036 297.792 91.2322C297.778 91.2608 297.773 91.2928 297.778 91.3242C297.783 91.3555 297.797 91.3847 297.818 91.4079C297.84 91.4312 297.868 91.4475 297.9 91.4548C298.237 91.532 298.773 91.6295 299.185 91.5891C299.834 91.5251 301.662 91.7589 302.564 92.0361C303.14 92.2097 303.242 91.2173 302.88 91.1578C302.685 91.1266 302.403 91.0757 302.088 91.0191C301.34 90.8844 300.41 90.717 300.048 90.7032C299.615 90.6866 298.471 90.822 297.856 91.1637Z" fill="#0DAC66"/>
<path d="M300.457 97.2377C298.821 96.6485 294.824 95.2089 289.093 97.0375C288.591 97.2005 288.213 97.6251 287.928 97.9448C287.802 98.0867 287.694 98.2079 287.601 98.2765C286.993 98.7176 286.418 99.2004 285.879 99.7214C284.796 100.805 283.824 101.991 282.978 103.263C282.133 104.56 281.261 107.146 281.056 107.781C280.85 108.416 279.929 109.917 279.65 110.308C279.371 110.7 278.89 112.549 278.57 113.862C278.249 115.174 277.545 115.125 277.496 114.193C277.448 113.262 278.873 110.358 279.23 109.757C279.587 109.156 281.353 105.364 281.415 105.062C281.477 104.76 281.127 104.748 280.881 105.156C280.77 105.34 280.49 105.956 280.181 106.632C279.804 107.459 279.385 108.378 279.184 108.711C278.819 109.316 277.369 112.954 277.369 112.954C277.369 112.954 277.219 113.738 276.748 113.575C276.277 113.412 276.311 112.84 276.705 112.135C276.874 111.834 277.497 110.501 278.172 109.056C279.072 107.128 280.067 104.998 280.205 104.843C280.29 104.749 280.458 104.641 280.664 104.509C281.046 104.265 281.56 103.936 281.921 103.449C282.118 103.184 282.308 102.864 282.504 102.532C282.862 101.928 283.243 101.286 283.729 100.87C283.889 100.734 284.093 100.486 284.355 100.169C285.331 98.9848 287.11 96.8275 290.362 95.8357C294.486 94.5781 299.34 95.5927 301.474 96.7862C301.474 96.7862 301.695 97.2769 301.245 97.4516C301.152 97.4879 300.885 97.3919 300.457 97.2377Z" fill="#0DAC66"/>
<path d="M282.28 105.811C282.28 105.811 283.587 102.845 285.275 101.214C285.922 100.589 286.456 100.045 286.9 99.5934C287.616 98.8656 288.098 98.3752 288.441 98.1645C288.473 98.1448 288.51 98.1216 288.551 98.0955L288.552 98.0951C289.223 97.6681 291.131 96.4559 295.662 96.6652C300.473 96.8874 301.294 98.2806 301.128 98.6138C300.983 98.9038 300.362 98.6952 299.437 98.3844C299.299 98.3381 299.154 98.2895 299.003 98.2399C297.841 97.858 295.697 97.3467 294.108 97.668C292.52 97.9894 289.54 99.6292 289.376 99.8608C289.212 100.092 289.094 99.547 289.611 99.3341C289.886 99.2211 290.094 99.0284 290.279 98.8576C290.443 98.7066 290.588 98.5727 290.744 98.5262C291.075 98.4271 291.574 98.2173 291.526 97.9433C291.477 97.6693 290.347 97.9086 289.81 98.2466C289.39 98.511 288.064 99.5539 287.324 100.135C287.118 100.297 286.958 100.424 286.875 100.487C286.793 100.55 286.706 100.612 286.618 100.674C286.298 100.899 285.979 101.125 285.946 101.4C285.905 101.75 285.367 102.664 285.059 102.897C284.752 103.129 283.271 104.767 283.148 105.113C283.025 105.459 282.825 105.748 282.28 105.811Z" fill="#0DAC66"/>
<path d="M286.554 102.483C285.722 103.364 285.438 103.075 285.438 103.075C285.419 102.853 286.252 102.109 286.779 101.639C286.983 101.457 287.141 101.316 287.186 101.262C287.347 101.068 287.647 101.392 287.565 101.406C287.523 101.414 287.476 101.467 287.321 101.643C287.181 101.802 286.951 102.064 286.554 102.483Z" fill="#0DAC66"/>
<path d="M287.996 102.019C287.996 102.019 287.715 101.989 288.173 101.533C288.632 101.077 291.728 98.412 294.246 98.1006C296.764 97.7892 299.915 98.733 300.49 99.074C301.065 99.415 300.863 100.334 300.708 100.308C300.684 100.304 300.581 100.259 300.416 100.187C299.507 99.789 296.711 98.5661 294.88 98.8332C292.716 99.1487 290.693 100.337 289.881 101.057L289.771 101.155C289.043 101.802 288.764 102.049 287.996 102.019Z" fill="#0DAC66"/>
<path d="M290.697 101.365C290.719 101.381 290.745 101.39 290.772 101.391C291.701 101.445 292.251 101.181 292.875 100.881C293.477 100.591 294.148 100.269 295.297 100.166C297.101 100.004 298.598 101.026 299.452 101.61C299.76 101.82 299.985 101.974 300.11 101.994C300.584 102.071 300.564 101.27 300.439 100.944C300.314 100.619 298.789 99.3878 295.573 99.2869C292.972 99.2048 291.248 100.614 290.683 101.157C290.664 101.176 290.65 101.199 290.644 101.225C290.638 101.251 290.64 101.278 290.65 101.303C290.659 101.328 290.676 101.35 290.697 101.365Z" fill="#0DAC66"/>
<path d="M294.049 101.378L293.763 101.339C293.755 101.338 293.748 101.334 293.742 101.328C293.736 101.323 293.733 101.316 293.731 101.308C293.73 101.3 293.731 101.292 293.735 101.285C293.738 101.278 293.744 101.272 293.751 101.268C294.133 101.099 295.392 100.619 296.65 100.857C297.762 101.065 298.735 101.665 299.169 101.966C299.183 101.976 299.192 101.99 299.197 102.006C299.201 102.022 299.2 102.039 299.194 102.054C299.188 102.069 299.176 102.082 299.162 102.091C299.147 102.099 299.13 102.103 299.114 102.1L294.049 101.378Z" fill="#0DAC66"/>
<path d="M278.916 115.999C279.35 116.256 279.418 115.809 279.418 115.809C279.701 115.064 279.75 114.604 279.798 114.151C279.851 113.654 279.903 113.164 280.262 112.314C280.949 110.687 280.551 109.796 280.581 110.044C280.612 110.291 279.883 111.546 279.668 111.848C279.454 112.149 278.793 114.467 278.711 114.837L278.698 114.893C278.616 115.259 278.504 115.756 278.916 115.999Z" fill="#0DAC66"/>
<path d="M280.487 117.083C280.487 117.083 280.396 117.403 280.098 117.152C279.799 116.901 279.91 116.172 280.085 115.415C280.167 115.062 280.24 114.515 280.309 113.998C280.388 113.407 280.462 112.855 280.538 112.673C280.679 112.332 280.826 113.017 280.863 113.224C280.866 113.243 280.871 113.27 280.878 113.305C280.944 113.637 281.14 114.623 280.948 115.528C280.844 116.059 280.69 116.58 280.487 117.083Z" fill="#0DAC66"/>
<path d="M281.286 118.273C281.721 118.762 281.926 118.252 281.926 118.252C282.08 117.987 282.055 117.47 282.027 117.314C282.013 117.235 281.939 117.104 281.853 116.953C281.769 116.804 281.673 116.635 281.612 116.476C281.488 116.155 281.326 115.92 281.266 116.036C281.234 116.098 281.2 116.323 281.164 116.553C281.133 116.755 281.102 116.959 281.071 117.059C280.99 117.262 280.968 117.482 281.005 117.696C281.043 117.91 281.14 118.11 281.286 118.273Z" fill="#0DAC66"/>
<path d="M282.671 118.686C282.671 118.686 282.515 118.387 282.424 118.349C282.333 118.31 282.162 118.658 282.182 118.891C282.192 119.021 282.276 119.089 282.36 119.158C282.427 119.213 282.495 119.269 282.526 119.358C282.596 119.556 282.717 119.271 282.735 119.045C282.746 118.921 282.725 118.798 282.671 118.686Z" fill="#0DAC66"/>
<path d="M283.207 108.051C282.139 109.818 282.202 111.784 282.202 111.784C282.202 111.784 282.493 112.093 282.497 111.453C282.501 110.813 283.186 109.754 283.321 109.71L283.324 109.709C283.362 109.697 283.387 109.689 283.397 109.697C283.417 109.714 283.38 109.796 283.27 110.038C283.243 110.1 283.21 110.171 283.173 110.255C282.911 110.841 282.227 114.197 282.335 115.037C282.442 115.876 282.702 115.851 282.82 115.83C282.938 115.809 283.663 112.905 283.617 112.533C283.583 112.263 283.846 111.241 284.036 110.505C284.107 110.23 284.167 109.995 284.198 109.854C284.3 109.391 284.188 109.3 284.111 109.238C284.102 109.23 284.093 109.223 284.085 109.215C284.054 109.186 283.973 109.203 283.888 109.221C283.779 109.244 283.664 109.268 283.645 109.192C283.628 109.124 283.8 108.844 283.98 108.548C284.156 108.26 284.34 107.958 284.368 107.826C284.39 107.717 284.494 107.493 284.611 107.241C284.784 106.868 284.986 106.432 284.995 106.217C285.01 105.856 284.841 105.925 284.841 105.925C284.841 105.925 284.274 106.284 283.207 108.051Z" fill="#0DAC66"/>
<path d="M285.361 111.026C285.361 111.026 285.173 111.831 284.495 111.894C284.03 111.937 284.223 111.101 284.401 110.332C284.482 109.98 284.56 109.642 284.57 109.408C284.603 108.664 285.372 105.792 285.584 105.514C285.796 105.236 286.442 104.856 286.579 105.055C286.657 105.168 286.556 105.351 286.427 105.585C286.329 105.762 286.216 105.967 286.151 106.193C286.117 106.309 286.066 106.475 286.005 106.668C285.791 107.352 285.469 108.38 285.481 108.767C285.496 109.264 285.361 111.026 285.361 111.026Z" fill="#0DAC66"/>
<path d="M285.002 112.545C285.014 112.603 285.013 112.664 285 112.723C285.169 112.474 285.32 112.214 285.452 111.945C285.779 111.331 285.783 110.617 285.706 110.144C285.63 109.672 285.923 108.777 285.923 108.777C286.755 105.374 287.374 104.582 287.597 104.296C287.622 104.264 287.641 104.239 287.656 104.217C287.806 103.994 288.782 103.673 289.066 103.651C289.258 103.636 289.213 103.851 289.145 104.184C289.112 104.345 289.073 104.534 289.052 104.738C288.989 105.364 288.833 106.289 288.722 106.482C288.611 106.674 288.173 107.587 288.2 107.962C288.223 108.281 288.189 109.313 288.159 110.216L288.159 110.217C288.154 110.378 288.148 110.535 288.144 110.683C288.113 111.659 288.4 112.951 288.467 113.006C288.534 113.061 289.72 115.07 290.018 115.707C290.316 116.344 292.083 118.627 292.553 118.987C293.023 119.346 293.065 119.582 292.717 119.915C292.369 120.248 292.106 120.152 292.106 120.152C290.54 118.941 289.475 116.657 289.013 115.665C288.84 115.295 288.751 115.104 288.752 115.217C288.753 115.631 289.477 117.36 289.834 118.054C290.169 118.705 291.352 120.174 291.571 120.446L291.601 120.483C291.691 120.596 291.399 121.275 290.864 121.156C290.328 121.037 289.081 118.901 288.806 118.25C288.532 117.598 287.46 114.26 287.3 112.189C287.188 110.892 287.23 109.586 287.425 108.297C287.454 108.082 287.613 107.628 287.769 107.185C287.91 106.783 288.048 106.391 288.082 106.195C288.104 106.069 288.138 105.897 288.174 105.715C288.255 105.297 288.348 104.827 288.333 104.745C288.312 104.627 288.188 104.634 288.08 104.705C288.017 104.746 287.864 105.207 287.715 105.651C287.609 105.969 287.506 106.28 287.44 106.423C287.313 106.699 286.959 108.036 286.762 108.779L286.761 108.781C286.714 108.959 286.676 109.103 286.652 109.19C286.529 109.64 286.854 113.624 287.472 115.886C288.09 118.147 289.687 120.708 289.947 121.018C290.112 121.199 290.223 121.422 290.267 121.662C290.284 121.759 289.604 122.35 289.417 122.355C289.229 122.36 288.944 121.323 288.855 120.983C288.766 120.642 287.249 117.397 287.148 117.729C287.047 118.06 287.905 120.209 288.108 120.615C288.151 120.701 288.231 120.829 288.328 120.982C288.691 121.557 289.277 122.484 288.892 122.834C288.404 123.276 288.19 122.794 288.19 122.794C287.198 121.337 286.615 119.647 286.501 117.893C286.464 117.686 286.342 116.259 286.31 115.838C286.279 115.417 286.118 114.017 285.992 114.04C285.903 114.055 285.887 114.178 285.855 114.424C285.843 114.522 285.828 114.639 285.805 114.777C285.723 115.26 285.993 117.471 286.126 117.98C286.259 118.489 286.634 120.364 286.616 120.75C286.603 121.026 286.466 121.61 286.36 122.066C286.318 122.245 286.28 122.405 286.257 122.518C286.192 122.837 286.281 123.32 286.34 123.638C286.355 123.717 286.368 123.786 286.376 123.84C286.401 124.056 286.382 124.276 286.318 124.485C286.254 124.694 286.148 124.888 286.005 125.056C285.649 125.46 284.965 125.666 284.951 125.583C284.944 125.545 285.041 125.228 285.153 124.865C285.279 124.455 285.423 123.986 285.457 123.788C285.485 123.624 285.588 123.333 285.691 123.043C285.822 122.675 285.952 122.306 285.932 122.191C285.896 121.985 285.709 120.313 285.713 119.971C285.718 119.629 285.444 117.952 285.328 117.951C285.211 117.95 285.055 119.555 285.036 120.091C285.016 120.627 284.69 119.938 284.575 119.661C284.447 119.302 284.402 118.92 284.443 118.541C284.468 118.399 284.46 118.13 284.451 117.85C284.44 117.495 284.429 117.122 284.484 116.97C284.514 116.886 284.584 116.776 284.665 116.646C284.85 116.352 285.096 115.961 285.086 115.564C285.071 114.991 284.833 113.648 284.833 113.648C284.833 113.648 284.125 114.669 284.306 115.199C284.487 115.729 284.455 116.187 284.264 116.55C284.073 116.913 283.902 117.414 283.964 117.766C284.026 118.117 283.901 118.396 283.729 118.276C283.557 118.157 283.253 117.295 283.173 116.84C283.092 116.385 283.872 112.966 284.02 112.604C284.037 112.562 284.052 112.524 284.065 112.488C284.171 112.213 284.208 112.117 284.626 112.203C284.687 112.21 284.745 112.229 284.798 112.26C284.85 112.291 284.895 112.332 284.93 112.381C284.966 112.43 284.99 112.486 285.002 112.545Z" fill="#0DAC66"/>
<path d="M287.002 121.923C286.947 121.924 286.893 121.935 286.843 121.956C286.792 121.978 286.747 122.008 286.708 122.047C286.67 122.086 286.64 122.132 286.619 122.182C286.599 122.232 286.588 122.285 286.589 122.339C286.582 122.615 286.653 123.004 286.707 123.294C286.732 123.432 286.754 123.547 286.761 123.619C286.77 123.719 286.739 123.904 286.709 124.077C286.673 124.285 286.64 124.478 286.685 124.49C286.768 124.512 287.268 124.296 287.471 123.954C287.674 123.611 287.827 123.168 287.749 122.775C287.67 122.383 287.438 121.846 287.002 121.923Z" fill="#0DAC66"/>
<path d="M290.794 103.396C290.909 103.466 290.639 103.94 290.639 103.94C290.639 103.94 290.153 105.71 290.023 106.07C289.893 106.431 289.164 108.951 289.586 109.858C289.955 110.65 290.018 111.526 290.068 112.222C290.075 112.324 290.082 112.423 290.09 112.516C290.15 113.247 291.51 115.263 291.75 115.536C291.989 115.808 293.857 118.072 293.857 118.072L294.548 118.624C294.548 118.624 293.947 119.595 293.051 118.889C292.154 118.183 289.736 114.534 289.118 112.654C288.501 110.775 288.501 109.349 288.516 108.921C288.523 108.721 288.673 108.156 288.836 107.539C289.022 106.836 289.225 106.065 289.257 105.689C289.316 104.983 289.823 103.647 289.981 103.383C290.139 103.119 290.678 103.326 290.794 103.396Z" fill="#0DAC66"/>
<path d="M290.886 109.011C290.842 108.646 290.846 108.277 290.897 107.912C290.986 107.432 291.035 106.651 290.656 106.548C290.278 106.445 289.705 106.669 289.928 107.928C289.997 108.322 290.041 108.739 290.087 109.183C290.189 110.16 290.305 111.264 290.738 112.515C291.369 114.335 293.413 117.425 295.622 118.818C296.936 119.646 297.318 119.79 297.641 119.911C297.862 119.995 298.055 120.067 298.498 120.34C299.591 121.013 304.51 121.056 305.807 120.656C307.104 120.255 307.345 119.581 307.366 119.345C307.387 119.109 307.139 118.766 306.985 118.964L306.984 118.964C306.829 119.164 305.996 120.235 302.663 120.098C299.325 119.961 298.318 119.337 298.106 119.204C298.001 119.138 297.418 118.735 296.829 118.327L296.829 118.326L296.827 118.325L296.826 118.324C296.234 117.914 295.637 117.5 295.513 117.421C295.266 117.265 292.691 114.845 292.622 114.455C292.605 114.36 292.805 114.559 293.173 114.925C294.317 116.063 297.08 118.814 299.992 119.365C303.841 120.095 305.111 119.62 305.772 119.271L305.872 119.219C306.497 118.889 307.09 118.577 307.049 118.35C307.007 118.11 306.907 117.632 306.663 117.676C306.575 117.691 306.368 117.831 306.106 118.006C305.637 118.321 304.994 118.753 304.567 118.789C304.287 118.812 303.947 118.783 303.583 118.752C303.082 118.709 302.534 118.662 302.03 118.743C301.159 118.881 299.13 118.158 298.615 117.816C298.539 117.765 298.415 117.705 298.25 117.623C297.301 117.156 294.968 116.007 292.227 112.159C292.227 112.159 290.914 109.766 290.886 109.011Z" fill="#0DAC66"/>
<path d="M298.281 120.661C298.463 120.595 299.532 121.064 299.532 121.064C299.532 121.064 299.98 121.495 303.55 121.276C306.506 121.095 307.058 120.427 307.258 120.185C307.299 120.134 307.326 120.103 307.355 120.097C307.527 120.067 307.703 120.678 307.654 120.912C307.604 121.145 306.778 121.604 306.258 121.748C305.938 121.836 305.675 121.868 305.086 121.941C304.716 121.987 304.217 122.048 303.493 122.149C302.246 122.306 300.98 122.205 299.777 121.853C299.687 121.823 299.479 121.878 299.268 121.935C299.086 121.983 298.901 122.033 298.786 122.028C298.539 122.019 298.34 121.692 298.263 121.358L298.252 121.31L298.244 121.275C298.174 120.976 298.115 120.722 298.281 120.661Z" fill="#0DAC66"/>
<path d="M300.24 122.378C300.24 122.378 299.452 121.997 299.264 122.239C299.077 122.481 299.151 123.09 299.898 123.131C300.238 123.15 300.774 123.192 301.291 123.233C301.907 123.281 302.497 123.328 302.698 123.33C303.068 123.335 304.124 123.321 304.909 123.182C305.387 123.098 305.836 122.884 306.187 122.716C306.413 122.608 306.599 122.519 306.726 122.497C307.051 122.439 308.006 122.27 308.023 122.065C308.037 121.907 307.909 121.647 307.831 121.49C307.808 121.441 307.789 121.402 307.78 121.379C307.743 121.282 307.477 121.363 307.306 121.498C307.135 121.632 306.072 122.184 305.565 122.312C305.059 122.44 303.665 122.721 302.383 122.642C301.663 122.6 300.947 122.512 300.24 122.378Z" fill="#0DAC66"/>
<path d="M302.02 124.473C306.195 124.376 307.489 123.124 307.489 123.124C307.489 123.124 307.872 122.901 307.576 122.624C307.344 122.407 306.938 122.668 306.557 122.913C306.452 122.98 306.348 123.046 306.252 123.101C305.803 123.353 304.701 123.596 303.853 123.715C303.006 123.835 299.767 123.379 299.512 123.338C299.344 123.311 299.101 123.121 298.922 122.982C298.832 122.911 298.758 122.854 298.719 122.837C298.604 122.789 297.846 124.57 302.02 124.473Z" fill="#0DAC66"/>
<path d="M299.534 124.583C299.534 124.583 299.118 124.396 299.162 124.649C299.207 124.901 299.478 125.269 299.91 125.383C300.255 125.491 300.622 125.516 300.979 125.454C301.42 125.415 301.865 125.46 302.288 125.586C302.659 125.695 303.956 125.951 306.005 125.189C308.054 124.428 308.48 123.85 308.556 123.681C308.632 123.512 308.533 123.252 308.443 123.043C308.354 122.834 308.186 122.753 308.018 122.967C307.85 123.181 306.81 124.475 303.772 124.822C300.733 125.168 299.534 124.583 299.534 124.583Z" fill="#0DAC66"/>
<path d="M300.917 125.811C301.57 125.523 301.889 125.831 301.889 125.831C301.889 125.831 302.11 126.383 304.248 126.196C305.894 126.052 307.39 125.04 308.143 124.532C308.368 124.38 308.526 124.273 308.602 124.247C308.934 124.135 309.138 124.394 308.834 124.915C308.53 125.437 307.394 125.984 306.837 126.221C306.462 126.381 305.576 126.608 304.858 126.792C304.512 126.88 304.204 126.959 304.012 127.015C303.42 127.189 303.25 127.15 303.093 127.056C303.061 127.037 302.925 126.986 302.734 126.915C301.986 126.635 300.397 126.041 300.917 125.811Z" fill="#0DAC66"/>
<path d="M305.136 127.149C305.136 127.149 304.116 127.342 304.193 127.549C304.269 127.755 304.827 128.086 305.271 127.916C305.347 127.887 305.483 127.838 305.658 127.774L305.66 127.773L305.663 127.772L305.666 127.771L305.668 127.77C306.523 127.459 308.294 126.816 308.689 126.521C308.813 126.428 308.933 126.349 309.042 126.278L309.042 126.277C309.352 126.074 309.571 125.93 309.53 125.698C309.474 125.383 309.316 125.027 309.108 125.146C309.077 125.164 309.004 125.221 308.897 125.304C308.301 125.765 306.647 127.046 305.136 127.149Z" fill="#0DAC66"/>
<path d="M306.318 128.366C306.295 128.24 307.353 127.691 307.353 127.691C307.619 127.623 308.546 126.924 309.013 126.572L309.014 126.571C309.144 126.473 309.239 126.402 309.273 126.379C309.343 126.331 309.423 126.298 309.507 126.283C309.591 126.269 309.677 126.272 309.759 126.293C309.859 126.34 310.06 126.809 310.069 127.08C310.076 127.285 309.527 127.522 309.087 127.712C308.947 127.772 308.818 127.828 308.722 127.876C308.549 127.962 308.321 128.131 308.088 128.303C307.78 128.53 307.462 128.765 307.255 128.823C306.89 128.926 306.34 128.492 306.318 128.366Z" fill="#0DAC66"/>
<path d="M308.731 129.21C308.62 129.295 308.49 129.351 308.352 129.376C308.214 129.4 308.072 129.391 307.939 129.351C307.467 129.213 307.578 128.951 307.928 128.706C308.164 128.541 308.523 128.319 308.808 128.143C308.945 128.058 309.066 127.983 309.147 127.931C309.396 127.77 310.031 127.399 310.143 127.482C310.256 127.566 310.455 127.804 310.446 127.896C310.436 127.987 308.731 129.21 308.731 129.21Z" fill="#0DAC66"/>
<path d="M308.763 129.775C308.78 129.876 309.519 130.108 309.519 130.108C309.797 130.111 311.222 129.47 311.161 129.124C311.1 128.779 310.684 128.515 310.684 128.515C310.684 128.515 309.392 129.313 309.185 129.35C308.979 129.386 308.745 129.674 308.763 129.775Z" fill="#0DAC66"/>
<path d="M311.416 130.551C311.416 130.551 311.059 130.692 310.828 130.655C310.703 130.634 310.556 130.554 310.434 130.487C310.329 130.43 310.243 130.382 310.202 130.39C310.113 130.405 310.375 130.164 310.609 130.115C310.77 130.081 310.988 129.97 311.152 129.886C311.228 129.847 311.293 129.814 311.335 129.797C311.471 129.743 311.683 129.9 311.724 130.134C311.765 130.367 311.416 130.551 311.416 130.551Z" fill="#0DAC66"/>
<path d="M292.752 103.321C292.765 103.397 292.439 103.845 292.439 103.845C292.125 104.365 291.834 105.727 291.856 106.05C291.878 106.373 292.169 107.232 292.399 107.742C292.499 107.963 292.738 108.614 293.001 109.33L293.001 109.33C293.342 110.259 293.723 111.297 293.894 111.653C294.071 112.021 294.5 112.608 294.846 113.082C295.094 113.422 295.3 113.704 295.34 113.804C295.435 114.045 297.856 115.782 298.164 115.848C298.284 115.874 298.669 116.092 299.144 116.362C299.883 116.783 300.841 117.327 301.365 117.465C302.226 117.69 304.722 117.678 305.177 117.632C305.632 117.586 305.359 117.929 305.359 117.929C303.651 118.564 301.348 118.847 298.865 117.546C293.765 114.872 292.38 111.783 291.454 108.716C290.528 105.649 291.303 103.204 291.626 103.073C291.949 102.942 292.738 103.246 292.752 103.321Z" fill="#0DAC66"/>
<path d="M294.06 103.902C294.06 103.902 294.464 103.716 294.457 103.578C294.45 103.439 294.325 103.131 293.761 103.138C293.198 103.144 292.738 103.623 292.536 104.654C292.335 105.685 292.87 107.705 293.565 108.888C293.841 109.358 293.993 109.809 294.15 110.278C294.39 110.99 294.643 111.742 295.363 112.66C295.531 112.874 295.675 113.058 295.798 113.217C296.558 114.191 296.581 114.22 296.927 114.395C297.223 114.544 298.334 115.286 299.025 115.748L299.026 115.748C299.273 115.913 299.467 116.043 299.55 116.096C299.865 116.298 301.47 116.977 301.755 116.927C302.041 116.876 302.083 116.405 302.028 116.191C301.972 115.977 301.918 115.867 301.525 115.919C301.132 115.972 300.462 115.437 300.462 115.437C300.462 115.437 298.037 113.872 297.85 113.802C297.663 113.732 295.654 112.145 295.616 111.928C295.577 111.711 295.553 111.372 295.721 111.532C295.739 111.549 295.77 111.58 295.812 111.62C296.152 111.951 297.199 112.969 297.864 113.387C298.611 113.857 300.943 115.197 301.47 115.31C301.996 115.424 302.219 115.401 302.185 115.011C302.152 114.621 302.356 114.397 302.58 114.478C302.804 114.559 304.486 115.154 304.957 115.02C305.212 114.947 305.501 114.667 305.748 114.427C305.957 114.224 306.137 114.049 306.242 114.054C306.47 114.066 305.968 114.875 305.785 115.028C305.602 115.181 306.02 115.365 306.093 115.386C306.232 115.433 306.383 115.435 306.523 115.392C306.663 115.349 306.787 115.263 306.874 115.147C307.192 114.764 307.152 114.342 306.811 113.801C306.607 113.476 306.44 113.017 306.314 112.668C306.23 112.435 306.163 112.252 306.115 112.191C306.099 112.17 306.083 112.147 306.066 112.124C305.963 111.979 305.863 111.837 305.771 112.252L305.761 112.298C305.652 112.793 305.45 113.717 304.296 113.987C303.105 114.265 301.756 114.335 300.131 113.641C298.506 112.947 296.516 111.96 294.444 108.339C292.373 104.718 294.06 103.902 294.06 103.902Z" fill="#0DAC66"/>
<path fill-rule="evenodd" clip-rule="evenodd" d="M305.068 110.388C305.13 110.363 305.199 110.359 305.264 110.378C305.36 110.429 305.535 110.893 305.564 111.06C305.594 111.227 305.826 112.839 304.279 113.47C302.994 113.993 301.788 113.605 301.05 113.368C300.9 113.32 300.768 113.277 300.66 113.25C300.02 113.092 298.44 112.152 297.654 111.655C296.867 111.158 295.98 109.889 295.67 109.325C295.602 109.201 295.512 109.045 295.409 108.866C295.041 108.23 294.507 107.304 294.215 106.523C293.933 105.772 294.05 105.358 294.141 105.035C294.171 104.929 294.199 104.832 294.208 104.737C294.245 104.353 295.055 103.694 295.403 103.496C295.752 103.297 296.136 103.794 296.142 103.927C296.148 104.06 296.16 104.564 296.16 104.564C296.177 105.18 296.908 106.124 297.549 106.95L297.619 107.041C298.275 107.888 300.38 109.715 301.863 110.209C303.056 110.606 303.869 109.297 304.225 108.724C304.312 108.584 304.372 108.488 304.403 108.472C304.562 108.388 304.814 109.116 304.747 109.626C304.68 110.136 304.873 110.635 304.922 110.519C304.954 110.46 305.005 110.414 305.068 110.388ZM297.782 110.9L297.783 110.901C297.921 111.044 298.024 111.151 298.047 111.172C298.125 111.247 299.346 111.974 299.346 111.974C299.331 111.787 298.799 111.245 298.25 110.809C297.807 110.485 297.336 110.2 296.842 109.958C296.911 109.995 297.447 110.552 297.782 110.9ZM301.159 111.89C301.544 112.086 302.121 112.38 303.181 112.23C304.476 112.048 304.678 111.338 304.6 111.25C304.522 111.163 304.287 111.203 304.058 111.346C304.043 111.355 304.026 111.367 304.007 111.38C303.721 111.57 302.904 112.111 301.449 111.464C299.896 110.773 298.023 109.373 297.761 109.023C297.711 108.957 297.611 108.843 297.479 108.694C296.908 108.047 295.751 106.735 295.63 105.807C295.63 105.807 295.41 105.245 295.403 105.109C295.397 104.973 294.995 105.267 295.112 105.53C295.228 105.793 296.313 108.007 296.637 108.431C296.961 108.855 297.688 109.408 298.568 110.037C298.915 110.285 299.296 110.585 299.654 110.866C300.202 111.298 300.696 111.686 300.929 111.78C300.998 111.808 301.074 111.846 301.159 111.89Z" fill="#0DAC66"/>
<path fill-rule="evenodd" clip-rule="evenodd" d="M304.038 107.398C303.962 107.411 303.861 107.512 303.759 107.614C303.595 107.779 303.427 107.948 303.351 107.759C303.291 107.611 303.32 107.359 303.355 107.066C303.391 106.755 303.433 106.397 303.378 106.07C303.272 105.436 302.928 104.277 302.517 103.731C302.107 103.185 301.73 102.736 301.26 103.143C300.831 103.516 301.059 103.721 301.309 103.946C301.332 103.967 301.356 103.988 301.379 104.009C301.403 104.032 301.432 104.058 301.463 104.086L301.463 104.086C301.773 104.366 302.358 104.893 302.479 105.575C302.611 106.325 302.674 107.364 302.397 107.479C302.12 107.595 301.369 107.489 300.622 107.123C299.875 106.756 298.675 106.006 298.426 105.759C298.176 105.511 297.628 104.902 297.727 104.768C297.825 104.634 298.001 104.547 298.227 104.834C298.453 105.12 299.515 105.895 299.79 106.071C299.823 106.092 299.863 106.118 299.91 106.148L299.912 106.149C300.257 106.37 300.932 106.803 301.198 106.922C301.231 106.937 301.266 106.953 301.302 106.97C301.586 107.105 301.918 107.262 302.093 106.848C302.289 106.383 302.139 105.431 301.871 105.101C301.603 104.771 301.146 104.216 301.013 104.077C300.88 103.937 300.629 103.705 300.268 103.94C299.907 104.175 299.996 104.469 300.134 104.565C300.167 104.588 300.233 104.623 300.316 104.667C300.581 104.806 301.016 105.034 301.095 105.255C301.111 105.302 301.131 105.354 301.151 105.407C301.258 105.686 301.38 106.006 301.144 105.831C301.024 105.743 300.822 105.565 300.616 105.383C300.339 105.14 300.055 104.89 299.957 104.845C299.787 104.766 298.55 104.296 298.55 104.296C298.55 104.296 297.115 103.982 297.007 103.864C296.899 103.747 296.616 103.761 296.952 104.509C297.001 104.617 297.049 104.728 297.097 104.84C297.386 105.507 297.7 106.232 298.282 106.732C298.839 107.212 298.969 107.466 299.096 107.714C299.124 107.768 299.151 107.822 299.183 107.878C299.361 108.19 300.793 109.674 302.328 109.763C303.671 109.841 304.002 108.507 304.107 108.084C304.122 108.023 304.132 107.982 304.14 107.965C304.205 107.834 304.242 107.362 304.038 107.398ZM302.812 108.659C302.819 108.89 302.518 108.86 302.237 108.832C302.086 108.817 301.94 108.802 301.85 108.829C301.592 108.905 300.992 108.538 300.605 108.225C300.218 107.911 299.897 107.58 299.99 107.512C300.036 107.478 300.182 107.567 300.372 107.683C300.563 107.8 300.799 107.944 301.022 108.017C301.069 108.032 301.117 108.049 301.167 108.065C301.593 108.208 302.122 108.384 302.448 108.281C302.811 108.165 302.812 108.659 302.812 108.659Z" fill="#0DAC66"/>
<path d="M307.003 115.752C306.978 115.609 307.218 115.223 307.218 115.223C307.459 115.122 307.523 115.395 307.568 115.588C307.574 115.615 307.58 115.641 307.586 115.664L307.59 115.679C307.638 115.856 307.672 115.986 307.517 116.122C307.358 116.262 307.236 116.217 307.216 116.074C307.207 116.001 307.159 115.956 307.11 115.911C307.063 115.867 307.016 115.823 307.003 115.752Z" fill="#0DAC66"/>
<path d="M307.719 116.378C307.719 116.378 307.445 116.623 307.505 116.841C307.532 116.943 307.542 117.041 307.551 117.132C307.562 117.237 307.572 117.332 307.606 117.413C307.67 117.564 307.93 117.536 307.98 117.347C307.991 117.304 308.005 117.264 308.019 117.225C308.067 117.093 308.108 116.977 308.003 116.819C307.951 116.741 307.922 116.629 307.896 116.532C307.853 116.372 307.821 116.251 307.719 116.378Z" fill="#0DAC66"/>
<path d="M307.97 118.707C307.968 118.888 308.338 118.512 308.338 118.512L308.342 118.509C308.538 118.335 308.665 118.222 308.387 117.864C308.191 117.611 308.154 117.662 308.101 117.734C308.079 117.764 308.054 117.799 308.012 117.816C307.908 117.859 307.938 118.236 307.958 118.499C307.965 118.587 307.971 118.662 307.97 118.707Z" fill="#0DAC66"/>
<path d="M308.767 118.976C308.767 118.976 308.807 118.531 308.53 118.849C308.42 118.974 308.336 119.04 308.279 119.086C308.191 119.155 308.164 119.176 308.196 119.289C308.248 119.477 308.374 119.764 308.542 119.687C308.565 119.677 308.59 119.668 308.617 119.658C308.786 119.599 308.993 119.525 308.767 118.976Z" fill="#0DAC66"/>
<path d="M308.735 120.455C308.639 120.161 309.118 119.83 309.118 119.83C309.22 119.746 309.254 119.897 309.295 120.078C309.317 120.176 309.341 120.283 309.379 120.366C309.487 120.603 309.365 120.945 309.252 120.971C309.14 120.997 308.831 120.749 308.735 120.455Z" fill="#0DAC66"/>
</g>
</g>
</g>
<g filter="url(#filter4_d_27_32)">
<path d="M97.5555 146.285L95.9056 138.366L98.6739 137.79C99.2255 137.675 99.7003 137.675 100.098 137.791C100.496 137.905 100.816 138.103 101.057 138.386C101.299 138.667 101.46 139 101.54 139.387C101.611 139.727 101.609 140.021 101.534 140.268C101.462 140.514 101.341 140.722 101.172 140.892C101.006 141.061 100.815 141.2 100.601 141.309L100.618 141.386C100.863 141.351 101.124 141.386 101.401 141.489C101.679 141.593 101.93 141.772 102.155 142.026C102.38 142.281 102.536 142.617 102.623 143.034C102.706 143.431 102.69 143.807 102.575 144.162C102.461 144.516 102.229 144.827 101.878 145.094C101.528 145.36 101.04 145.559 100.417 145.688L97.5555 146.285ZM98.3371 145.234L100.239 144.838C100.866 144.707 101.285 144.494 101.498 144.197C101.712 143.896 101.783 143.572 101.71 143.224C101.655 142.956 101.535 142.723 101.351 142.525C101.166 142.324 100.934 142.181 100.653 142.097C100.371 142.011 100.058 142.003 99.7122 142.075L97.7635 142.481L98.3371 145.234ZM97.5895 141.646L99.368 141.276C99.6567 141.216 99.9053 141.105 100.114 140.943C100.325 140.781 100.477 140.582 100.57 140.347C100.667 140.112 100.686 139.855 100.628 139.577C100.555 139.229 100.373 138.959 100.08 138.767C99.7866 138.573 99.377 138.531 98.8512 138.64L97.0417 139.017L97.5895 141.646Z" fill="white" fill-opacity="0.6"/>
<path d="M106.29 144.61C105.913 144.688 105.557 144.689 105.221 144.611C104.884 144.53 104.597 144.374 104.36 144.141C104.123 143.905 103.964 143.594 103.883 143.207C103.813 142.867 103.822 142.577 103.912 142.338C104.002 142.096 104.146 141.891 104.345 141.723C104.544 141.555 104.772 141.414 105.031 141.298C105.291 141.179 105.555 141.073 105.824 140.979C106.175 140.858 106.46 140.762 106.68 140.692C106.901 140.619 107.057 140.542 107.148 140.461C107.241 140.38 107.273 140.266 107.242 140.119L107.235 140.088C107.156 139.707 106.99 139.432 106.737 139.264C106.487 139.096 106.152 139.055 105.731 139.143C105.296 139.234 104.974 139.4 104.766 139.643C104.559 139.885 104.427 140.125 104.372 140.362L103.441 140.233C103.521 139.84 103.668 139.516 103.884 139.262C104.102 139.004 104.356 138.803 104.646 138.659C104.938 138.512 105.234 138.407 105.533 138.345C105.724 138.305 105.948 138.283 106.205 138.278C106.464 138.27 106.724 138.311 106.985 138.402C107.248 138.492 107.487 138.662 107.7 138.91C107.913 139.159 108.069 139.519 108.167 139.991L108.983 143.904L108.07 144.094L107.903 143.29L107.856 143.299C107.821 143.441 107.747 143.6 107.633 143.777C107.519 143.954 107.353 144.119 107.135 144.272C106.917 144.426 106.635 144.538 106.29 144.61ZM106.258 143.761C106.619 143.686 106.908 143.552 107.126 143.359C107.347 143.165 107.497 142.942 107.576 142.692C107.658 142.441 107.674 142.192 107.622 141.944L107.448 141.109C107.419 141.163 107.343 141.224 107.22 141.29C107.098 141.353 106.955 141.416 106.791 141.48C106.629 141.54 106.47 141.598 106.315 141.652C106.161 141.703 106.037 141.745 105.942 141.778C105.711 141.858 105.5 141.955 105.308 142.067C105.118 142.177 104.975 142.313 104.877 142.476C104.781 142.636 104.757 142.831 104.806 143.063C104.872 143.381 105.039 143.596 105.307 143.709C105.578 143.82 105.895 143.837 106.258 143.761Z" fill="white" fill-opacity="0.6"/>
<path d="M109.911 135.448L111.56 143.366L110.648 143.557L108.998 135.638L109.911 135.448Z" fill="white" fill-opacity="0.6"/>
<path d="M115.008 142.793C114.632 142.872 114.276 142.872 113.939 142.794C113.603 142.714 113.316 142.557 113.079 142.324C112.842 142.088 112.683 141.777 112.602 141.391C112.531 141.05 112.541 140.761 112.631 140.521C112.72 140.279 112.864 140.075 113.063 139.907C113.262 139.739 113.491 139.597 113.749 139.481C114.01 139.363 114.274 139.256 114.542 139.163C114.893 139.041 115.179 138.945 115.398 138.876C115.62 138.802 115.776 138.726 115.866 138.645C115.96 138.564 115.991 138.449 115.961 138.302L115.954 138.272C115.875 137.89 115.708 137.615 115.456 137.448C115.205 137.279 114.87 137.239 114.45 137.326C114.014 137.417 113.693 137.584 113.485 137.826C113.277 138.068 113.146 138.308 113.09 138.546L112.16 138.417C112.239 138.024 112.387 137.7 112.603 137.445C112.821 137.187 113.075 136.986 113.365 136.842C113.657 136.695 113.953 136.591 114.252 136.529C114.442 136.489 114.666 136.466 114.923 136.461C115.182 136.453 115.443 136.494 115.704 136.585C115.967 136.675 116.205 136.845 116.419 137.094C116.632 137.342 116.788 137.703 116.886 138.174L117.701 142.087L116.789 142.277L116.621 141.473L116.575 141.483C116.54 141.624 116.465 141.784 116.352 141.961C116.238 142.138 116.072 142.303 115.854 142.456C115.635 142.609 115.354 142.721 115.008 142.793ZM114.977 141.945C115.338 141.869 115.627 141.735 115.845 141.542C116.065 141.348 116.215 141.126 116.295 140.875C116.377 140.624 116.392 140.375 116.341 140.127L116.167 139.292C116.138 139.347 116.062 139.407 115.938 139.473C115.817 139.536 115.674 139.599 115.51 139.663C115.348 139.724 115.189 139.781 115.033 139.835C114.88 139.886 114.755 139.928 114.66 139.961C114.429 140.042 114.218 140.138 114.027 140.251C113.837 140.36 113.693 140.496 113.595 140.659C113.5 140.819 113.476 141.015 113.524 141.247C113.59 141.564 113.757 141.779 114.026 141.893C114.296 142.003 114.613 142.02 114.977 141.945Z" fill="white" fill-opacity="0.6"/>
<path d="M119.535 137.977L120.279 141.55L119.367 141.74L118.129 135.801L119.011 135.618L119.204 136.545L119.281 136.529C119.358 136.199 119.519 135.912 119.764 135.67C120.009 135.426 120.356 135.257 120.804 135.163C121.206 135.079 121.575 135.089 121.911 135.191C122.247 135.29 122.533 135.489 122.769 135.786C123.006 136.081 123.177 136.482 123.282 136.987L124.068 140.76L123.156 140.95L122.382 137.239C122.285 136.772 122.088 136.434 121.792 136.224C121.495 136.012 121.135 135.95 120.712 136.038C120.421 136.098 120.173 136.216 119.97 136.39C119.77 136.563 119.629 136.785 119.548 137.055C119.467 137.324 119.463 137.632 119.535 137.977Z" fill="white" fill-opacity="0.6"/>
<path d="M128.174 140.034C127.617 140.15 127.11 140.118 126.653 139.939C126.196 139.76 125.812 139.462 125.499 139.046C125.186 138.63 124.968 138.125 124.845 137.532C124.719 136.929 124.719 136.374 124.845 135.866C124.972 135.356 125.209 134.929 125.554 134.585C125.901 134.238 126.343 134.009 126.879 133.897C127.297 133.81 127.689 133.809 128.056 133.894C128.424 133.979 128.743 134.138 129.015 134.372C129.287 134.606 129.488 134.903 129.616 135.263L128.704 135.454C128.578 135.197 128.373 134.99 128.09 134.831C127.809 134.669 127.467 134.63 127.065 134.714C126.71 134.788 126.417 134.946 126.188 135.187C125.96 135.425 125.807 135.728 125.727 136.094C125.649 136.457 125.657 136.863 125.751 137.311C125.846 137.77 126.002 138.155 126.217 138.465C126.435 138.774 126.696 138.996 127.001 139.129C127.308 139.261 127.642 139.289 128.003 139.214C128.24 139.165 128.447 139.079 128.623 138.956C128.799 138.833 128.938 138.681 129.04 138.498C129.142 138.315 129.198 138.11 129.21 137.882L130.122 137.691C130.144 138.053 130.082 138.395 129.937 138.718C129.794 139.039 129.573 139.316 129.275 139.55C128.979 139.781 128.612 139.943 128.174 140.034Z" fill="white" fill-opacity="0.6"/>
<path d="M134.333 138.751C133.761 138.87 133.241 138.846 132.773 138.68C132.308 138.511 131.915 138.222 131.596 137.812C131.279 137.399 131.057 136.889 130.93 136.281C130.803 135.672 130.802 135.113 130.927 134.603C131.054 134.09 131.29 133.661 131.636 133.318C131.983 132.971 132.425 132.742 132.961 132.63C133.27 132.566 133.586 132.554 133.909 132.594C134.232 132.634 134.542 132.744 134.838 132.925C135.133 133.103 135.393 133.366 135.619 133.714C135.845 134.062 136.016 134.514 136.131 135.068L136.212 135.454L131.634 136.408L131.47 135.62L135.12 134.859C135.05 134.524 134.92 134.239 134.732 134.004C134.545 133.768 134.314 133.6 134.037 133.499C133.763 133.397 133.462 133.381 133.132 133.45C132.768 133.526 132.473 133.681 132.245 133.917C132.019 134.15 131.865 134.424 131.783 134.739C131.7 135.055 131.693 135.377 131.762 135.704L131.871 136.23C131.965 136.678 132.121 137.042 132.341 137.322C132.563 137.599 132.83 137.789 133.142 137.893C133.453 137.995 133.794 138.008 134.162 137.931C134.402 137.881 134.611 137.802 134.791 137.695C134.972 137.585 135.119 137.446 135.233 137.28C135.346 137.111 135.419 136.916 135.453 136.694L136.387 136.757C136.356 137.076 136.255 137.371 136.083 137.644C135.911 137.913 135.677 138.145 135.381 138.339C135.084 138.529 134.735 138.667 134.333 138.751Z" fill="white" fill-opacity="0.6"/>
<path d="M120.322 233.868C117.585 234.438 116.354 236.788 117.106 240.397C117.858 244.005 119.925 245.668 122.662 245.098C125.431 244.521 126.621 242.131 125.879 238.569C125.136 235.007 123.091 233.291 120.322 233.868ZM122.406 243.869C120.571 244.252 119.064 243.251 118.413 240.125C117.761 236.998 118.743 235.479 120.578 235.097C122.414 234.714 123.921 235.715 124.572 238.841C125.223 241.968 124.242 243.487 122.406 243.869Z" fill="white" fill-opacity="0.4"/>
<path d="M130.803 231.684C128.065 232.255 126.835 234.605 127.587 238.213C128.339 241.822 130.405 243.484 133.143 242.914C135.911 242.337 137.101 239.947 136.359 236.385C135.617 232.823 133.572 231.107 130.803 231.684ZM132.887 241.685C131.052 242.068 129.545 241.067 128.893 237.941C128.242 234.815 129.224 233.295 131.059 232.913C132.894 232.531 134.401 233.531 135.053 236.657C135.704 239.784 134.722 241.303 132.887 241.685Z" fill="white" fill-opacity="0.4"/>
<path d="M141.284 229.5C138.546 230.071 137.315 232.421 138.067 236.029C138.819 239.638 140.886 241.301 143.623 240.73C146.392 240.153 147.582 237.763 146.84 234.201C146.098 230.64 144.052 228.924 141.284 229.5ZM143.367 239.502C141.532 239.884 140.025 238.883 139.374 235.757C138.722 232.631 139.704 231.112 141.54 230.729C143.375 230.347 144.882 231.347 145.533 234.474C146.185 237.6 145.203 239.119 143.367 239.502Z" fill="white" fill-opacity="0.4"/>
<path d="M151.764 227.317C149.027 227.887 147.796 230.237 148.548 233.846C149.3 237.454 151.367 239.117 154.104 238.546C156.873 237.97 158.062 235.579 157.32 232.018C156.578 228.456 154.533 226.74 151.764 227.317ZM153.848 237.318C152.013 237.7 150.506 236.7 149.854 233.573C149.203 230.447 150.185 228.928 152.02 228.545C153.855 228.163 155.362 229.164 156.014 232.29C156.665 235.416 155.683 236.935 153.848 237.318Z" fill="white" fill-opacity="0.4"/>
<path d="M166.999 224.142C164.261 224.713 163.031 227.063 163.783 230.671C164.535 234.28 166.601 235.942 169.339 235.372C172.107 234.795 173.297 232.405 172.555 228.843C171.813 225.281 169.768 223.565 166.999 224.142ZM169.083 234.143C167.247 234.526 165.741 233.525 165.089 230.399C164.438 227.273 165.42 225.753 167.255 225.371C169.09 224.989 170.597 225.989 171.249 229.115C171.9 232.242 170.918 233.761 169.083 234.143Z" fill="white" fill-opacity="0.4"/>
<path d="M177.48 221.958C174.742 222.529 173.511 224.879 174.263 228.487C175.015 232.096 177.082 233.759 179.819 233.188C182.588 232.611 183.778 230.221 183.036 226.659C182.293 223.098 180.248 221.382 177.48 221.958ZM179.563 231.96C177.728 232.342 176.221 231.341 175.57 228.215C174.918 225.089 175.9 223.57 177.736 223.187C179.571 222.805 181.078 223.805 181.729 226.932C182.381 230.058 181.399 231.577 179.563 231.96Z" fill="white" fill-opacity="0.4"/>
<path d="M187.96 219.775C185.223 220.345 183.992 222.695 184.744 226.303C185.496 229.912 187.563 231.575 190.3 231.004C193.069 230.428 194.258 228.037 193.516 224.476C192.774 220.914 190.729 219.198 187.96 219.775ZM190.044 229.776C188.209 230.158 186.702 229.158 186.05 226.031C185.399 222.905 186.381 221.386 188.216 221.003C190.051 220.621 191.558 221.622 192.21 224.748C192.861 227.874 191.879 229.393 190.044 229.776Z" fill="white" fill-opacity="0.4"/>
<path d="M198.441 217.591C195.703 218.161 194.473 220.511 195.224 224.12C195.976 227.728 198.043 229.391 200.781 228.821C203.549 228.244 204.739 225.854 203.997 222.292C203.255 218.73 201.209 217.014 198.441 217.591ZM200.525 227.592C198.689 227.974 197.182 226.974 196.531 223.847C195.88 220.721 196.861 219.202 198.697 218.82C200.532 218.437 202.039 219.438 202.69 222.564C203.342 225.69 202.36 227.209 200.525 227.592Z" fill="white" fill-opacity="0.4"/>
<path d="M213.676 214.416C210.938 214.987 209.707 217.337 210.459 220.945C211.211 224.554 213.278 226.217 216.015 225.646C218.784 225.069 219.974 222.679 219.232 219.117C218.489 215.556 216.444 213.84 213.676 214.416ZM215.759 224.417C213.924 224.8 212.417 223.799 211.766 220.673C211.114 217.547 212.096 216.028 213.932 215.645C215.767 215.263 217.274 216.263 217.925 219.39C218.577 222.516 217.595 224.035 215.759 224.417Z" fill="white" fill-opacity="0.4"/>
<path d="M224.156 212.233C221.419 212.803 220.188 215.153 220.94 218.761C221.692 222.37 223.759 224.033 226.496 223.462C229.265 222.886 230.454 220.495 229.712 216.934C228.97 213.372 226.925 211.656 224.156 212.233ZM226.24 222.234C224.405 222.616 222.898 221.616 222.246 218.489C221.595 215.363 222.577 213.844 224.412 213.461C226.247 213.079 227.754 214.08 228.406 217.206C229.057 220.332 228.075 221.851 226.24 222.234Z" fill="white" fill-opacity="0.4"/>
<path d="M234.637 210.049C231.899 210.619 230.669 212.969 231.42 216.578C232.172 220.186 234.239 221.849 236.977 221.279C239.745 220.702 240.935 218.312 240.193 214.75C239.451 211.188 237.405 209.472 234.637 210.049ZM236.721 220.05C234.885 220.432 233.378 219.432 232.727 216.305C232.076 213.179 233.057 211.66 234.893 211.278C236.728 210.895 238.235 211.896 238.886 215.022C239.538 218.148 238.556 219.667 236.721 220.05Z" fill="white" fill-opacity="0.4"/>
<path d="M245.117 207.865C242.38 208.435 241.149 210.785 241.901 214.394C242.653 218.002 244.72 219.665 247.457 219.095C250.226 218.518 251.416 216.128 250.673 212.566C249.931 209.004 247.886 207.288 245.117 207.865ZM247.201 217.866C245.366 218.248 243.859 217.248 243.208 214.122C242.556 210.995 243.538 209.476 245.373 209.094C247.209 208.711 248.715 209.712 249.367 212.838C250.018 215.965 249.036 217.484 247.201 217.866Z" fill="white" fill-opacity="0.4"/>
<path d="M260.352 204.691C257.615 205.261 256.384 207.611 257.136 211.219C257.888 214.828 259.955 216.491 262.692 215.92C265.461 215.344 266.65 212.953 265.908 209.392C265.166 205.83 263.121 204.114 260.352 204.691ZM262.436 214.692C260.601 215.074 259.094 214.073 258.442 210.947C257.791 207.821 258.773 206.302 260.608 205.919C262.443 205.537 263.95 206.537 264.602 209.664C265.253 212.79 264.271 214.309 262.436 214.692Z" fill="white" fill-opacity="0.4"/>
<path d="M270.833 202.507C268.095 203.077 266.865 205.427 267.616 209.036C268.368 212.644 270.435 214.307 273.173 213.737C275.941 213.16 277.131 210.77 276.389 207.208C275.647 203.646 273.601 201.93 270.833 202.507ZM272.917 212.508C271.081 212.89 269.574 211.89 268.923 208.763C268.272 205.637 269.253 204.118 271.089 203.736C272.924 203.353 274.431 204.354 275.082 207.48C275.734 210.606 274.752 212.125 272.917 212.508Z" fill="white" fill-opacity="0.4"/>
<path d="M281.313 200.323C278.576 200.893 277.345 203.243 278.097 206.852C278.849 210.46 280.916 212.123 283.653 211.553C286.422 210.976 287.612 208.586 286.869 205.024C286.127 201.462 284.082 199.746 281.313 200.323ZM283.397 210.324C281.562 210.706 280.055 209.706 279.404 206.58C278.752 203.453 279.734 201.934 281.569 201.552C283.405 201.169 284.911 202.17 285.563 205.296C286.214 208.422 285.232 209.942 283.397 210.324Z" fill="white" fill-opacity="0.4"/>
<path d="M291.794 198.139C289.056 198.71 287.826 201.06 288.578 204.668C289.329 208.276 291.396 209.939 294.134 209.369C296.902 208.792 298.092 206.402 297.35 202.84C296.608 199.278 294.562 197.562 291.794 198.139ZM293.878 208.14C292.042 208.523 290.536 207.522 289.884 204.396C289.233 201.269 290.214 199.75 292.05 199.368C293.885 198.985 295.392 199.986 296.043 203.112C296.695 206.239 295.713 207.758 293.878 208.14Z" fill="white" fill-opacity="0.4"/>
<path d="M107.041 174.089C106.238 174.247 105.498 174.25 104.819 174.098C104.144 173.946 103.578 173.659 103.121 173.24C102.664 172.82 102.361 172.291 102.212 171.653L104.308 171.24C104.388 171.545 104.543 171.794 104.774 171.988C105.005 172.178 105.287 172.306 105.62 172.371C105.953 172.437 106.311 172.432 106.694 172.357C107.103 172.276 107.451 172.134 107.739 171.931C108.027 171.724 108.234 171.474 108.362 171.183C108.49 170.891 108.519 170.578 108.45 170.245C108.385 169.898 108.236 169.611 108.002 169.383C107.768 169.155 107.464 169.001 107.089 168.92C106.717 168.839 106.29 168.846 105.807 168.941L104.798 169.14L104.484 167.545L105.493 167.347C105.891 167.268 106.225 167.131 106.495 166.935C106.769 166.738 106.967 166.498 107.089 166.216C107.21 165.929 107.236 165.621 107.167 165.291C107.107 164.967 106.98 164.701 106.784 164.492C106.592 164.279 106.348 164.132 106.054 164.051C105.764 163.969 105.441 163.963 105.084 164.034C104.735 164.102 104.424 164.229 104.151 164.414C103.879 164.599 103.675 164.827 103.539 165.097C103.402 165.363 103.359 165.657 103.411 165.979L101.421 166.371C101.31 165.729 101.383 165.131 101.641 164.578C101.902 164.021 102.303 163.549 102.844 163.16C103.385 162.768 104.025 162.499 104.765 162.353C105.526 162.203 106.216 162.216 106.834 162.392C107.454 162.563 107.966 162.858 108.369 163.277C108.772 163.695 109.03 164.195 109.144 164.774C109.275 165.417 109.191 165.993 108.894 166.503C108.601 167.012 108.159 167.395 107.568 167.65L107.586 167.739C108.41 167.693 109.084 167.869 109.607 168.268C110.132 168.662 110.463 169.217 110.6 169.931C110.726 170.57 110.657 171.179 110.392 171.756C110.13 172.328 109.71 172.82 109.131 173.232C108.555 173.642 107.859 173.928 107.041 174.089ZM114.885 170.761L114.934 171.388C114.974 171.867 114.975 172.361 114.936 172.87C114.902 173.383 114.852 173.858 114.788 174.295C114.724 174.732 114.67 175.077 114.627 175.329L113.266 175.597C113.274 175.36 113.284 175.037 113.296 174.629C113.312 174.221 113.315 173.765 113.305 173.261C113.294 172.757 113.254 172.252 113.185 171.744L113.101 171.112L114.885 170.761ZM116.807 169.803L116.484 168.159L119.821 159.55L121.192 159.28L121.653 161.622L120.817 161.786L118.573 167.596L118.591 167.686L125.353 166.354L125.688 168.054L116.807 169.803ZM122.671 170.849L122.155 168.229L122.033 167.488L120.445 159.427L122.396 159.043L124.645 170.46L122.671 170.849ZM132.015 169.171C131.212 169.329 130.471 169.332 129.793 169.18C129.118 169.027 128.552 168.741 128.095 168.321C127.638 167.902 127.335 167.373 127.186 166.734L129.282 166.321C129.361 166.626 129.516 166.875 129.748 167.069C129.978 167.259 130.26 167.387 130.593 167.453C130.927 167.519 131.285 167.514 131.668 167.438C132.076 167.358 132.425 167.216 132.713 167.012C133 166.805 133.208 166.556 133.336 166.264C133.464 165.973 133.493 165.66 133.423 165.326C133.359 164.98 133.21 164.693 132.976 164.465C132.741 164.237 132.437 164.082 132.062 164.002C131.691 163.92 131.264 163.927 130.781 164.023L129.772 164.221L129.458 162.627L130.467 162.428C130.864 162.35 131.198 162.213 131.468 162.017C131.742 161.82 131.94 161.58 132.062 161.297C132.183 161.011 132.21 160.703 132.141 160.373C132.081 160.049 131.953 159.782 131.758 159.574C131.565 159.361 131.322 159.214 131.028 159.133C130.738 159.051 130.414 159.045 130.057 159.115C129.708 159.184 129.397 159.311 129.125 159.496C128.852 159.681 128.648 159.908 128.512 160.178C128.375 160.444 128.333 160.739 128.385 161.06L126.394 161.452C126.283 160.81 126.357 160.213 126.615 159.66C126.876 159.103 127.277 158.63 127.818 158.242C128.358 157.85 128.998 157.581 129.738 157.435C130.5 157.285 131.19 157.298 131.807 157.473C132.428 157.645 132.939 157.94 133.342 158.358C133.745 158.777 134.004 159.276 134.118 159.856C134.248 160.498 134.165 161.074 133.868 161.585C133.574 162.094 133.132 162.476 132.542 162.732L132.559 162.821C133.384 162.774 134.058 162.951 134.58 163.35C135.106 163.744 135.437 164.298 135.574 165.013C135.699 165.652 135.63 166.26 135.365 166.837C135.104 167.41 134.683 167.902 134.104 168.313C133.529 168.724 132.832 169.01 132.015 169.171ZM142.112 167.182C141.368 167.329 140.676 167.32 140.034 167.157C139.391 166.99 138.848 166.696 138.406 166.273C137.968 165.85 137.675 165.325 137.528 164.697L139.535 164.302C139.664 164.763 139.942 165.106 140.369 165.331C140.795 165.552 141.266 165.612 141.782 165.51C142.188 165.43 142.53 165.266 142.809 165.018C143.088 164.77 143.286 164.463 143.403 164.096C143.52 163.729 143.535 163.335 143.448 162.912C143.367 162.48 143.2 162.115 142.949 161.817C142.697 161.519 142.391 161.307 142.03 161.182C141.669 161.052 141.278 161.029 140.858 161.111C140.516 161.175 140.192 161.304 139.887 161.499C139.581 161.695 139.353 161.917 139.201 162.167L137.274 162.228L136.711 156.224L143.333 154.92L143.674 156.648L138.762 157.615L139.03 160.707L139.097 160.694C139.259 160.403 139.518 160.138 139.872 159.898C140.226 159.655 140.633 159.488 141.094 159.397C141.785 159.261 142.434 159.303 143.041 159.523C143.648 159.74 144.163 160.101 144.587 160.608C145.011 161.116 145.295 161.735 145.44 162.467C145.588 163.222 145.546 163.929 145.313 164.589C145.083 165.244 144.693 165.801 144.143 166.261C143.595 166.716 142.918 167.023 142.112 167.182ZM148.952 165.8C148.614 165.867 148.301 165.805 148.012 165.615C147.724 165.425 147.548 165.158 147.484 164.815C147.415 164.482 147.477 164.172 147.672 163.887C147.867 163.601 148.133 163.425 148.471 163.359C148.799 163.294 149.106 163.357 149.395 163.547C149.687 163.737 149.868 163.999 149.937 164.332C149.978 164.56 149.959 164.778 149.881 164.986C149.806 165.194 149.686 165.372 149.523 165.52C149.362 165.664 149.172 165.757 148.952 165.8ZM155.961 164.455C155.158 164.613 154.417 164.616 153.739 164.464C153.064 164.311 152.498 164.025 152.041 163.605C151.584 163.186 151.281 162.657 151.132 162.018L153.228 161.605C153.307 161.91 153.463 162.159 153.694 162.353C153.924 162.543 154.206 162.671 154.54 162.737C154.873 162.802 155.231 162.798 155.614 162.722C156.023 162.642 156.371 162.5 156.659 162.296C156.946 162.089 157.154 161.84 157.282 161.548C157.41 161.257 157.439 160.944 157.369 160.61C157.305 160.264 157.156 159.977 156.922 159.749C156.688 159.521 156.383 159.366 156.008 159.286C155.637 159.204 155.21 159.211 154.727 159.306L153.718 159.505L153.404 157.911L154.413 157.712C154.81 157.634 155.144 157.497 155.415 157.3C155.689 157.104 155.887 156.864 156.008 156.581C156.13 156.295 156.156 155.987 156.087 155.657C156.027 155.333 155.899 155.066 155.704 154.858C155.511 154.645 155.268 154.498 154.974 154.416C154.684 154.335 154.36 154.329 154.004 154.399C153.654 154.468 153.343 154.595 153.071 154.78C152.798 154.965 152.594 155.192 152.458 155.462C152.322 155.728 152.279 156.022 152.331 156.344L150.341 156.736C150.23 156.094 150.303 155.497 150.561 154.944C150.822 154.387 151.223 153.914 151.764 153.526C152.305 153.133 152.945 152.865 153.684 152.719C154.446 152.569 155.136 152.582 155.753 152.757C156.374 152.929 156.886 153.223 157.289 153.642C157.691 154.061 157.95 154.56 158.064 155.14C158.194 155.782 158.111 156.358 157.814 156.868C157.52 157.378 157.078 157.76 156.488 158.016L156.505 158.105C157.33 158.058 158.004 158.234 158.526 158.633C159.052 159.028 159.383 159.582 159.52 160.297C159.646 160.936 159.576 161.544 159.312 162.121C159.05 162.694 158.63 163.186 158.05 163.597C157.475 164.008 156.778 164.294 155.961 164.455ZM161.435 161.014L161.111 159.369L164.448 150.761L165.819 150.491L166.28 152.833L165.444 152.997L163.201 158.807L163.218 158.897L169.98 157.565L170.315 159.265L161.435 161.014ZM167.298 162.06L166.782 159.44L166.66 158.699L165.072 150.638L167.023 150.254L169.272 161.671L167.298 162.06ZM177.985 159.955L175.778 160.39L177.548 148.181L180.102 147.678L186.375 158.303L184.167 158.737L179.331 150.262L179.242 150.28L177.985 159.955ZM177.176 155.464L183.197 154.279L183.524 155.94L177.503 157.126L177.176 155.464ZM191.748 157.245L187.879 158.007L185.63 146.589L189.577 145.812C190.711 145.589 191.73 145.626 192.633 145.923C193.54 146.215 194.297 146.743 194.903 147.508C195.509 148.273 195.929 149.248 196.163 150.434C196.397 151.623 196.377 152.688 196.103 153.63C195.833 154.571 195.328 155.352 194.59 155.973C193.855 156.592 192.907 157.016 191.748 157.245ZM189.595 155.81L191.295 155.475C192.09 155.318 192.725 155.043 193.199 154.648C193.673 154.25 193.987 153.734 194.14 153.102C194.293 152.466 194.283 151.711 194.111 150.838C193.939 149.964 193.663 149.266 193.281 148.743C192.9 148.215 192.419 147.86 191.838 147.677C191.261 147.49 190.586 147.472 189.813 147.625L188.051 147.972L189.595 155.81ZM199.254 155.766L197.006 144.349L199.074 143.942L200.107 149.188L200.246 149.16L203.667 143.037L206.193 142.54L202.787 148.533L208.48 153.949L205.994 154.439L201.624 150.215L200.653 151.958L201.322 155.359L199.254 155.766Z" fill="white"/>
</g>
<g filter="url(#filter5_d_27_32)">
<path d="M215 71.6602C123.272 30.7786 61.1196 38.4072 40.8869 76.4511C18.3057 118.911 83.8958 197.949 187.387 252.988C290.877 308.027 393.079 318.224 415.66 275.765C429.987 248.825 403.321 202.988 359.5 162.071" stroke="url(#paint3_linear_27_32)" shape-rendering="crispEdges"/>
</g>
<g filter="url(#filter6_d_27_32)">
<path d="M181.5 80.6602C82.6801 62.7732 33.0238 82.0711 22.4222 123.836C10.59 170.449 93.0995 231.615 206.712 260.455C320.325 289.294 422.019 274.886 433.851 228.273C441.358 198.699 403.297 160.389 351.001 131.071" stroke="url(#paint4_linear_27_32)" shape-rendering="crispEdges"/>
</g>
<g filter="url(#filter7_f_27_32)">
<circle cx="214" cy="69.1602" r="9" fill="#151623"/>
</g>
<g filter="url(#filter8_f_27_32)">
<circle cx="179.5" cy="77.6602" r="7.5" fill="#151623"/>
</g>
<defs>
<filter id="filter0_d_27_32" x="33" y="58.1604" width="367.953" height="288.439" filterUnits="userSpaceOnUse" color-interpolation-filters="sRGB">
<feFlood flood-opacity="0" result="BackgroundImageFix"/>
<feColorMatrix in="SourceAlpha" type="matrix" values="0 0 0 0 0 0 0 0 0 0 0 0 0 0 0 0 0 0 127 0" result="hardAlpha"/>
<feOffset dy="36"/>
<feGaussianBlur stdDeviation="15"/>
<feComposite in2="hardAlpha" operator="out"/>
<feColorMatrix type="matrix" values="0 0 0 0 0.0936806 0 0 0 0 0.0977214 0 0 0 0 0.158333 0 0 0 1 0"/>
<feBlend mode="normal" in2="BackgroundImageFix" result="effect1_dropShadow_27_32"/>
<feBlend mode="normal" in="SourceGraphic" in2="effect1_dropShadow_27_32" result="shape"/>
</filter>
<filter id="filter1_f_27_32" x="219.342" y="-29.2505" width="290.658" height="358.972" filterUnits="userSpaceOnUse" color-interpolation-filters="sRGB">
<feFlood flood-opacity="0" result="BackgroundImageFix"/>
<feBlend mode="normal" in="SourceGraphic" in2="BackgroundImageFix" result="shape"/>
<feGaussianBlur stdDeviation="32.5" result="effect1_foregroundBlur_27_32"/>
</filter>
<filter id="filter2_f_27_32" x="145.342" y="-76.2505" width="290.658" height="358.972" filterUnits="userSpaceOnUse" color-interpolation-filters="sRGB">
<feFlood flood-opacity="0" result="BackgroundImageFix"/>
<feBlend mode="normal" in="SourceGraphic" in2="BackgroundImageFix" result="shape"/>
<feGaussianBlur stdDeviation="32.5" result="effect1_foregroundBlur_27_32"/>
</filter>
<filter id="filter3_b_27_32" x="254.518" y="70.5654" width="76.2095" height="79.0955" filterUnits="userSpaceOnUse" color-interpolation-filters="sRGB">
<feFlood flood-opacity="0" result="BackgroundImageFix"/>
<feGaussianBlur in="BackgroundImage" stdDeviation="9.5"/>
<feComposite in2="SourceAlpha" operator="in" result="effect1_backgroundBlur_27_32"/>
<feBlend mode="normal" in="SourceGraphic" in2="effect1_backgroundBlur_27_32" result="shape"/>
</filter>
<filter id="filter4_d_27_32" x="65.9056" y="132.571" width="261.661" height="178.637" filterUnits="userSpaceOnUse" color-interpolation-filters="sRGB">
<feFlood flood-opacity="0" result="BackgroundImageFix"/>
<feColorMatrix in="SourceAlpha" type="matrix" values="0 0 0 0 0 0 0 0 0 0 0 0 0 0 0 0 0 0 127 0" result="hardAlpha"/>
<feOffset dy="36"/>
<feGaussianBlur stdDeviation="15"/>
<feComposite in2="hardAlpha" operator="out"/>
<feColorMatrix type="matrix" values="0 0 0 0 0 0 0 0 0 0 0 0 0 0 0 0 0 0 0.25 0"/>
<feBlend mode="normal" in2="BackgroundImageFix" result="effect1_dropShadow_27_32"/>
<feBlend mode="normal" in="SourceGraphic" in2="effect1_dropShadow_27_32" result="shape"/>
</filter>
<filter id="filter5_d_27_32" x="29.9377" y="43.7764" width="396.116" height="274.703" filterUnits="userSpaceOnUse" color-interpolation-filters="sRGB">
<feFlood flood-opacity="0" result="BackgroundImageFix"/>
<feColorMatrix in="SourceAlpha" type="matrix" values="0 0 0 0 0 0 0 0 0 0 0 0 0 0 0 0 0 0 127 0" result="hardAlpha"/>
<feOffset dy="10"/>
<feGaussianBlur stdDeviation="3"/>
<feComposite in2="hardAlpha" operator="out"/>
<feColorMatrix type="matrix" values="0 0 0 0 0.0875 0 0 0 0 0.0914063 0 0 0 0 0.15 0 0 0 1 0"/>
<feBlend mode="normal" in2="BackgroundImageFix" result="effect1_dropShadow_27_32"/>
<feBlend mode="normal" in="SourceGraphic" in2="effect1_dropShadow_27_32" result="shape"/>
</filter>
<filter id="filter6_d_27_32" x="14.7928" y="73.4861" width="426.505" height="218.33" filterUnits="userSpaceOnUse" color-interpolation-filters="sRGB">
<feFlood flood-opacity="0" result="BackgroundImageFix"/>
<feColorMatrix in="SourceAlpha" type="matrix" values="0 0 0 0 0 0 0 0 0 0 0 0 0 0 0 0 0 0 127 0" result="hardAlpha"/>
<feOffset dy="10"/>
<feGaussianBlur stdDeviation="3"/>
<feComposite in2="hardAlpha" operator="out"/>
<feColorMatrix type="matrix" values="0 0 0 0 0.0875 0 0 0 0 0.0914063 0 0 0 0 0.15 0 0 0 1 0"/>
<feBlend mode="normal" in2="BackgroundImageFix" result="effect1_dropShadow_27_32"/>
<feBlend mode="normal" in="SourceGraphic" in2="effect1_dropShadow_27_32" result="shape"/>
</filter>
<filter id="filter7_f_27_32" x="196" y="51.1602" width="36" height="36" filterUnits="userSpaceOnUse" color-interpolation-filters="sRGB">
<feFlood flood-opacity="0" result="BackgroundImageFix"/>
<feBlend mode="normal" in="SourceGraphic" in2="BackgroundImageFix" result="shape"/>
<feGaussianBlur stdDeviation="4.5" result="effect1_foregroundBlur_27_32"/>
</filter>
<filter id="filter8_f_27_32" x="164" y="62.1602" width="31" height="31" filterUnits="userSpaceOnUse" color-interpolation-filters="sRGB">
<feFlood flood-opacity="0" result="BackgroundImageFix"/>
<feBlend mode="normal" in="SourceGraphic" in2="BackgroundImageFix" result="shape"/>
<feGaussianBlur stdDeviation="4" result="effect1_foregroundBlur_27_32"/>
</filter>
<linearGradient id="paint0_linear_27_32" x1="202.813" y1="114.026" x2="202.813" y2="284.026" gradientUnits="userSpaceOnUse">
<stop stop-color="#04CA73"/>
<stop offset="1" stop-color="#0C3022"/>
</linearGradient>
<linearGradient id="paint1_linear_27_32" x1="328.5" y1="35.7495" x2="328.5" y2="268.75" gradientUnits="userSpaceOnUse">
<stop stop-color="#72EEFF"/>
<stop offset="1" stop-color="#48FFFF"/>
</linearGradient>
<linearGradient id="paint2_linear_27_32" x1="363" y1="-7.66125" x2="254.5" y2="221.75" gradientUnits="userSpaceOnUse">
<stop stop-color="#72F57F"/>
<stop offset="0.510417" stop-color="#96FF72"/>
<stop offset="1" stop-color="#98E6FF"/>
</linearGradient>
<linearGradient id="paint3_linear_27_32" x1="40.8869" y1="76.4511" x2="440" y2="284.071" gradientUnits="userSpaceOnUse">
<stop/>
<stop offset="0.514525" stop-color="white" stop-opacity="0.49"/>
<stop offset="0.755208" stop-color="white" stop-opacity="0.08"/>
<stop offset="1" stop-color="white" stop-opacity="0.22"/>
</linearGradient>
<linearGradient id="paint4_linear_27_32" x1="22.4222" y1="123.836" x2="459.468" y2="230.551" gradientUnits="userSpaceOnUse">
<stop/>
<stop offset="1" stop-color="#D1D1D1" stop-opacity="0"/>
</linearGradient>
<clipPath id="clip0_27_32">
<rect x="63" y="114.026" width="279.626" height="170" rx="9" transform="rotate(-11.5246 63 114.026)" fill="white"/>
</clipPath>
</defs>
</svg>
