<svg width="1920" height="765" viewBox="0 0 1920 765" fill="none" xmlns="http://www.w3.org/2000/svg">
<path fill-rule="evenodd" clip-rule="evenodd" d="M3859.5 85.7861L3802.89 99.9364C3746.28 114.087 3629.92 142.387 3516.7 142.387C3403.48 142.387 3287.11 114.087 3173.89 71.6358C3057.53 29.185 2944.3 -27.4162 2831.08 15.0347C2714.72 57.4855 2601.5 198.988 2488.28 227.289C2371.92 255.59 2246.72 36.8844 2133.5 51.0347C2017.14 65.185 1909.5 149.535 1777 149.535C1662.9 149.535 1588.73 122.334 1456.72 75.5347C1305 21.7485 1054.86 43.3353 938.5 85.7861C825.28 128.237 721.865 184.838 605.5 298.04C492.28 411.243 462.72 474.414 349.5 502.714C236.28 531.015 68.7202 538.595 12.1101 481.994L-44.5 425.393V765H12.1101C68.7202 765 315.085 765 428.305 765C541.525 765 657.89 765 771.11 765C887.475 765 1000.7 765 1113.92 765C1230.28 765 1343.5 765 1456.72 765C1573.08 765 1686.3 765 1799.52 765C1915.89 765 2029.11 765 2145.47 765C2258.69 765 2371.92 765 2488.28 765C2601.5 765 2714.72 765 2831.08 765C2944.3 765 3057.53 765 3173.89 765C3287.11 765 3403.48 765 3516.7 765C3629.92 765 3746.28 765 3802.89 765H3859.5V85.7861Z" fill="url(#paint0_linear_25_166)"/>
<defs>
<linearGradient id="paint0_linear_25_166" x1="1907.5" y1="0" x2="1907.5" y2="765" gradientUnits="userSpaceOnUse">
<stop stop-color="#151623"/>
<stop offset="0.619792" stop-color="#181928"/>
</linearGradient>
</defs>
</svg>
