<svg width="35" height="34" viewBox="0 0 35 34" fill="none" xmlns="http://www.w3.org/2000/svg">
<path d="M25.1079 32.9789H9.29539C9.25944 32.9742 9.22303 32.9742 9.18708 32.9789C8.21148 32.923 7.2542 32.692 6.36174 32.2973C5.32604 31.8477 4.39358 31.1936 3.62123 30.3749C2.84889 29.5562 2.25284 28.5902 1.86945 27.5357C1.7376 27.2416 1.67167 26.9102 1.58691 26.6301V7.85427C1.71891 7.41622 1.87613 6.98604 2.0578 6.56583C2.70835 5.07018 3.78723 3.79662 5.16077 2.90293C6.53432 2.00924 8.14217 1.5347 9.78512 1.5381H24.6135C24.9725 1.54174 25.331 1.56669 25.6871 1.6128C27.0606 1.75667 28.3715 2.25749 29.4872 3.06463C30.6094 3.82434 31.5232 4.84897 32.1463 6.04614C32.7694 7.24332 33.0822 8.5754 33.0565 9.92232V24.6881C33.0578 26.718 32.307 28.6777 30.9467 30.195C29.5864 31.7122 27.7113 32.6813 25.6777 32.9182L25.1079 32.9789Z" stroke="#B9B9B9" stroke-width="2" stroke-miterlimit="10"/>
<path d="M24.67 17.2654C24.671 18.7294 24.2341 20.1607 23.4147 21.3786C22.5952 22.5965 21.43 23.5462 20.0662 24.1077C18.7025 24.6692 17.2014 24.8173 15.7528 24.5333C14.3042 24.2493 12.973 23.5459 11.9275 22.512C10.882 21.4781 10.1691 20.1602 9.87898 18.7248C9.58883 17.2894 9.73444 15.8009 10.2974 14.4475C10.8604 13.0941 11.8154 11.9366 13.0418 11.1211C14.2682 10.3057 15.7109 9.86899 17.1876 9.86622C18.1691 9.86438 19.1414 10.0544 20.0488 10.4253C20.9563 10.7963 21.781 11.341 22.476 12.0282C23.1709 12.7154 23.7224 13.5316 24.0989 14.4303C24.4753 15.3289 24.6694 16.2924 24.67 17.2654Z" stroke="#B9B9B9" stroke-width="2" stroke-miterlimit="10"/>
<path d="M23.7334 8.93713C23.7334 8.56781 23.8439 8.20679 24.0508 7.89971C24.2578 7.59264 24.552 7.3533 24.8962 7.21197C25.2403 7.07063 25.619 7.03365 25.9844 7.1057C26.3498 7.17776 26.6854 7.3556 26.9488 7.61675C27.2123 7.87789 27.3917 8.21062 27.4643 8.57284C27.537 8.93506 27.4997 9.31051 27.3571 9.65172C27.2146 9.99293 26.9732 10.2846 26.6634 10.4897C26.3537 10.6949 25.9895 10.8044 25.617 10.8044C25.1174 10.8044 24.6383 10.6077 24.2851 10.2575C23.9318 9.90733 23.7334 9.43237 23.7334 8.93713Z" stroke="#B9B9B9" stroke-width="2" stroke-miterlimit="10"/>
</svg>
