<svg width="120" height="16" viewBox="0 0 120 16" fill="none" xmlns="http://www.w3.org/2000/svg">
<g clip-path="url(#clip0_59_138)">
<path d="M41.9961 16C42.1425 15.561 42.3225 15.1338 42.5342 14.7221C44.3633 10.6457 46.1923 6.56927 48.0214 2.49285C48.1616 2.14378 48.3266 1.80508 48.5152 1.47934C48.9481 0.7757 49.6442 0.271584 50.4504 0.0776394C50.5349 0.0545573 50.6172 0.0251804 50.7016 0H51.8095C52.2751 0.0780422 52.7179 0.256574 53.1065 0.523035C53.4952 0.789497 53.8205 1.13741 54.0594 1.54229C54.2008 1.78151 54.3189 2.03751 54.4414 2.28932C55.6569 4.78496 56.8719 7.28551 58.086 9.79095C59.0906 11.8599 60.0938 13.9296 61.0956 16H55.9777C55.697 15.3705 55.4058 14.7242 55.1336 14.0758C55.1062 13.9729 55.042 13.8835 54.953 13.8244C54.8641 13.7652 54.7563 13.7405 54.6503 13.7548C53.0146 13.7673 51.379 13.7548 49.7435 13.7548C49.5556 13.7548 49.427 13.7548 49.5324 13.4967C50.0207 12.4307 50.5012 11.3612 50.9738 10.2883C50.9983 10.2235 51.0442 10.169 51.1042 10.1338C51.164 10.0987 51.2342 10.0851 51.3032 10.0952C51.9173 10.0952 52.5335 10.0952 53.1497 10.0952C53.3608 10.0952 53.4135 10.0574 53.3185 9.84551C53.0273 9.19082 52.7529 8.52984 52.4744 7.86885L51.5626 5.73272C51.4973 5.85652 51.4508 5.94256 51.4128 6.02229C50.4041 8.23677 49.396 10.4498 48.3886 12.6615C47.8863 13.7673 47.3903 14.8774 46.8902 15.9853L41.9961 16Z" fill="white"/>
<path d="M0 0.472127C0.0996075 0.415217 0.215494 0.393059 0.329227 0.409176H3.70591C4.03937 0.409176 4.05836 0.428063 4.05836 0.772193C4.05836 2.45928 4.05836 4.14635 4.05836 5.83344V15.1691C4.05836 15.6391 4.05836 15.6391 3.57507 15.6391H0.384099C0.253035 15.6586 0.119092 15.6381 0 15.5803V0.472127Z" fill="white"/>
<path d="M115.687 10.2692V0.813992C115.687 0.455171 115.687 0.453072 116.05 0.453072C117.21 0.453072 118.371 0.453072 119.532 0.453072C119.777 0.453072 119.844 0.530713 119.844 0.767827C119.844 4.69387 119.844 8.61779 119.844 12.5438C119.823 13.3155 119.529 14.0551 119.014 14.6326C118.498 15.2101 117.795 15.5887 117.027 15.7018C115.727 15.8781 114.705 15.3913 113.849 14.4428C112.116 12.5228 110.362 10.6238 108.619 8.71642C107.838 7.86168 107.059 7.00695 106.281 6.15222C106.217 6.08088 106.158 6.00323 106.086 5.91511C106.05 5.96071 106.025 6.01379 106.012 6.07043C105.999 6.12709 105.999 6.18587 106.013 6.24245C106.013 9.24032 106.013 12.2389 106.013 15.2381C106.013 15.6578 106.013 15.6578 105.59 15.6578C104.438 15.6578 103.286 15.6578 102.136 15.6578C101.893 15.6578 101.817 15.5823 101.817 15.343C101.817 11.4254 101.798 7.50987 101.834 3.59222C101.845 2.23459 102.547 1.22527 103.801 0.669204C105.082 0.0963517 106.314 0.281008 107.353 1.20639C108.197 1.96599 108.914 2.8641 109.687 3.70133C111 5.12612 112.3 6.55931 113.608 7.98828L115.687 10.2692Z" fill="white"/>
<path d="M71.7232 0.0481938H75.4165C75.7457 0.0481938 75.7605 0.0628823 75.7605 0.386031C75.7605 1.47998 75.7605 2.57252 75.7605 3.66367C75.7605 4.01829 75.7415 4.03718 75.389 4.03718H68.4246C67.4176 4.03501 66.4474 4.4126 65.7094 5.09376C64.9715 5.77492 64.5208 6.70898 64.4483 7.70755C64.3757 8.70612 64.6867 9.6949 65.3184 10.4745C65.9503 11.254 66.856 11.7664 67.8527 11.9081C68.0968 11.9403 68.3429 11.9557 68.5892 11.9543H75.3953C75.7542 11.9543 75.7605 11.9543 75.7605 12.3236C75.7605 13.398 75.7605 14.473 75.7605 15.5488C75.7605 15.9244 75.7457 15.9412 75.3827 15.9412C73.036 15.9412 70.687 15.979 68.3402 15.9412C66.3183 15.9203 64.3795 15.1384 62.9142 13.7529C61.449 12.3675 60.5662 10.4815 60.4437 8.47476C60.3211 6.46802 60.9679 4.48965 62.2539 2.93814C63.5396 1.38662 65.3692 0.377218 67.3737 0.113243C68.1882 0.00202987 69.007 0.0565872 69.8238 0.0502921C70.4569 0.0418987 71.09 0.0481938 71.7232 0.0481938Z" fill="url(#paint0_linear_59_138)"/>
<path d="M81.6998 0.0944824C82.755 0.0944824 83.8271 0.0944824 84.8908 0.0944824C87.571 0.119663 89.7173 1.2192 91.3169 3.34065C92.4324 4.8078 92.9787 6.62556 92.8556 8.46065C92.7499 10.2945 92.0107 12.036 90.7629 13.3905C89.5152 14.7451 87.8352 15.6299 86.0071 15.8951C85.6504 15.9427 85.2907 15.9652 84.9309 15.9624C82.6009 15.9624 80.271 15.9624 77.941 15.9624C77.557 15.9624 77.5549 15.9624 77.5549 15.5867C77.5549 14.5039 77.5549 13.4191 77.5549 12.3363C77.5549 12.0824 77.6415 12.0069 77.8904 12.0069C80.1753 12.0153 82.461 12.0153 84.7472 12.0069C85.6972 12.0199 86.6233 11.7105 87.3726 11.1298C89.1728 9.73644 89.3732 6.93304 87.7842 5.30891C87.3954 4.90197 86.9258 4.57988 86.4052 4.36313C85.8846 4.14637 85.3243 4.03971 84.7598 4.04989C82.4848 4.04989 80.2077 4.04989 77.9305 4.04989C77.5633 4.04989 77.559 4.04989 77.559 3.68688V0.457498C77.559 0.100777 77.559 0.0944824 77.9327 0.0944824H81.6998Z" fill="url(#paint1_linear_59_138)"/>
<path d="M95.3227 8.02628V0.78693C95.3227 0.407128 95.3227 0.405029 95.7005 0.405029C96.8086 0.405029 97.9166 0.405029 99.0245 0.405029C99.2692 0.405029 99.3622 0.476374 99.3622 0.732374C99.3622 5.59218 99.3622 10.4513 99.3622 15.3097C99.3622 15.5594 99.284 15.6454 99.0288 15.6433C97.9032 15.6321 96.7775 15.6321 95.652 15.6433C95.3755 15.6433 95.3144 15.5405 95.3165 15.2866C95.3306 12.8693 95.3326 10.4492 95.3227 8.02628Z" fill="white"/>
<path d="M10.7509 5.86947C10.7056 5.98264 10.6904 6.10547 10.7065 6.22619C10.7065 9.20865 10.7065 12.1897 10.7065 15.1694C10.7065 15.6394 10.7065 15.6394 10.2233 15.6394H6.90987C6.53843 15.6394 6.53421 15.6394 6.53421 15.2806C6.53421 11.4098 6.53421 7.53766 6.53421 3.66409C6.53147 3.00151 6.7291 2.35342 7.10144 1.8039C7.47379 1.2544 8.00364 0.828856 8.62227 0.582506C9.24088 0.336156 9.9197 0.280374 10.5706 0.422401C11.2215 0.564426 11.8145 0.897703 12.2725 1.37897C13.9608 3.19615 15.6238 5.03431 17.2973 6.86409C18.2429 7.89929 19.1905 8.93307 20.1401 9.96547C20.1909 10.02 20.2267 10.0977 20.3237 10.1081C20.4018 10.0074 20.366 9.89831 20.366 9.78291C20.366 6.82002 20.366 3.85643 20.366 0.892155C20.366 0.409532 20.366 0.409532 20.862 0.409532H24.1837C24.5446 0.409532 24.5468 0.409532 24.5468 0.778843C24.5468 4.6692 24.5468 8.55957 24.5468 12.4499C24.5424 13.1147 24.3345 13.7623 23.9506 14.3066C23.5669 14.8509 23.0253 15.2661 22.3983 15.4967C21.7758 15.7256 21.099 15.7661 20.4533 15.613C19.8076 15.4599 19.2221 15.1201 18.7705 14.6364L13.5556 8.94147L10.9471 6.0919L10.7509 5.86947Z" fill="white"/>
<path d="M26.5953 7.97795V0.453227C26.5953 0.0335552 26.5953 0.0335552 27.0173 0.0335552C29.628 0.0335552 32.2386 0.0335552 34.8492 0.0335552C36.9164 0.00161136 38.9159 0.765924 40.4292 2.16651C41.9424 3.56711 42.8522 5.49539 42.9681 7.54778C43.0662 9.2585 42.6057 10.955 41.6548 12.384C40.7039 13.8131 39.3139 14.8982 37.692 15.4775C36.8573 15.7848 35.9756 15.946 35.0856 15.9539C32.3779 15.9539 29.6702 15.9539 26.9625 15.9539C26.6101 15.9539 26.5953 15.9391 26.5953 15.5803C26.5939 13.0483 26.5939 10.5142 26.5953 7.97795ZM30.6558 8.00104C30.6558 9.20759 30.6558 10.4142 30.6558 11.6186C30.6558 11.8662 30.7254 11.9522 30.9828 11.9502C32.2934 11.9397 33.6019 11.9355 34.9125 11.9502C35.966 11.9705 36.9843 11.5739 37.7435 10.8476C38.5029 10.1214 38.941 9.12499 38.9614 8.07762C38.9818 7.03025 38.5829 6.01771 37.8525 5.26275C37.1222 4.50778 36.1199 4.07222 35.0666 4.05191C33.7117 4.05191 32.3589 4.05191 31.004 4.05191C30.6621 4.05191 30.6601 4.05191 30.6601 4.41073L30.6558 8.00104Z" fill="white"/>
</g>
<defs>
<linearGradient id="paint0_linear_59_138" x1="68.0948" y1="0.0423584" x2="63.78" y2="14.0424" gradientUnits="userSpaceOnUse">
<stop stop-color="#3463F8"/>
<stop offset="1" stop-color="#214FDF"/>
</linearGradient>
<linearGradient id="paint1_linear_59_138" x1="85.2137" y1="0.0944822" x2="77.6072" y2="14.4396" gradientUnits="userSpaceOnUse">
<stop stop-color="#3463F8"/>
<stop offset="1" stop-color="#214FDF"/>
</linearGradient>
<clipPath id="clip0_59_138">
<rect width="120" height="16" fill="white"/>
</clipPath>
</defs>
</svg>
