<svg width="76" height="76" viewBox="0 0 76 76" fill="none" xmlns="http://www.w3.org/2000/svg">
<circle cx="38" cy="38" r="38" fill="#22E790"/>
<g filter="url(#filter0_b_59_44)">
<path d="M51.4372 13.3032C51.4372 13.3032 52.6985 13.9113 53.6856 14.1159C53.7642 14.1315 53.8459 14.1265 53.9217 14.1013C53.9975 14.0761 54.0646 14.0317 54.1157 13.973C54.3355 13.7261 54.6424 13.3032 54.3295 13.1512C54.2853 13.1295 54.2385 13.1055 54.1891 13.0801C53.7334 12.846 53.0496 12.4947 52.0219 12.7638C50.8826 13.0621 51.2608 13.2507 51.4372 13.3032Z" fill="#181928"/>
<path d="M44.6023 14.1251C44.6023 14.1251 44.7002 13.8359 44.9431 13.8359C45.0135 13.8359 45.1195 13.8253 45.2393 13.8134C45.5324 13.7841 45.908 13.7466 46.0461 13.8359C46.2406 13.9616 46.1548 14.3502 45.9253 14.3514C45.6957 14.3525 44.5045 14.2919 44.6023 14.1251Z" fill="#181928"/>
<path d="M15.2142 29.1689C15.0946 29.9233 15.7724 29.8867 15.7724 29.8867C15.9009 29.9035 16.0329 29.7583 16.1933 29.5819C16.2847 29.4814 16.3853 29.3707 16.4997 29.2741C16.7437 29.068 16.8083 28.8627 16.9325 28.4679C16.9688 28.3525 17.0102 28.2208 17.0627 28.0682C17.2947 27.3939 18.2068 27.2213 18.3554 27.2213C18.504 27.2213 18.2878 27.7951 17.6752 28.4591C17.5029 28.646 17.3114 28.8234 17.1188 29.0017C16.6272 29.457 16.129 29.9185 15.9258 30.5599C15.6431 31.4526 16.124 31.8755 16.4888 31.7658C16.6578 31.715 16.7405 31.5342 16.8534 31.2873C16.9844 31.0011 17.1559 30.6261 17.5496 30.2616C17.9367 29.9032 18.1424 29.5652 18.3258 29.2637C18.4899 28.9941 18.6362 28.7537 18.8786 28.554C19.2772 28.199 19.6411 27.8107 19.9659 27.3939C21.3466 24.6144 25.7706 21.1225 27.0631 20.1023C27.2285 19.9718 27.3426 19.8817 27.3925 19.8388C27.5561 19.698 27.786 19.5628 28.0102 19.4309C28.3884 19.2083 28.7505 18.9954 28.7505 18.7815C28.7505 18.4409 28.5523 18.2523 28.2309 18.29C27.9096 18.3277 25.3555 19.9519 23.4394 21.4252C21.5232 22.8985 19.6458 25.6977 19.3401 26.3012C19.0344 26.9047 18.9269 26.4943 18.9269 25.9229C18.9269 25.5705 19.0335 25.3641 19.1432 25.1516C19.2115 25.0194 19.2809 24.8848 19.3268 24.7113C19.4464 24.2587 18.7276 24.5993 18.5282 24.8633C18.4673 24.944 18.3505 25.0387 18.2176 25.1465C17.9155 25.3915 17.5303 25.7039 17.5303 26.0714C17.5303 26.6006 17.2512 26.8658 16.7317 27.2053C16.2122 27.5447 15.3338 28.4146 15.2142 29.1689Z" fill="#181928"/>
<path d="M29.1925 17.866C29.1301 17.8955 29.0758 17.9383 29.0338 17.9911C28.9919 18.0438 28.9635 18.1051 28.9508 18.17C28.9424 18.2106 28.9428 18.2524 28.9519 18.2929C28.9611 18.3333 28.9788 18.3716 29.004 18.4055C29.1587 18.6078 29.5634 18.45 29.8243 18.2249C30.0853 17.9997 31.7042 17.0659 31.7042 17.0659C31.7042 17.0659 29.9198 17.5128 29.1925 17.866Z" fill="#181928"/>
<path d="M16.8806 32.8951C17.2539 33.2631 17.4955 32.8951 17.4955 32.8951C17.981 32.5569 18.5862 31.6303 18.9707 31.0415C19.0943 30.8522 19.1951 30.6978 19.2618 30.6091C19.5361 30.2445 21.1164 28.17 21.6178 27.5871C21.7314 27.4549 21.7973 27.335 21.8766 27.1905C22.1472 26.6977 22.5745 25.9193 25.5902 23.3969C29.4901 20.1349 33.8758 16.7471 39.2629 16.5745C44.6501 16.4019 50.8613 20.0743 50.8613 20.0743C50.9491 20.0401 51.0287 19.9895 51.0954 19.9256C51.1621 19.8616 51.2144 19.7855 51.2493 19.702C51.2841 19.6184 51.3008 19.529 51.2983 19.4392C51.2957 19.3494 51.2741 19.261 51.2346 19.1793C45.1684 15.5961 40.2089 15.2338 37.7926 15.6807C35.3763 16.1276 33.0917 17.3106 31.4329 18.2032C29.8322 19.0646 26.7387 21.4075 24.8662 22.8256L24.6672 22.9763C22.8223 24.373 20.8953 26.627 20.4229 27.3608C19.9505 28.0946 18.195 30.7223 17.5982 31.2458C17.0014 31.7693 16.5072 32.5271 16.8806 32.8951Z" fill="#181928"/>
<path d="M52.7821 16.1915C46.1348 13.7615 41.8615 14.3445 40.6207 14.6073C40.5827 14.6156 40.5485 14.6353 40.5232 14.6635C40.4979 14.6917 40.483 14.7268 40.4805 14.7637C40.4781 14.8006 40.4883 14.8372 40.5096 14.8681C40.531 14.8991 40.5623 14.9227 40.599 14.9354C40.9498 15.0381 41.3117 15.103 41.6779 15.1285C42.2442 15.1827 42.7892 15.2591 43.3008 15.3309C44.0849 15.4409 44.7907 15.5399 45.3749 15.5309C46.3402 15.516 48.7347 15.7778 50.1809 16.2898C51.6271 16.8019 52.2348 17.0225 52.2348 17.0225C52.2348 17.0225 52.5417 17.0499 52.776 16.7184C53.0104 16.387 52.7821 16.1915 52.7821 16.1915Z" fill="#181928"/>
<path d="M51.511 18.4855C52.3434 18.4306 52.0946 17.5871 52.0946 17.5871C52.0946 17.5871 48.9401 16.4018 47.2595 15.9709C45.579 15.54 44.6837 16.3012 45.9873 16.4544C46.6397 16.5311 47.8141 17.0534 48.9289 17.5493C50.0417 18.0443 51.0952 18.5129 51.511 18.4855Z" fill="#181928"/>
<path d="M47.5409 13.6062C47.5049 13.6188 47.4738 13.6413 47.4514 13.6708C47.4291 13.7002 47.4166 13.7354 47.4156 13.7717C47.4145 13.8079 47.425 13.8437 47.4456 13.8743C47.4662 13.9049 47.496 13.9289 47.5312 13.9433C47.9106 14.0976 48.5207 14.3148 49.0124 14.3514C49.7868 14.4085 51.8854 15.0372 52.8858 15.5298C53.5261 15.8407 53.8523 14.7411 53.4391 14.6017C53.217 14.5276 52.896 14.4139 52.5385 14.2872C51.6882 13.9859 50.6316 13.6116 50.2097 13.5239C49.7047 13.4187 48.3334 13.3433 47.5409 13.6062Z" fill="#181928"/>
<path d="M49.3331 20.9797C47.5349 19.9884 43.141 17.5663 36.0337 18.4866C35.411 18.5705 34.8788 18.9742 34.478 19.2782C34.3002 19.413 34.1482 19.5283 34.0257 19.5873C33.2205 19.9638 32.4445 20.3939 31.7036 20.8743C30.2071 21.8808 28.8201 23.0256 27.5632 24.2918C26.3019 25.588 24.7422 28.3323 24.3689 29.0078C23.9955 29.6833 22.6025 31.1931 22.1942 31.5795C21.7858 31.9658 20.8374 33.9569 20.1886 35.3742C19.5399 36.7915 18.7231 36.5949 18.8597 35.5342C18.9962 34.4735 21.2724 31.48 21.816 30.8731C22.3597 30.2662 25.2194 26.3389 25.3547 26.0109C25.49 25.6828 25.0817 25.5994 24.7084 26.0109C24.5404 26.196 24.0831 26.8347 23.5805 27.5368C22.9663 28.3948 22.2841 29.3476 21.9791 29.6833C21.4246 30.2936 18.9672 34.11 18.9672 34.11C18.9672 34.11 18.6289 34.965 18.1094 34.6872C17.5899 34.4095 17.7494 33.7706 18.3583 33.0539C18.6192 32.7469 19.6261 31.3675 20.7186 29.8709C22.176 27.8744 23.7858 25.6691 23.9798 25.5228C24.0989 25.433 24.3186 25.3451 24.5884 25.2372C25.0878 25.0375 25.7591 24.7689 26.2838 24.2918C26.5701 24.0315 26.8593 23.7081 27.1586 23.3733C27.7044 22.7629 28.284 22.1146 28.9418 21.7418C29.1571 21.6198 29.4481 21.3812 29.8214 21.0752C31.2135 19.9338 33.7501 17.8541 37.7734 17.3837C42.8755 16.787 48.3629 18.9004 50.621 20.6732C50.621 20.6732 50.778 21.2709 50.2138 21.3784C50.0968 21.4007 49.8039 21.2392 49.3331 20.9797Z" fill="#181928"/>
<path d="M26.2154 27.0281C26.2154 27.0281 28.3647 23.9421 30.6856 22.4379C31.5746 21.8618 32.3143 21.3551 32.9294 20.9337C33.9202 20.255 34.5877 19.7977 35.035 19.6285C35.0768 19.6127 35.1244 19.5938 35.178 19.5725L35.179 19.5722C36.0563 19.2244 38.5474 18.2369 43.8231 19.377C49.4242 20.5875 50.0995 22.3236 49.8349 22.6665C49.6047 22.9649 48.9188 22.6055 47.8976 22.0703C47.7452 21.9905 47.5855 21.9068 47.4186 21.8207C46.1331 21.1578 43.7229 20.1531 41.791 20.1988C39.8592 20.2446 36.0208 21.5007 35.7804 21.7293C35.54 21.9579 35.5146 21.319 36.1658 21.1818C36.5114 21.109 36.7964 20.9332 37.049 20.7774C37.2724 20.6396 37.4705 20.5175 37.6627 20.496C38.0723 20.4503 38.7017 20.3131 38.7017 19.9942C38.7017 19.6754 37.3256 19.7199 36.6249 19.9942C36.0768 20.2088 34.3033 21.1212 33.3144 21.63C33.039 21.7716 32.8244 21.882 32.7141 21.9373C32.6052 21.9919 32.4895 22.0442 32.3738 22.0964C31.9518 22.2871 31.5295 22.4779 31.4347 22.782C31.3138 23.1694 30.4923 24.093 30.0827 24.2941C29.6732 24.4953 27.5951 26.0486 27.3789 26.4144C27.1626 26.7801 26.8678 27.0659 26.2154 27.0281Z" fill="#181928"/>
<path d="M31.9229 24.1261C30.7631 24.9536 30.49 24.5707 30.49 24.5707C30.5136 24.3169 31.646 23.6437 32.3622 23.2179C32.6393 23.0532 32.8544 22.9254 32.9184 22.8734C33.148 22.6871 33.4331 23.1123 33.334 23.1123C33.2822 23.1123 33.2159 23.1632 32.9984 23.3303C32.8001 23.4826 32.4761 23.7314 31.9229 24.1261Z" fill="#181928"/>
<path d="M33.7121 23.8896C33.7121 23.8896 33.3883 23.7993 34.0214 23.3764C34.6545 22.9535 38.842 20.5635 41.8624 20.7144C44.8828 20.8652 48.3865 22.5591 48.9905 23.0586C49.5946 23.5581 49.1669 24.5548 48.9905 24.4942C48.9635 24.4849 48.8521 24.4137 48.6737 24.2995C47.6889 23.6695 44.6595 21.7315 42.4544 21.6676C39.8496 21.5922 37.2279 22.5294 36.1248 23.1798L35.9753 23.2681C34.986 23.853 34.6071 24.077 33.7121 23.8896Z" fill="#181928"/>
<path d="M37.0192 23.6909C37.0415 23.713 37.0702 23.7283 37.1016 23.7352C38.1811 23.9806 38.8812 23.7922 39.6758 23.5783C40.4429 23.3719 41.298 23.1417 42.6676 23.2551C44.8196 23.4324 46.3644 24.8846 47.2463 25.7137C47.564 26.0124 47.7957 26.2302 47.9388 26.2783C48.4788 26.46 48.6226 25.5514 48.5429 25.1593C48.4631 24.7673 46.9288 23.0734 43.1738 22.3179C40.1377 21.7064 37.8216 22.9522 37.046 23.4529C37.0193 23.4699 36.9984 23.494 36.986 23.5222C36.9736 23.5503 36.9701 23.5813 36.976 23.6112C36.9819 23.6412 36.9969 23.6689 37.0192 23.6909Z" fill="#181928"/>
<path d="M40.9514 24.3741L40.624 24.2724C40.6149 24.2695 40.607 24.264 40.6014 24.2566C40.5958 24.2492 40.5928 24.2404 40.5928 24.2313C40.5928 24.2222 40.5958 24.2133 40.6014 24.2059C40.607 24.1986 40.6149 24.193 40.624 24.1901C41.1073 24.0758 42.6851 23.7855 44.1132 24.3044C45.3745 24.7616 46.393 25.6326 46.84 26.0589C46.8537 26.0727 46.8623 26.0904 46.8642 26.1093C46.8662 26.1281 46.8615 26.1471 46.8508 26.1632C46.8402 26.1792 46.8243 26.1915 46.8055 26.1981C46.7867 26.2047 46.7661 26.2051 46.747 26.1995L40.9514 24.3741Z" fill="#181928"/>
<path d="M20.1518 37.8556C20.6073 38.2316 20.7801 37.7413 20.7801 37.7413C21.2677 36.956 21.4204 36.4471 21.571 35.945C21.7361 35.3949 21.8986 34.853 22.4969 33.9649C23.641 32.2664 23.3583 31.1806 23.3426 31.4663C23.3269 31.7521 22.2105 33.0231 21.8964 33.3202C21.5823 33.6174 20.3246 36.1011 20.1518 36.5023L20.1255 36.5631C19.9529 36.96 19.7189 37.4982 20.1518 37.8556Z" fill="#181928"/>
<path d="M21.7706 39.3917C21.7706 39.3917 21.5979 39.7346 21.2995 39.3917C21.001 39.0488 21.2825 38.2488 21.645 37.4292C21.8142 37.0466 22.0137 36.4443 22.2024 35.8745C22.4179 35.2238 22.6194 34.6156 22.7456 34.4255C22.9824 34.0689 23.0126 34.8712 23.0126 35.1113C23.0126 35.1339 23.0133 35.1659 23.0142 35.2062C23.0227 35.5935 23.0479 36.7457 22.6345 37.7287C22.4028 38.3077 22.1136 38.8645 21.7706 39.3917Z" fill="#181928"/>
<path d="M22.462 40.8937C22.8716 41.5326 23.2171 40.9977 23.2171 40.9977C23.4527 40.7302 23.5313 40.1416 23.5313 39.9599C23.5313 39.8681 23.4712 39.7056 23.4017 39.5173C23.3334 39.3326 23.256 39.123 23.2171 38.9312C23.1386 38.5437 22.9973 38.2465 22.903 38.3654C22.8528 38.4288 22.7651 38.6768 22.6758 38.9292C22.5977 39.1501 22.5184 39.3743 22.462 39.4809C22.3248 39.6937 22.2521 39.9381 22.2521 40.1873C22.2521 40.4365 22.3248 40.6809 22.462 40.8937Z" fill="#181928"/>
<path d="M24.0022 41.6366C24.0022 41.6366 23.8814 41.2686 23.7824 41.2069C23.6833 41.1451 23.4102 41.5029 23.3849 41.7704C23.3708 41.9186 23.4543 42.0124 23.5386 42.107C23.6064 42.1832 23.6746 42.2598 23.693 42.3658C23.734 42.6036 23.9346 42.3064 24.0022 42.0538C24.0418 41.9173 24.0418 41.7732 24.0022 41.6366Z" fill="#181928"/>
<path d="M26.8378 29.7416C25.2177 31.5223 24.8842 33.7534 24.8842 33.7534C24.8842 33.7534 25.1609 34.1603 25.2986 33.4391C25.4363 32.7179 26.4609 31.6595 26.6276 31.6366L26.6316 31.6361C26.6785 31.6296 26.7096 31.6253 26.7198 31.6372C26.7398 31.6604 26.6793 31.7454 26.5004 31.9971C26.4552 32.0607 26.4023 32.1351 26.3412 32.2218C25.9124 32.831 24.413 36.4817 24.3647 37.451C24.3164 38.4202 24.6269 38.4431 24.7694 38.4431C24.912 38.4431 26.3666 35.3102 26.3896 34.8815C26.4063 34.5694 26.9272 33.4688 27.3024 32.676C27.4425 32.3801 27.5623 32.1269 27.6279 31.9738C27.8434 31.4714 27.7313 31.347 27.654 31.2611C27.6446 31.2506 27.6357 31.2408 27.6279 31.2309C27.5969 31.1911 27.4981 31.1941 27.3953 31.1973C27.2618 31.2014 27.1218 31.2057 27.1157 31.1166C27.1102 31.0367 27.3696 30.7542 27.6427 30.4569C27.9089 30.1671 28.1881 29.8631 28.2477 29.7187C28.2964 29.6007 28.4647 29.3689 28.6544 29.1076C28.9351 28.7209 29.2626 28.2697 29.3182 28.0282C29.4112 27.6236 29.1973 27.6682 29.1973 27.6682C29.1973 27.6682 28.4579 27.9608 26.8378 29.7416Z" fill="#181928"/>
<path d="M28.7504 33.5282C28.7504 33.5282 28.3626 34.3992 27.5531 34.3352C26.9976 34.2913 27.3979 33.3862 27.7663 32.5533C27.9347 32.1725 28.0965 31.8066 28.1572 31.5452C28.3505 30.7119 29.8486 27.6236 30.1555 27.3527C30.4623 27.0818 31.2996 26.7812 31.4192 27.0327C31.4874 27.1761 31.3304 27.3627 31.1298 27.6011C30.9787 27.7806 30.8028 27.9896 30.6798 28.2317C30.6167 28.3559 30.5213 28.5328 30.4101 28.7391C30.0171 29.4681 29.4262 30.5642 29.3593 31.0034C29.2735 31.5669 28.7504 33.5282 28.7504 33.5282Z" fill="#181928"/>
<path d="M28.0132 35.1707C28.015 35.2396 28.0017 35.3082 27.974 35.3719C28.2233 35.1245 28.4546 34.8614 28.6662 34.5844C29.1773 33.9557 29.3295 33.1511 29.338 32.6024C29.3464 32.0538 29.8756 31.1029 29.8756 31.1029C31.5592 27.428 32.4496 26.6578 32.7717 26.3793C32.807 26.3488 32.8354 26.3242 32.8573 26.3023C33.0796 26.0806 34.2914 25.9126 34.6297 25.9446C34.8577 25.9662 34.7613 26.1996 34.6118 26.5619C34.5394 26.7371 34.4546 26.9425 34.3881 27.1687C34.1839 27.8625 33.8094 28.8752 33.639 29.0706C33.4687 29.2661 32.7643 30.209 32.7184 30.6377C32.6795 31.0012 32.4249 32.16 32.2026 33.1723L32.2022 33.174C32.1626 33.3546 32.1239 33.5304 32.0877 33.6963C31.8485 34.7924 31.9174 36.3068 31.985 36.3823C32.0527 36.4577 33.0277 38.962 33.2452 39.7404C33.4626 40.5187 35.0634 43.4482 35.5407 43.9477C36.0179 44.4472 36.0179 44.7215 35.5407 45.0278C35.0634 45.3341 34.7747 45.173 34.7747 45.173C33.1867 43.4942 32.4111 40.7046 32.0741 39.4925C31.9483 39.0401 31.8836 38.8075 31.8606 38.9346C31.776 39.402 32.2665 41.4983 32.542 42.3521C32.8005 43.1533 33.8846 45.0476 34.085 45.3979L34.1126 45.4461C34.1948 45.5913 33.7115 46.2999 33.1074 46.0588C32.5033 45.8176 31.4824 43.1579 31.2952 42.3681C31.1079 41.5783 30.5425 37.5973 30.7841 35.2279C30.9226 33.7421 31.2429 32.2765 31.7386 30.8605C31.8178 30.6238 32.0992 30.143 32.3735 29.6743C32.6225 29.2489 32.8657 28.8334 32.9467 28.6192C32.9985 28.4822 33.0739 28.2946 33.1537 28.0959C33.3364 27.6411 33.5424 27.1282 33.5424 27.0327C33.5424 26.8955 33.395 26.8795 33.2536 26.9378C33.1712 26.9718 32.8955 27.4604 32.6292 27.9326C32.4385 28.2705 32.2526 28.6 32.1457 28.7483C31.9392 29.0349 31.246 30.4728 30.8603 31.2728L30.8593 31.2748C30.767 31.4663 30.6924 31.621 30.6464 31.7143C30.4084 32.1978 29.9638 36.7583 30.2199 39.434C30.476 42.1098 31.8183 45.3181 32.0599 45.7204C32.2163 45.9574 32.2999 46.2309 32.3016 46.5102C32.3016 46.6234 31.381 47.1549 31.1599 47.1229C30.9388 47.0909 30.8192 45.8645 30.7853 45.4621C30.7515 45.0598 29.6436 41.0948 29.4564 41.4491C29.2691 41.8034 29.8309 44.3991 29.9843 44.8986C30.0166 45.0037 30.0851 45.1644 30.1669 45.3565C30.474 46.0776 30.9694 47.2406 30.4446 47.5583C29.7801 47.9607 29.6291 47.3732 29.6291 47.3732C28.7664 45.5318 28.433 43.5075 28.6626 41.5051C28.6626 41.2651 28.8148 39.6295 28.8656 39.1483C28.9163 38.6671 29.0178 37.0555 28.8656 37.0555C28.7567 37.0555 28.7127 37.1911 28.6249 37.462C28.5899 37.5698 28.5479 37.6993 28.4922 37.8499C28.2965 38.3791 28.154 40.9279 28.2047 41.5291C28.2555 42.1303 28.3062 44.3203 28.2047 44.7523C28.1319 45.0621 27.8505 45.6939 27.6311 46.1863C27.5446 46.3806 27.4676 46.5534 27.417 46.676C27.2737 47.0232 27.2786 47.5863 27.2818 47.9574C27.2827 48.0493 27.2834 48.1294 27.2817 48.1916C27.2669 48.4409 27.1983 48.6848 27.08 48.9081C26.9618 49.1314 26.7965 49.3294 26.5942 49.49C26.0928 49.8752 25.2471 49.9712 25.2471 49.8752C25.2471 49.8301 25.4269 49.4925 25.6333 49.1049C25.8662 48.6676 26.133 48.1667 26.2137 47.9504C26.2809 47.7702 26.4621 47.4631 26.6435 47.1555C26.873 46.7665 27.1029 46.3768 27.1029 46.2428C27.1029 46.0028 27.2309 44.0791 27.307 43.6939C27.3832 43.3087 27.4097 41.3611 27.2732 41.3371C27.1367 41.3131 26.6208 43.0927 26.4867 43.6939C26.3526 44.2951 26.1122 43.4528 26.0349 43.1167C25.959 42.6865 25.9854 42.2457 26.1122 41.8263C26.1708 41.6711 26.2171 41.3658 26.2654 41.0482C26.3266 40.6453 26.3908 40.2226 26.4867 40.0615C26.5393 39.9732 26.644 39.8621 26.7669 39.7319C27.0444 39.4375 27.4143 39.0451 27.4846 38.5951C27.5861 37.9459 27.5861 36.3823 27.5861 36.3823C27.5861 36.3823 26.5423 37.3927 26.645 38.027C26.7477 38.6614 26.6148 39.1723 26.3151 39.5438C26.0155 39.9152 25.7111 40.4467 25.7111 40.8559C25.7111 41.2651 25.5069 41.5543 25.3293 41.3851C25.1517 41.2159 24.9741 40.1827 24.9741 39.6535C24.9741 39.1243 26.5991 35.421 26.8479 35.0416C26.8764 34.9982 26.9017 34.9578 26.9251 34.9205C27.1063 34.6314 27.1699 34.5299 27.6429 34.7101C27.7126 34.7302 27.7771 34.7639 27.8322 34.8089C27.8873 34.854 27.9319 34.9095 27.9631 34.9718C27.9942 35.0341 28.0113 35.1018 28.0132 35.1707Z" fill="#181928"/>
<path d="M28.4149 46.1536C28.3505 46.1435 28.2846 46.1455 28.221 46.1595C28.1574 46.1735 28.0973 46.1992 28.0442 46.2352C27.9911 46.2712 27.9461 46.3167 27.9116 46.3692C27.8772 46.4217 27.854 46.4801 27.8434 46.5411C27.7779 46.8513 27.7813 47.3037 27.7838 47.642C27.785 47.8023 27.786 47.937 27.7794 48.0189C27.7701 48.1346 27.6945 48.3363 27.6235 48.5259C27.5381 48.754 27.4592 48.9646 27.51 48.987C27.603 49.0282 28.2349 48.8853 28.5442 48.539C28.8535 48.1927 29.1253 47.7229 29.1144 47.2646C29.1036 46.8062 28.9429 46.1536 28.4149 46.1536Z" fill="#181928"/>
<path d="M36.7107 26.0018C36.8315 26.1035 36.4159 26.5847 36.4159 26.5847C36.4159 26.5847 35.4783 28.4855 35.2512 28.8661C35.0241 29.2467 33.6444 31.9453 33.9524 33.054C34.2211 34.0206 34.1131 35.022 34.0274 35.8173C34.0148 35.9342 34.0027 36.0466 33.9923 36.1538C33.9114 36.9904 35.0893 39.537 35.314 39.8925C35.5388 40.2479 37.2616 43.1751 37.2616 43.1751L37.9575 43.9363C37.9575 43.9363 37.0514 44.9124 36.1453 43.9363C35.2391 42.9602 33.1575 38.3597 32.8228 36.116C32.4881 33.8724 32.7841 32.2631 32.8905 31.783C32.9402 31.5585 33.2329 30.9504 33.5527 30.2863C33.9167 29.5301 34.3157 28.7012 34.4309 28.2832C34.6471 27.498 35.5194 26.091 35.7598 25.8246C36.0003 25.5583 36.5899 25.9001 36.7107 26.0018Z" fill="#181928"/>
<path d="M35.6536 32.3567C35.6777 31.936 35.7589 31.52 35.8952 31.1188C36.0994 30.5954 36.3181 29.7233 35.8952 29.5312C35.4724 29.3392 34.7535 29.4787 34.7535 30.944C34.7535 31.4017 34.7181 31.8816 34.6806 32.3916C34.5978 33.5143 34.5043 34.783 34.7535 36.2817C35.116 38.4613 36.8738 42.3566 39.179 44.3694C40.5489 45.5655 40.9677 45.8042 41.3219 46.0061C41.5638 46.1439 41.7755 46.2646 42.2393 46.6611C43.3822 47.6383 49.1487 48.6682 50.7544 48.475C52.36 48.2818 52.7829 47.5686 52.8566 47.3069C52.9303 47.0451 52.7092 46.6085 52.4881 46.8005L52.4871 46.8014C52.2636 46.9955 51.0629 48.0383 47.1782 47.2189C43.288 46.3982 42.2356 45.493 42.0146 45.3009C41.9044 45.2053 41.3043 44.6334 40.698 44.0555L40.6974 44.0549L40.6955 44.0531L40.695 44.0526C40.0852 43.4714 39.4698 42.8849 39.3409 42.7715C39.0836 42.5452 36.5621 39.3003 36.5621 38.8465C36.5621 38.736 36.7557 39.0008 37.1117 39.4875C38.2177 40.9997 40.8912 44.6551 44.1953 45.8587C48.5628 47.4497 50.1515 47.1674 50.9996 46.9057L51.1283 46.8661C51.931 46.6191 52.6911 46.3852 52.6911 46.1205C52.6911 45.8416 52.6729 45.2827 52.3769 45.2827C52.2711 45.2827 51.9983 45.3986 51.6552 45.5444C51.0384 45.8066 50.1944 46.1653 49.6852 46.1205C49.3515 46.0911 48.959 45.9907 48.538 45.8829C47.9587 45.7347 47.3253 45.5726 46.7167 45.5627C45.6656 45.5455 43.4341 44.3248 42.9001 43.8356C42.8211 43.7632 42.689 43.6701 42.5121 43.5455C41.4945 42.8285 38.9942 41.0668 36.5754 36.1777C36.5754 36.1777 35.5304 33.2151 35.6536 32.3567Z" fill="#181928"/>
<path d="M41.9178 46.98C42.145 46.9412 43.3024 47.6841 43.3024 47.6841C43.3024 47.6841 43.7385 48.2602 47.9755 48.7253C51.4831 49.1105 52.27 48.4663 52.5548 48.2331C52.6141 48.1846 52.6516 48.1539 52.6874 48.1539C52.8952 48.1539 52.9749 48.8785 52.8686 49.1322C52.7623 49.386 51.6967 49.7392 51.0564 49.7975C50.6632 49.8332 50.3475 49.8173 49.641 49.7817C49.1967 49.7593 48.5978 49.7292 47.7279 49.6992C46.2308 49.627 44.7661 49.2607 43.4268 48.6236C43.3269 48.5709 43.0717 48.5922 42.8121 48.6139C42.5882 48.6327 42.3608 48.6517 42.2271 48.6236C41.9384 48.563 41.7728 48.155 41.7523 47.763L41.7492 47.7068L41.7469 47.6656C41.7268 47.3143 41.7097 47.0156 41.9178 46.98Z" fill="#181928"/>
<path d="M43.861 49.3083C43.861 49.3083 43.0153 48.7208 42.7447 48.9562C42.474 49.1917 42.4354 49.8946 43.3028 50.0901C43.6986 50.1793 44.3187 50.3336 44.9173 50.4826C45.6306 50.6602 46.3133 50.8301 46.5492 50.873C46.9829 50.9519 48.2249 51.1473 49.1757 51.1473C49.7542 51.1473 50.3251 50.995 50.7722 50.8757C51.0599 50.799 51.2964 50.7359 51.4507 50.7359C51.8445 50.7359 53.0007 50.7359 53.0636 50.5073C53.1116 50.3325 53.0155 50.0134 52.9574 49.8202C52.9395 49.7608 52.9252 49.7132 52.9198 49.6855C52.8968 49.5677 52.567 49.6066 52.3387 49.7243C52.1103 49.8421 50.7475 50.2524 50.1265 50.2958C49.5055 50.3393 47.8105 50.3781 46.322 50.0341C45.4859 49.843 44.6638 49.6006 43.861 49.3083Z" fill="#181928"/>
<path d="M45.5164 52.0274C50.4372 52.7509 52.2156 51.5965 52.2156 51.5965C52.2156 51.5965 52.7122 51.4205 52.4222 51.049C52.195 50.7579 51.6635 50.9715 51.1656 51.1716C51.0283 51.2268 50.8934 51.281 50.7683 51.3233C50.1896 51.5188 48.8449 51.5725 47.8252 51.5382C46.8055 51.5039 43.0977 50.3438 42.8077 50.2466C42.6156 50.1822 42.3694 49.9197 42.1889 49.7272C42.097 49.6292 42.0221 49.5493 41.9801 49.5231C41.8557 49.4454 40.5956 51.3039 45.5164 52.0274Z" fill="#181928"/>
<path d="M42.5742 51.6559C42.5742 51.6559 42.1248 51.3622 42.1248 51.6559C42.1248 51.9497 42.3664 52.4183 42.8497 52.6332C43.2321 52.8246 43.6578 52.9254 44.0905 52.9269C44.6166 52.9708 45.129 53.1101 45.5995 53.3372C46.0126 53.5338 47.4818 54.0813 50.0455 53.631C52.6092 53.1807 53.229 52.6137 53.3534 52.4377C53.4779 52.2617 53.415 51.9485 53.3534 51.6948C53.2918 51.441 53.1118 51.3165 52.8702 51.5245C52.6285 51.7325 51.1389 52.9852 47.4999 52.7703C43.8609 52.5554 42.5742 51.6559 42.5742 51.6559Z" fill="#181928"/>
<path d="M43.9438 53.3179C44.7702 53.1224 45.0807 53.5339 45.0807 53.5339C45.0807 53.5339 45.2257 54.2014 47.7737 54.4163C49.7359 54.5818 51.7025 53.7393 52.6917 53.3155C52.987 53.189 53.1952 53.0998 53.2902 53.0858C53.7034 53.0253 53.8882 53.3579 53.4231 53.8859C52.9579 54.414 51.5118 54.8049 50.8086 54.9615C50.3342 55.0671 49.2477 55.1462 48.3666 55.2104C47.9417 55.2413 47.5645 55.2688 47.3267 55.2941C46.5958 55.3718 46.4049 55.2941 46.2394 55.1569C46.2057 55.129 46.0565 55.0444 45.8471 54.9257C45.0274 54.461 43.2856 53.4735 43.9438 53.3179Z" fill="#181928"/>
<path d="M48.6184 55.669C48.6184 55.669 47.3813 55.6838 47.4284 55.9319C47.4755 56.1799 48.0615 56.6645 48.6184 56.5616C48.7135 56.5441 48.8831 56.5155 49.102 56.4785L49.1045 56.4781L49.1077 56.4775L49.1122 56.4768L49.1146 56.4764C50.1829 56.2962 52.3956 55.9229 52.9195 55.669C53.0843 55.5891 53.2418 55.524 53.3845 55.465L53.3851 55.4647C53.7912 55.2969 54.0781 55.1783 54.0781 54.9077C54.0781 54.542 53.9657 54.1077 53.6975 54.2014C53.6566 54.2157 53.5594 54.2648 53.4165 54.337C52.6215 54.739 50.4141 55.8549 48.6184 55.669Z" fill="#181928"/>
<path d="M49.7532 57.2782C49.7532 57.1319 51.1088 56.7228 51.1088 56.7228C51.4354 56.6995 52.6686 56.0957 53.2901 55.7914L53.291 55.791C53.4643 55.7061 53.5902 55.6445 53.635 55.6255C53.7272 55.5851 53.8276 55.5643 53.9292 55.5643C54.0308 55.5643 54.1312 55.5851 54.2234 55.6255C54.3309 55.6987 54.4699 56.2679 54.424 56.5753C54.3891 56.8085 53.696 56.9661 53.1403 57.0925C52.9634 57.1327 52.8004 57.1698 52.677 57.2051C52.4571 57.2681 52.1544 57.4125 51.8451 57.5601C51.4356 57.7555 51.0144 57.9564 50.7584 57.9812C50.309 58.0246 49.7532 57.4246 49.7532 57.2782Z" fill="#181928"/>
<path d="M52.4113 58.7127C52.2632 58.7856 52.0987 58.8236 51.9317 58.8236C51.7647 58.8236 51.6002 58.7856 51.4521 58.7127C50.9265 58.4636 51.1114 58.1904 51.5729 57.9835C51.8839 57.8441 52.3514 57.6652 52.7227 57.5231C52.9022 57.4544 53.0593 57.3943 53.1652 57.3514C53.4902 57.22 54.313 56.9274 54.4278 57.044C54.5425 57.1606 54.7274 57.4692 54.6972 57.5709C54.667 57.6726 52.4113 58.7127 52.4113 58.7127Z" fill="#181928"/>
<path d="M52.3311 59.3562C52.3311 59.4739 53.1502 59.8831 53.1502 59.8831C53.4752 59.9414 55.2814 59.5025 55.2814 59.1001C55.2814 58.6978 54.8489 58.3172 54.8489 58.3172C54.8489 58.3172 53.1659 58.9607 52.9158 58.9607C52.6657 58.9607 52.3311 59.2384 52.3311 59.3562Z" fill="#181928"/>
<path d="M55.2852 60.7609C55.2852 60.7609 54.8369 60.8489 54.5736 60.7609C54.4311 60.7133 54.2752 60.5931 54.1451 60.4928C54.0347 60.4077 53.9427 60.3369 53.8934 60.3369C53.7858 60.3369 54.1435 60.1174 54.4286 60.1083C54.6239 60.102 54.9026 60.0201 55.1136 59.9581C55.2105 59.9296 55.2932 59.9053 55.3468 59.8945C55.5171 59.8602 55.7334 60.0797 55.7334 60.3517C55.7334 60.6237 55.2852 60.7609 55.2852 60.7609Z" fill="#181928"/>
<path d="M39.025 26.308C39.025 26.396 38.549 26.8372 38.549 26.8372C38.073 27.3607 37.4484 28.8397 37.4073 29.2089C37.3662 29.5781 37.5293 30.6056 37.6936 31.2263C37.7652 31.4964 37.9104 32.278 38.0703 33.1383L38.0704 33.1389C38.2777 34.2546 38.5097 35.5026 38.6372 35.9388C38.7688 36.3887 39.1503 37.1372 39.4582 37.7412C39.679 38.1743 39.8619 38.5332 39.8876 38.6545C39.9493 38.9448 42.4308 41.3885 42.7788 41.5245C42.9149 41.5777 43.3209 41.9011 43.8224 42.3006C44.6028 42.9222 45.6146 43.7281 46.2015 43.9876C47.1656 44.414 50.0978 44.8986 50.6415 44.9375C51.1852 44.9763 50.7937 45.3089 50.7937 45.3089C48.6565 45.6838 45.8946 45.5444 43.25 43.5807C37.8169 39.546 36.8322 35.7833 36.3816 32.1372C35.9309 28.4911 37.3493 25.8863 37.7553 25.8028C38.1612 25.7194 39.025 26.22 39.025 26.308Z" fill="#181928"/>
<path d="M40.4405 27.2247C40.4405 27.2247 40.9528 27.0955 40.9733 26.9378C40.9938 26.7801 40.9117 26.4075 40.2484 26.3023C39.5851 26.1972 38.946 26.6452 38.4954 27.7688C38.0447 28.8923 38.2537 31.2788 38.824 32.7522C39.0506 33.3376 39.1353 33.8774 39.2232 34.4383C39.3567 35.2889 39.4977 36.188 40.153 37.3686C40.3054 37.6433 40.4357 37.8795 40.5482 38.0835C41.2377 39.3338 41.2583 39.3712 41.6281 39.6375C41.9447 39.8655 43.0951 40.9244 43.811 41.5834L43.8117 41.584C44.0679 41.8198 44.2687 42.0046 44.355 42.0812C44.6824 42.3715 46.4257 43.4585 46.7713 43.4585C47.1168 43.4585 47.2642 42.935 47.2437 42.6824C47.2231 42.4298 47.182 42.2949 46.7097 42.2755C46.2373 42.256 45.5619 41.5188 45.5619 41.5188C45.5619 41.5188 43.0405 39.2694 42.8351 39.1528C42.6297 39.0363 40.6012 36.8452 40.6012 36.5926C40.6012 36.34 40.6423 35.9525 40.8066 36.1662C40.8246 36.1897 40.8549 36.2301 40.8956 36.2844C41.2263 36.7255 42.2439 38.0831 42.9378 38.6876C43.717 39.3666 46.1769 41.3439 46.7713 41.5771C47.3657 41.8103 47.6327 41.8297 47.6738 41.3828C47.7148 40.9359 48.0012 40.7233 48.2476 40.8593C48.4941 40.9953 50.345 42.0023 50.9261 41.9451C51.2405 41.9142 51.6369 41.6558 51.9767 41.4344C52.265 41.2465 52.5125 41.0852 52.6345 41.1119C52.9003 41.1702 52.1427 41.984 51.8963 42.12C51.6498 42.256 52.1017 42.5464 52.1838 42.5852C52.3369 42.6658 52.5131 42.6982 52.6869 42.6776C52.8607 42.6571 53.023 42.5847 53.1504 42.4709C53.6022 42.1029 53.6433 41.6183 53.3557 40.9393C53.1833 40.532 53.0829 39.9804 53.0068 39.5617C52.956 39.2825 52.916 39.0623 52.8725 38.9837C52.8576 38.9568 52.8432 38.9275 52.8289 38.8984C52.7383 38.7142 52.6496 38.5338 52.4557 38.9837L52.434 39.0342C52.2042 39.5707 51.7746 40.5737 50.3643 40.6479C48.9085 40.7244 47.3101 40.5336 45.5462 39.426C43.7823 38.3185 41.6511 36.8086 39.9705 32.3087C38.29 27.8088 40.4405 27.2247 40.4405 27.2247Z" fill="#181928"/>
<path fill-rule="evenodd" clip-rule="evenodd" d="M52.0168 36.7405C52.0952 36.7238 52.1773 36.7334 52.2491 36.7675C52.3518 36.8452 52.4605 37.4029 52.4605 37.5973C52.4605 37.7916 52.3989 39.658 50.4513 40.0604C48.8342 40.3944 47.4995 39.7167 46.6823 39.3017C46.5153 39.2169 46.3699 39.1431 46.2482 39.0911C45.5305 38.7848 43.8705 37.4087 43.0502 36.6909C42.2298 35.9731 41.4518 34.3638 41.2053 33.6654C41.1513 33.5124 41.078 33.3184 40.9939 33.0961C40.6945 32.304 40.2592 31.1525 40.0781 30.2136C39.9037 29.3095 40.1268 28.8655 40.3006 28.5196C40.358 28.4054 40.41 28.302 40.4405 28.1962C40.5638 27.7699 41.6511 27.1881 42.1017 27.0338C42.5524 26.8795 42.9003 27.5173 42.8798 27.6682C42.8593 27.8191 42.7687 28.3905 42.7687 28.3905C42.6603 29.0895 43.323 30.2999 43.9035 31.3602L43.9672 31.4766C44.5616 32.5636 46.6529 35.045 48.2924 35.8988C49.6098 36.5849 50.8359 35.2701 51.3728 34.6945C51.504 34.5538 51.594 34.4573 51.6341 34.4449C51.8383 34.382 51.9833 35.2541 51.7984 35.8165C51.6136 36.3788 51.7368 36.98 51.819 36.8589C51.8685 36.799 51.9384 36.7572 52.0168 36.7405ZM43.358 35.8647L43.3584 35.8652C43.4905 36.0542 43.5898 36.1962 43.6119 36.2245C43.6881 36.324 44.9711 37.3881 44.9711 37.3881C44.9917 37.1744 44.4794 36.4566 43.9261 35.8554C43.4735 35.4013 42.9795 34.9859 42.4497 34.6141C42.5224 34.6691 43.0369 35.4053 43.358 35.8647ZM47.1166 37.6551C47.528 37.9534 48.1438 38.3998 49.4196 38.4419C50.9781 38.4956 51.3623 37.7344 51.2886 37.6201C51.2149 37.5058 50.931 37.5035 50.6326 37.6201C50.6135 37.6276 50.5911 37.6369 50.5655 37.6477C50.1902 37.8048 49.1189 38.2534 47.5457 37.2326C45.8652 36.1422 43.9575 34.1889 43.7219 33.742C43.6777 33.6581 43.5832 33.5092 43.4594 33.3141C42.9236 32.4699 41.8379 30.7591 41.8879 29.6878C41.8879 29.6878 41.7466 29.0089 41.7671 28.8546C41.7876 28.7003 41.2548 28.9517 41.337 29.2718C41.4191 29.5918 42.2334 32.3064 42.5258 32.8493C42.8182 33.3922 43.5564 34.1615 44.4589 35.0473C44.8151 35.3969 45.2003 35.8111 45.5618 36.2C46.1164 36.7964 46.6154 37.333 46.8692 37.4852C46.9449 37.5307 47.0258 37.5893 47.1166 37.6551Z" fill="#181928"/>
<path fill-rule="evenodd" clip-rule="evenodd" d="M51.4286 33.1602C51.3362 33.1602 51.1974 33.2539 51.0566 33.349C50.8295 33.5023 50.5974 33.659 50.5467 33.4311C50.5069 33.2521 50.594 32.9732 50.6951 32.6493C50.8026 32.3051 50.9259 31.9101 50.9297 31.5303C50.9369 30.7931 50.7726 29.4169 50.4041 28.7186C50.0356 28.0202 49.6865 27.4384 49.051 27.8042C48.4691 28.1391 48.6945 28.4165 48.9417 28.7206C48.9644 28.7487 48.9874 28.7769 49.0099 28.8054C49.0342 28.8363 49.0622 28.8708 49.0928 28.9086L49.0932 28.9091C49.3992 29.2865 49.9764 29.9988 49.9764 30.792C49.9764 31.6652 49.8339 32.8493 49.4847 32.9247C49.1356 33.0002 48.2766 32.7304 47.4755 32.1681C46.6745 31.6058 45.4217 30.5199 45.18 30.1907C44.9384 29.8616 44.4213 29.0649 44.5651 28.9335C44.7089 28.802 44.9336 28.7392 45.139 29.1072C45.3443 29.4752 46.4305 30.5622 46.7168 30.8148C46.751 30.845 46.7935 30.8827 46.8423 30.926L46.8436 30.9271C47.2034 31.2464 47.9053 31.8691 48.1932 32.0561C48.2295 32.0797 48.2669 32.1052 48.3051 32.1313C48.6108 32.3401 48.9677 32.5839 49.2588 32.1521C49.5862 31.6663 49.6079 30.5622 49.3615 30.1359C49.115 29.7095 48.6934 28.9929 48.5665 28.8089C48.4397 28.6249 48.1932 28.3128 47.7208 28.506C47.2484 28.6992 47.2907 29.0489 47.4333 29.1849C47.4674 29.2174 47.5379 29.2699 47.6265 29.3357C47.908 29.545 48.371 29.8892 48.4179 30.1553C48.4277 30.2111 48.4401 30.2732 48.4529 30.337C48.5201 30.6737 48.597 31.0589 48.3563 30.8148C48.2342 30.691 48.0334 30.4498 47.829 30.2042C47.5542 29.8739 47.2728 29.5357 47.1675 29.4649C46.9838 29.3415 45.6295 28.5643 45.6295 28.5643C45.6295 28.5643 44.0105 27.9242 43.9078 27.7699C43.8052 27.6156 43.4705 27.5756 43.7097 28.4866C43.7442 28.6179 43.7775 28.7524 43.8113 28.8889C44.0121 29.6996 44.2301 30.5797 44.8091 31.2606C45.3642 31.9133 45.4639 32.2259 45.5612 32.5311C45.5825 32.5978 45.6037 32.6644 45.6295 32.7339C45.7732 33.1213 47.1469 35.0816 48.9302 35.4885C50.4903 35.8444 51.1562 34.4044 51.3672 33.9481C51.3973 33.8829 51.4182 33.8377 51.4311 33.8208C51.5338 33.686 51.6751 33.1602 51.4286 33.1602ZM49.7276 34.3386C49.6874 34.6013 49.3411 34.5074 49.0163 34.4194C48.8422 34.3722 48.6742 34.3267 48.5629 34.3386C48.2439 34.3729 47.6157 33.8391 47.2267 33.4082C46.8376 32.9773 46.5296 32.5396 46.6528 32.4813C46.7142 32.4522 46.8671 32.5821 47.066 32.7511C47.2661 32.9211 47.5128 33.1306 47.7595 33.2574C47.811 33.2838 47.8646 33.3118 47.9197 33.3406C48.3906 33.5863 48.975 33.8913 49.3784 33.8391C49.829 33.7808 49.7276 34.3386 49.7276 34.3386Z" fill="#181928"/>
<path d="M53.1757 43.1797C53.1757 43.0128 53.5382 42.6253 53.5382 42.6253C53.842 42.5602 53.8601 42.8804 53.873 43.1075C53.8748 43.1396 53.8765 43.1698 53.8789 43.1968L53.8804 43.2144C53.8991 43.4237 53.9129 43.5774 53.7025 43.6997C53.4862 43.8254 53.3521 43.7512 53.3594 43.5854C53.363 43.5016 53.316 43.4414 53.2686 43.3808C53.2223 43.3217 53.1757 43.2621 53.1757 43.1797Z" fill="#181928"/>
<path d="M53.8864 44.0288C53.8864 44.0288 53.5143 44.2506 53.5385 44.5089C53.5497 44.6294 53.541 44.7422 53.533 44.8469C53.5237 44.9667 53.5153 45.0759 53.5385 45.1741C53.582 45.3581 53.8937 45.3775 53.9915 45.1741C54.0137 45.1281 54.0387 45.0859 54.063 45.0452C54.1459 44.9057 54.2188 44.7831 54.1281 44.5832C54.0836 44.4852 54.0718 44.3532 54.0616 44.2379C54.0447 44.0492 54.0319 43.9054 53.8864 44.0288Z" fill="#181928"/>
<path d="M53.698 46.708C53.6581 46.9114 54.1704 46.5605 54.1704 46.5605L54.1749 46.5579C54.4417 46.4005 54.6148 46.2985 54.3625 45.8393C54.1843 45.515 54.1306 45.5645 54.0538 45.6353C54.0212 45.6654 53.9845 45.6992 53.9324 45.7101C53.8011 45.7375 53.7574 46.1696 53.7269 46.4702C53.7167 46.5709 53.708 46.6569 53.698 46.708Z" fill="#181928"/>
<path d="M54.5776 47.1698C54.5776 47.1698 54.7165 46.676 54.3251 46.9789C54.1701 47.0988 54.0585 47.1566 53.9816 47.1964C53.8643 47.257 53.8279 47.2759 53.8418 47.4098C53.8648 47.6316 53.953 47.9813 54.1656 47.9276C54.1946 47.9203 54.2266 47.9152 54.2597 47.9099C54.4701 47.8764 54.7289 47.8352 54.5776 47.1698Z" fill="#181928"/>
<path d="M54.2329 48.8328C54.181 48.4819 54.8116 48.2042 54.8116 48.2042C54.9498 48.1292 54.9584 48.3066 54.9687 48.5194C54.9742 48.6341 54.9803 48.759 55.0074 48.8603C55.0847 49.1494 54.8708 49.5118 54.7331 49.5186C54.5954 49.5255 54.2849 49.1837 54.2329 48.8328Z" fill="#181928"/>
</g>
<defs>
<filter id="filter0_b_59_44" x="-3.79993" y="-6.33331" width="78.5333" height="86.1334" filterUnits="userSpaceOnUse" color-interpolation-filters="sRGB">
<feFlood flood-opacity="0" result="BackgroundImageFix"/>
<feGaussianBlur in="BackgroundImage" stdDeviation="9.5"/>
<feComposite in2="SourceAlpha" operator="in" result="effect1_backgroundBlur_59_44"/>
<feBlend mode="normal" in="SourceGraphic" in2="effect1_backgroundBlur_59_44" result="shape"/>
</filter>
</defs>
</svg>
