<svg width="120" height="18" viewBox="0 0 120 18" fill="none" xmlns="http://www.w3.org/2000/svg">
<path d="M39.0103 16.8945H41.4303L44.6247 5.34595H42.1079L39.0103 16.8945Z" fill="white"/>
<path d="M56.5312 5.34595H45.7864L45.2056 7.38392H49.368L46.8512 16.8945H49.2712L51.8848 7.38392H55.9504L56.5312 5.34595Z" fill="white"/>
<path d="M60.4998 8.06325C61.0806 7.57801 61.855 7.38392 62.9198 7.38392H67.0822L67.663 5.34595H63.2102C62.0486 5.34595 60.9838 5.54004 60.2094 5.83118C59.3382 6.12232 58.6606 6.7046 57.983 7.48097C57.1118 8.45143 56.531 9.71304 56.1438 11.2658C55.563 13.5949 55.6598 15.1476 56.6278 16.1181C56.9182 16.4092 57.4022 16.7004 57.8862 16.7974C58.3702 16.8945 59.0478 16.9915 59.919 16.9915H61.6614C63.5006 16.9915 65.5334 15.5358 66.1142 13.6919C66.695 11.751 65.6302 10.1012 63.5974 10.1012H61.9518C61.371 10.1012 60.7902 10.5865 60.5966 11.1687C60.403 11.751 60.7902 12.2362 61.371 12.2362H62.5326C63.307 12.2362 63.791 12.8185 63.5974 13.5949C63.4038 14.3713 62.6294 15.0506 61.855 15.0506H60.887C60.3062 15.0506 59.8222 14.9535 59.5318 14.8565C59.1446 14.7594 58.951 14.5654 58.7574 14.2742C58.5638 13.9831 58.467 13.5949 58.467 13.0126C58.467 12.4303 58.5638 11.8481 58.7574 11.0717C59.2414 9.51894 59.8222 8.54848 60.4998 8.06325Z" fill="white"/>
<path d="M70.4702 14.5654C70.083 14.3713 69.8894 13.9831 69.9862 13.4978C69.9862 13.2067 70.1798 12.7215 70.2766 11.8481L72.019 5.34595H69.599L67.8566 11.8481C67.5662 13.0126 67.3726 13.789 67.3726 14.2742C67.3726 15.5358 67.9534 16.3122 69.115 16.7004C69.599 16.7974 70.4702 16.8945 71.7286 16.8945H74.3422L74.923 14.8565H72.5998C71.535 14.8565 70.8574 14.7594 70.4702 14.5654Z" fill="white"/>
<path d="M88.1848 8.25734C88.088 7.18983 87.604 6.31641 86.8296 5.83118C86.152 5.44299 85.184 5.2489 84.1192 5.2489C82.4736 5.2489 81.1184 5.63709 80.0536 6.41346C78.7952 7.38392 77.8272 8.93667 77.2464 11.1687C76.956 12.4303 76.8592 13.4978 76.956 14.3713C77.1496 15.2447 77.5368 15.924 78.2144 16.3122C78.9888 16.7974 79.9568 17.0886 81.2152 17.0886C82.1832 17.0886 82.9576 16.8945 83.8288 16.6033C84.8936 16.2151 85.7648 15.4388 86.5392 14.4683C87.12 13.5949 87.604 12.5274 87.8944 11.3628C88.1848 10.1012 88.2816 9.03371 88.1848 8.25734ZM85.3776 11.0717C84.9904 12.4303 84.5064 13.4008 83.9256 14.0801C83.3448 14.7594 82.4736 15.0506 81.6024 15.0506C80.6344 15.0506 79.9568 14.7594 79.6664 14.0801C79.376 13.4978 79.376 12.4303 79.7632 11.0717C80.1504 9.81008 80.5376 8.83962 81.0216 8.25734C81.6992 7.48097 82.5704 7.18983 83.6352 7.18983C84.7 7.18983 85.3776 7.57802 85.5712 8.35439C85.7648 8.93666 85.668 9.90713 85.3776 11.0717Z" fill="white"/>
<path d="M106.77 5.34595L99.5103 16.8945H102.027L107.254 8.06325L107.738 16.8945H110.158L109.19 5.34595H106.77Z" fill="white"/>
<path d="M117.515 14.8565C116.45 14.8565 115.676 14.7594 115.289 14.5654C114.902 14.3713 114.708 13.9831 114.805 13.4978C114.805 13.2067 114.998 12.7215 115.095 11.8481L116.838 5.34595H114.418L112.675 11.8481C112.385 13.0126 112.191 13.789 112.191 14.2742C112.191 15.5358 112.772 16.3122 113.934 16.7004C114.418 16.7974 115.289 16.8945 116.547 16.8945H119.161L119.742 14.8565H117.515Z" fill="white"/>
<path d="M39.3975 8.74257C39.8815 6.80164 38.8167 5.2489 36.8807 5.2489H32.1375C30.6855 5.2489 29.4271 6.21937 29.0399 7.67506L26.6199 16.8945H26.7167H29.0399H33.7831C35.7191 16.8945 37.6551 15.3417 38.1391 13.4008C38.4295 12.4303 38.2359 11.654 37.7519 11.0717C38.5263 10.4894 39.1071 9.71304 39.3975 8.74257ZM35.6223 13.4978C35.4287 14.2742 34.6543 14.8565 33.8799 14.8565H29.5239L30.2983 12.1392H34.6543C35.4287 12.1392 35.8159 12.7215 35.6223 13.4978ZM36.8807 8.74257C36.6871 9.51894 35.9127 10.1012 35.1383 10.1012H30.7823L31.1695 8.45143C31.3631 7.77211 31.9439 7.28688 32.6215 7.28688H35.8159C36.6871 7.38392 37.0743 7.9662 36.8807 8.74257Z" fill="white"/>
<path d="M100.478 8.74257C100.962 6.80164 99.8975 5.2489 97.9615 5.2489H93.2183C91.7663 5.2489 90.5079 6.21937 90.1207 7.67506L87.7007 16.8945H87.7975H90.1207H94.8639C96.7999 16.8945 98.7359 15.3417 99.2199 13.4008C99.5103 12.4303 99.3167 11.654 98.8327 11.0717C99.6071 10.4894 100.285 9.71304 100.478 8.74257ZM96.7999 13.4978C96.6063 14.2742 95.8319 14.8565 95.0575 14.8565H90.7015L91.4759 12.1392H95.8319C96.5095 12.1392 96.9935 12.7215 96.7999 13.4978ZM98.0583 8.74257C97.8647 9.51894 97.0903 10.1012 96.3159 10.1012H91.9599L92.3471 8.45143C92.5407 7.77211 93.1215 7.28688 93.7991 7.28688H96.9935C97.7679 7.38392 98.2519 7.9662 98.0583 8.74257Z" fill="white"/>
<path d="M20.4246 7.48102L17.0366 8.64557L15.391 10.5865L14.7134 13.0127H5.51744L4.45264 16.9916H14.7134C17.4238 16.9916 20.4246 14.9536 21.3926 12.1392C22.0702 10.1983 21.5862 8.54853 20.4246 7.48102Z" fill="url(#paint0_linear_59_112)"/>
<path d="M8.71189 13.0126C6.09829 13.0126 6.00149 11.0717 6.29189 10.0042C6.58229 8.93669 6.29189 10.0042 6.77589 8.06327C7.06629 7.09281 7.74389 6.0253 8.71189 5.24893C8.80869 5.15188 9.00229 5.05483 9.09909 4.95779C9.09909 4.95779 9.09909 4.95779 9.19589 4.95779C10.0671 4.47256 11.0351 4.08437 12.0999 4.08437C14.9071 4.08437 17.0367 4.08437 17.0367 4.08437L17.4239 2.91981L20.3279 5.34597L16.0687 7.77213L16.4559 6.51053H11.8095C10.1639 6.51053 9.67989 7.67509 9.48629 8.16032C9.38949 8.93669 9.1959 10.5865 11.2287 10.5865H14.8103H16.4559C19.1663 10.5865 22.1671 8.54851 23.1351 5.73416C24.1031 2.72572 22.4575 0.202515 19.4567 0.202515H9.58309C8.51829 0.202515 7.45349 0.493654 6.67909 1.07593C6.67909 1.07593 6.67909 1.07593 6.58229 1.07593C6.48549 1.17298 6.29189 1.27003 6.19509 1.36707C5.22709 2.14344 4.54949 3.11391 4.25909 4.18142L0.871094 16.9915H5.13029L6.19509 13.0126H9.09909C8.90549 13.0126 8.71189 13.0126 8.61509 13.0126" fill="#F37320"/>
<defs>
<linearGradient id="paint0_linear_59_112" x1="22.4196" y1="10.5854" x2="9.99943" y2="15.1364" gradientUnits="userSpaceOnUse">
<stop offset="0.3633" stop-color="#D63026"/>
<stop offset="1" stop-color="#F37320"/>
</linearGradient>
</defs>
</svg>
