<svg width="111" height="48" viewBox="0 0 111 48" fill="none" xmlns="http://www.w3.org/2000/svg">
<g clip-path="url(#clip0_59_73)">
<path d="M78.2375 9.98651L75.8231 19.3776L59.6675 21.519L78.2375 9.98651Z" fill="#57BAE5"/>
<path d="M86.6459 30.8056L81.4182 28.6015L82.6149 47.8537L86.6459 30.8056Z" fill="#005472"/>
<path d="M75.8231 19.3776L71.5716 28.2672L59.6675 21.519L75.8231 19.3776Z" fill="#34AFE4"/>
<path d="M81.4181 28.6015L71.5715 28.2673L82.6148 47.8538L81.4181 28.6015Z" fill="#0076A7"/>
<path d="M75.823 19.3776L81.4181 28.6015L71.5715 28.2672L75.823 19.3776Z" fill="#009DE2"/>
<path d="M78.2374 9.98651L91.6427 11.6997L75.823 19.3776L78.2374 9.98651Z" fill="#7ACDF2"/>
<path d="M106.318 5.72449L97.8782 15.711L98.4765 6.46616L106.318 5.72449Z" fill="#7ACDF2"/>
<path d="M106.318 5.72448L111 0L109.971 6.17367L106.318 5.72448Z" fill="#7ACDF2"/>
<path d="M101.773 10.9162L109.971 6.17367L106.318 5.72449L101.773 10.9162Z" fill="#00ABE7"/>
<path d="M86.6459 30.8057L87.0448 19.3463L81.4182 28.6015L86.6459 30.8057Z" fill="#0076A7"/>
<path d="M87.0448 19.3463L81.4181 28.6015L75.823 19.3776L87.0448 19.3463Z" fill="#008DBE"/>
<path d="M91.6427 11.6996L87.0448 19.3462L75.823 19.3776L91.6427 11.6996Z" fill="#57BAE5"/>
<path d="M87.0449 19.3463L86.646 30.8057L96.9335 41.5338L87.0449 19.3463Z" fill="#00698D"/>
<path d="M102.319 35.5378L96.8809 21.7906L96.9333 41.5338L102.319 35.5378Z" fill="#09A1CB"/>
<path d="M97.8783 15.711L96.881 21.7907L87.0449 19.3463L97.8783 15.711Z" fill="#09A1CB"/>
<path d="M102.864 23.9739L96.8809 21.7907L97.8781 15.711L102.864 23.9739Z" fill="#8BDAFF"/>
<path d="M105.006 35.1513L98.4871 24.5171H102.203L105.006 35.1513Z" fill="#7ACDF2"/>
<path d="M92.8708 9.44334L97.8781 15.711L98.4765 6.46619L92.8708 9.44334Z" fill="#57BAE5"/>
<path d="M96.881 21.7906L87.0449 19.3463L96.9335 41.5338L96.881 21.7906Z" fill="#008DBE"/>
<path d="M7.84159 47.8538V42.4113H3.44316V47.8538H0V33.741H3.44316V39.1626H7.84159V33.741H11.2848V47.8538H7.84159Z" fill="white"/>
<path d="M15.0112 35.4542C15.0409 35.0081 15.2437 34.5909 15.5767 34.2908C15.9096 33.9906 16.3468 33.831 16.7958 33.8455C17.0198 33.8276 17.245 33.856 17.4574 33.9289C17.6698 34.0019 17.8647 34.1178 18.0298 34.2695C18.1949 34.4211 18.3267 34.6051 18.4168 34.8099C18.507 35.0147 18.5535 35.2358 18.5535 35.4594C18.5535 35.683 18.507 35.9042 18.4168 36.109C18.3267 36.3138 18.1949 36.4978 18.0298 36.6494C17.8647 36.801 17.6698 36.917 17.4574 36.9899C17.245 37.0629 17.0198 37.0913 16.7958 37.0734C16.3443 37.0905 15.9042 36.9303 15.5704 36.6274C15.2365 36.3245 15.0357 35.9031 15.0112 35.4542ZM15.2527 38.588L16.7958 39.4133L18.3809 38.5985V47.8642H15.2317V38.5985L15.2527 38.588Z" fill="white"/>
<path d="M25.6872 47.8537H22.538V40.8235H21.2783V37.7732H22.517V34.3887H25.6663V37.7732H26.905V40.813H25.6872V47.8537Z" fill="white"/>
<path d="M35.7858 33.741C39.9848 33.741 40.6671 36.2794 40.6671 37.5748C40.6986 38.1844 40.5505 38.7899 40.2409 39.317C39.9313 39.844 39.4738 40.2696 38.9246 40.5415C39.5803 40.7558 40.1471 41.1786 40.5378 41.7448C40.9285 42.311 41.1215 42.9893 41.087 43.6753C41.087 45.8899 39.8273 47.8538 35.6808 47.8538H30.1487V33.741H35.7858ZM33.5918 39.1521H36.1637C36.3165 39.18 36.4736 39.1737 36.6236 39.1339C36.7737 39.094 36.913 39.0215 37.0315 38.9215C37.15 38.8216 37.2447 38.6968 37.3089 38.556C37.373 38.4152 37.405 38.2621 37.4024 38.1075C37.405 37.953 37.373 37.7998 37.3089 37.659C37.2447 37.5183 37.15 37.3934 37.0315 37.2935C36.913 37.1936 36.7737 37.1211 36.6236 37.0812C36.4736 37.0413 36.3165 37.0351 36.1637 37.0629H33.5918V39.2357V39.1521ZM33.5918 44.6155H36.4052C36.588 44.6443 36.7749 44.6333 36.9531 44.5833C37.1313 44.5332 37.2964 44.4454 37.4372 44.3257C37.5779 44.2061 37.6909 44.0575 37.7684 43.8902C37.8459 43.7229 37.8861 43.5409 37.8861 43.3567C37.8861 43.1725 37.8459 42.9905 37.7684 42.8232C37.6909 42.6559 37.5779 42.5073 37.4372 42.3877C37.2964 42.268 37.1313 42.1802 36.9531 42.1301C36.7749 42.0801 36.588 42.0691 36.4052 42.0979H33.5918V44.6155Z" fill="#42ACDB"/>
<path d="M49.9469 47.8538H46.5037V36.9689H42.8716V33.741H53.537V36.9689H49.9469V47.8538Z" fill="#42ACDB"/>
<path d="M67.9185 35.9451L65.693 38.0344C64.8315 37.2592 63.705 36.8407 62.5438 36.8644C62.0321 36.8606 61.5252 36.9615 61.0543 37.1607C60.5834 37.3599 60.1587 37.6531 59.8063 38.0223C59.454 38.3915 59.1816 38.8288 59.0061 39.3071C58.8305 39.7853 58.7555 40.2943 58.7857 40.8026C58.7507 41.3133 58.8227 41.8257 58.9971 42.3073C59.1715 42.7889 59.4444 43.2292 59.7987 43.6004C60.1529 43.9715 60.5808 44.2655 61.0551 44.4636C61.5294 44.6617 62.0399 44.7596 62.5543 44.7512C63.713 44.7828 64.8399 44.3716 65.7035 43.6022L67.929 45.6914C67.245 46.4253 66.417 47.0116 65.4961 47.4141C64.5752 47.8166 63.5811 48.0267 62.5753 48.0313C60.657 48.0313 58.8173 47.273 57.4609 45.9232C56.1045 44.5735 55.3425 42.7428 55.3425 40.8339C55.3425 38.9251 56.1045 37.0944 57.4609 35.7446C58.8173 34.3948 60.657 33.6365 62.5753 33.6365C63.577 33.6386 64.5677 33.8445 65.4866 34.2415C66.4054 34.6385 67.233 35.2182 67.9185 35.9451Z" fill="#42ACDB"/>
<path d="M102.319 35.5378L104.492 36.7704L96.9648 41.5339L102.319 35.5378Z" fill="#0076A7"/>
<path d="M105.006 35.0364L96.8809 21.7906L102.319 35.5378L105.006 35.0364Z" fill="#57BAE5"/>
<path d="M92.871 9.4433L87.0449 19.3462L97.8783 15.711L92.871 9.4433Z" fill="#7ACDF2"/>
<g opacity="0.7">
<path d="M3.89456 26.8988V27.6614H0.209961V22.7621H3.80009V23.5247H1.12324V24.7991H3.49566V25.5513H1.12324V26.8988H3.89456Z" fill="white"/>
<path d="M5.79463 27.5778C5.48879 27.4975 5.2029 27.3552 4.95483 27.1599L5.24876 26.4392C5.47327 26.6093 5.72533 26.74 5.99408 26.8257C6.27784 26.9227 6.57583 26.9721 6.87587 26.9719C7.16008 26.9896 7.44361 26.9281 7.69467 26.7943C7.77677 26.7484 7.84525 26.6817 7.89317 26.601C7.94109 26.5203 7.96676 26.4284 7.9676 26.3347C7.96947 26.2701 7.9573 26.2059 7.93194 26.1464C7.90658 26.0869 7.86861 26.0335 7.82064 25.99C7.70752 25.8937 7.57512 25.8225 7.43223 25.7811L6.80238 25.6035C6.49266 25.536 6.18761 25.4487 5.88911 25.3423C5.6581 25.2542 5.45256 25.1107 5.29075 24.9245C5.11478 24.7101 5.02501 24.4384 5.03881 24.1619C5.03288 23.8994 5.106 23.6411 5.24876 23.4202C5.41622 23.1817 5.64959 22.9967 5.9206 22.8875C6.2538 22.7526 6.61066 22.6851 6.97034 22.689C7.26797 22.6901 7.56425 22.7287 7.85213 22.8039C8.12057 22.8688 8.3761 22.9783 8.60795 23.1277L8.398 23.8381C8.18719 23.7157 7.96138 23.6209 7.72616 23.556C7.50409 23.4939 7.27451 23.4622 7.04383 23.462C6.76268 23.4405 6.48142 23.5023 6.23552 23.6396C6.15442 23.691 6.08778 23.762 6.04187 23.8461C5.99596 23.9302 5.97229 24.0245 5.97309 24.1201C5.97051 24.1848 5.98235 24.2493 6.00775 24.3089C6.03316 24.3685 6.07151 24.4217 6.12005 24.4648C6.23317 24.5611 6.36557 24.6323 6.50846 24.6738L7.1383 24.8514C7.44503 24.9172 7.74671 25.0044 8.04108 25.1125C8.27148 25.2017 8.47677 25.3451 8.63944 25.5304C8.81472 25.741 8.90457 26.0093 8.89138 26.2825C8.89404 26.5428 8.81716 26.7978 8.67093 27.0137C8.50242 27.2488 8.26906 27.4302 7.99909 27.536C7.66566 27.6701 7.30896 27.7375 6.94935 27.7345C6.5586 27.7423 6.16901 27.6895 5.79463 27.5778Z" fill="white"/>
<path d="M11.3058 23.5352H9.66821V22.7621H13.8672V23.5352H12.2191V27.7136H11.3058V23.5352Z" fill="white"/>
<path d="M14.3605 27.5465C14.2631 27.4515 14.2019 27.3258 14.1874 27.1909C14.1729 27.056 14.206 26.9203 14.2809 26.8069C14.3559 26.6936 14.4682 26.6097 14.5984 26.5697C14.7287 26.5297 14.8689 26.5359 14.9951 26.5874C15.1212 26.6389 15.2254 26.7324 15.2899 26.852C15.3544 26.9716 15.3751 27.1097 15.3485 27.2428C15.3219 27.3758 15.2496 27.4956 15.1441 27.5815C15.0385 27.6674 14.9063 27.7141 14.7699 27.7136C14.6939 27.7145 14.6185 27.7001 14.5482 27.6714C14.4778 27.6427 14.414 27.6002 14.3605 27.5465Z" fill="white"/>
<path d="M22.0447 26.8988V27.6718H18.4441V27.0555L20.3966 25.2065C20.5768 25.0481 20.7294 24.861 20.848 24.6529C20.9323 24.5132 20.9827 24.3558 20.995 24.1932C21.0008 24.0942 20.9828 23.9952 20.9427 23.9044C20.9025 23.8136 20.8413 23.7336 20.764 23.6709C20.564 23.5352 20.3229 23.4725 20.0817 23.4933C19.8551 23.4778 19.6282 23.5183 19.4212 23.6112C19.2142 23.7042 19.0336 23.8467 18.8955 24.0261L18.2551 23.5351C18.4569 23.2721 18.7249 23.0667 19.0319 22.9397C19.3643 22.801 19.7213 22.7299 20.0817 22.7308C20.5392 22.7068 20.9912 22.8396 21.3624 23.1068C21.5214 23.2294 21.6484 23.3884 21.7325 23.5703C21.8166 23.7521 21.8552 23.9515 21.8453 24.1515C21.8474 24.4116 21.7899 24.6688 21.6773 24.9036C21.509 25.2043 21.2887 25.473 21.0265 25.6975L19.7143 26.9406H22.0447V26.8988Z" fill="white"/>
<path d="M24.0706 27.442C23.747 27.2294 23.4918 26.9283 23.3358 26.575C22.9805 25.7078 22.9805 24.7366 23.3358 23.8694C23.4923 23.5164 23.7474 23.2155 24.0706 23.0024C24.3846 22.8055 24.7494 22.7039 25.1204 22.7099C25.4913 22.7051 25.8557 22.8066 26.1701 23.0024C26.4938 23.215 26.7489 23.5161 26.905 23.8694C27.2603 24.7366 27.2603 25.7078 26.905 26.575C26.7495 26.9286 26.4942 27.2298 26.1701 27.442C25.8571 27.642 25.4924 27.7472 25.1204 27.7449C24.7482 27.7485 24.3832 27.6431 24.0706 27.442ZM25.9602 26.5123C26.1823 26.1183 26.281 25.6672 26.2436 25.217C26.2753 24.7646 26.1692 24.3132 25.9392 23.9217C25.8411 23.7958 25.7153 23.694 25.5716 23.624C25.4279 23.5539 25.2699 23.5175 25.1099 23.5175C24.9498 23.5175 24.7919 23.5539 24.6482 23.624C24.5045 23.694 24.3787 23.7958 24.2806 23.9217C24.0506 24.3132 23.9445 24.7646 23.9762 25.217C23.9452 25.6693 24.0512 26.1205 24.2806 26.5123C24.3784 26.642 24.5052 26.7473 24.6509 26.8199C24.7967 26.8924 24.9574 26.9301 25.1204 26.9301C25.2834 26.9301 25.4441 26.8924 25.5899 26.8199C25.7356 26.7473 25.8624 26.642 25.9602 26.5123Z" fill="white"/>
<path d="M29.8864 22.7621V27.6614H28.9731V23.4829H27.9233V22.7621H29.8759H29.8864Z" fill="white"/>
<path d="M34.4212 25.2483C34.6621 25.5056 34.7904 25.8475 34.7781 26.1989C34.7797 26.4722 34.7033 26.7403 34.5577 26.9719C34.3965 27.217 34.1665 27.4095 33.8963 27.5256C33.5657 27.6699 33.2075 27.7412 32.8466 27.7345C32.4911 27.7406 32.1369 27.6913 31.7968 27.5883C31.4973 27.5 31.2163 27.3585 30.9675 27.1704L31.3664 26.4601C31.5589 26.6184 31.7797 26.7389 32.0173 26.8152C32.2711 26.8996 32.537 26.9419 32.8046 26.9406C33.0817 26.9612 33.358 26.8915 33.5919 26.7421C33.6812 26.6825 33.7539 26.6015 33.8034 26.5066C33.853 26.4117 33.8777 26.3059 33.8753 26.1989C33.8769 26.0936 33.8517 25.9895 33.8022 25.8964C33.7527 25.8033 33.6803 25.7241 33.5919 25.6662C33.3484 25.5221 33.0661 25.4565 32.7836 25.4781H32.3427V24.8514L33.4659 23.5247H31.2195V22.7621H34.5786V23.368L33.3819 24.7887C33.772 24.8152 34.14 24.978 34.4212 25.2483Z" fill="white"/>
</g>
</g>
<defs>
<clipPath id="clip0_59_73">
<rect width="111" height="48" fill="white"/>
</clipPath>
</defs>
</svg>
