<svg width="131" height="24" viewBox="0 0 131 24" fill="none" xmlns="http://www.w3.org/2000/svg">
<g clip-path="url(#clip0_59_127)">
<path fill-rule="evenodd" clip-rule="evenodd" d="M14.4179 0C16.2747 0 18.2243 0.553846 19.8953 1.56923C18.0386 3.13846 17.1103 5.35385 16.9246 7.75385C16.7389 10.1538 17.5744 12.5538 19.1527 14.3077C16.1819 16.8923 11.7257 16.8923 8.75491 14.3077C10.3331 12.5538 11.1686 10.1538 10.983 7.75385C10.8902 5.35385 9.77611 3.13846 7.91937 1.56923C9.59044 0.646154 11.54 0.0923077 13.4896 0V4.61538H14.4179V0ZM1.88498 6.83077C0.585256 6.18462 -0.15744 4.8 0.0282341 3.32308C0.213908 1.84616 1.14228 0.646156 2.53484 0.276925C3.92739 -0.184613 5.41279 0.276925 6.34116 1.38462C4.39158 2.76923 2.81334 4.61539 1.88498 6.83077ZM27.6008 3.32308C27.7865 4.8 27.0438 6.18462 25.7441 6.83077C24.8157 4.61539 23.2375 2.76923 21.2879 1.38462C22.2163 0.276925 23.7017 -0.184613 25.0942 0.276925C26.4868 0.646156 27.4151 1.84616 27.6008 3.32308ZM20.6381 2.21537C19.0598 3.41537 17.9458 5.26153 17.6672 7.29229H24.8158C23.9801 5.26153 22.4948 3.50768 20.6381 2.21537ZM17.6673 8.21537H25.1871C25.7441 9.96922 25.9298 11.8154 25.7441 13.5692H25.6513C24.2587 13.5692 22.8662 13.0154 21.9378 12C21.8449 12.2769 21.6593 12.5538 21.4736 12.8308C22.5877 13.8461 24.073 14.4 25.5585 14.4C25.4656 14.9538 25.2799 15.6 25.0015 16.1538C20.9166 15.8769 17.5744 12.4615 17.5744 8.30768C17.6211 8.30768 17.6443 8.30768 17.6558 8.29599C17.6673 8.2844 17.6673 8.26132 17.6673 8.21537ZM19.7096 15.0462C18.1315 16.3385 16.2747 17.1692 14.2323 17.2616C14.2323 19.6616 15.3464 21.9692 17.3888 23.5385C20.5453 22.5231 23.2375 20.3077 24.7229 17.2616C22.8662 17.0769 21.1022 16.2462 19.7096 15.0462ZM6.89815 2.21537C8.47639 3.41537 9.59043 5.26153 9.86895 7.29229H2.72048C3.55602 5.26153 5.04142 3.50768 6.89815 2.21537ZM9.96176 8.21537H2.44197C1.88495 9.96922 1.69928 11.8154 1.88495 13.5692H1.97778C3.37034 13.5692 4.7629 13.0154 5.69128 12C5.78411 12.2769 5.96978 12.5538 6.15546 12.8308C5.04142 13.8461 3.55602 14.4 2.07062 14.4C2.16347 14.9538 2.34914 15.6 2.62765 16.1538C6.71248 15.8769 10.0546 12.4615 10.0546 8.30768C10.008 8.30768 9.98478 8.30768 9.97327 8.29599C9.96176 8.2844 9.96176 8.26132 9.96176 8.21537ZM7.91942 15.0462C9.49765 16.3385 11.3544 17.1692 13.3968 17.2616C13.3968 19.6616 12.2827 21.9692 10.2403 23.5385C7.08388 22.5231 4.39161 20.3077 2.90622 17.2616C4.76295 17.0769 6.52686 16.2462 7.91942 15.0462ZM13.7681 20.0307C13.3039 21.4154 12.4684 22.7077 11.3543 23.7231C12.9326 24.0923 14.5108 24.0923 16.0891 23.7231C15.1607 22.7077 14.3251 21.5077 13.7681 20.0307Z" fill="url(#paint0_linear_59_127)"/>
<path d="M43.369 16.9C42.6743 17.24 41.6025 17.46 40.5307 17.46C37.2954 17.46 35.4098 15.36 35.4098 12.06C35.4098 8.53994 37.4939 6.51994 40.63 6.51994C41.7415 6.51994 42.6743 6.75994 43.3095 7.07994L43.7462 5.63994C43.2897 5.41994 42.2178 5.05994 40.5704 5.05994C36.4221 5.05994 33.5837 7.89994 33.5837 12.12C33.5837 16.54 36.4022 18.94 40.1734 18.94C41.801 18.94 43.0912 18.62 43.7065 18.3L43.369 16.9Z" fill="#D6E6F8" fill-opacity="0.95"/>
<path d="M50.7048 18.9601C54.0989 18.9601 56.8976 16.4801 56.8976 11.8601C56.8976 7.86004 54.5356 5.04004 50.8636 5.04004C47.2909 5.04004 44.6709 7.84004 44.6709 12.1201C44.6709 16.2001 47.1321 18.9601 50.685 18.9601H50.7048ZM50.7644 17.5401C48.0451 17.5401 46.497 14.9201 46.497 12.0801C46.497 9.16004 47.926 6.46004 50.8041 6.46004C53.6821 6.46004 55.0715 9.26004 55.0715 11.9401C55.0715 15.0001 53.5233 17.5401 50.7842 17.5401H50.7644Z" fill="#D6E6F8" fill-opacity="0.95"/>
<path d="M59.1296 5.26001V18.74H60.8763V5.26001H59.1296Z" fill="#D6E6F8" fill-opacity="0.95"/>
<path d="M65.526 18.74V12.98C65.526 10.74 65.5062 9.12001 65.4069 7.42001L65.4665 7.40001C66.1215 8.86001 67.0147 10.4 67.9475 11.9L72.1951 18.74H73.9418V5.26001H72.3142V10.92C72.3142 13 72.3539 14.64 72.5127 16.44L72.4531 16.46C71.8378 15.08 71.0439 13.66 70.0713 12.08L65.8039 5.26001H63.8984V18.74H65.526Z" fill="#D6E6F8" fill-opacity="0.95"/>
<path d="M79.3644 18.74H82.3813V7.82001H86.0335V5.26001H75.752V7.82001H79.3644V18.74Z" fill="#D6E6F8" fill-opacity="0.95"/>
<path d="M87.658 5.26001V18.74H90.6749V5.26001H87.658Z" fill="#D6E6F8" fill-opacity="0.95"/>
<path d="M104.473 11.02H99.4906V13.4H101.555V16.24C101.317 16.34 100.761 16.42 100.086 16.42C97.6053 16.42 95.8586 14.8 95.8586 12C95.8586 9.08 97.7839 7.64 100.304 7.64C101.773 7.64 102.666 7.88 103.401 8.22L104.036 5.76C103.381 5.46 102.051 5.12 100.324 5.12C95.938 5.12 92.7027 7.68 92.6829 12.16C92.6829 14.14 93.3577 15.9 94.5685 17.08C95.7991 18.26 97.5656 18.88 100.007 18.88C101.773 18.88 103.54 18.44 104.473 18.12V11.02Z" fill="#D6E6F8" fill-opacity="0.95"/>
<path d="M114.787 10.56H109.864V7.76001H115.085V5.26001H106.847V18.74H115.362V16.24H109.864V13.04H114.787V10.56Z" fill="#D6E6F8" fill-opacity="0.95"/>
<path d="M117.431 18.7401H120.428V13.4401H121.321C122.571 13.4601 123.147 13.9001 123.524 15.6001C123.901 17.2601 124.239 18.3401 124.437 18.7401H127.534C127.276 18.2201 126.879 16.4601 126.462 14.9201C126.124 13.6801 125.608 12.8001 124.675 12.4201V12.3601C125.827 11.9401 127.037 10.7601 127.037 9.06003C127.037 7.82003 126.601 6.88003 125.787 6.24003C124.834 5.46003 123.445 5.16003 121.46 5.16003C119.832 5.16003 118.403 5.28003 117.431 5.46003V18.7401ZM120.428 7.54003C120.646 7.48003 121.063 7.44003 121.797 7.44003C123.187 7.44003 124.02 8.08003 124.02 9.30003C124.02 10.4801 123.127 11.2401 121.619 11.2401H120.428V7.54003Z" fill="#D6E6F8" fill-opacity="0.95"/>
</g>
<defs>
<linearGradient id="paint0_linear_59_127" x1="-7.71913" y1="11.0743" x2="9.41892" y2="37.7918" gradientUnits="userSpaceOnUse">
<stop stop-color="#DA396C"/>
<stop offset="0.04" stop-color="#D23B70"/>
<stop offset="0.39" stop-color="#7C5E94"/>
<stop offset="0.69" stop-color="#3B78AE"/>
<stop offset="0.89" stop-color="#2088BC"/>
<stop offset="1" stop-color="#1B8EC1"/>
</linearGradient>
<clipPath id="clip0_59_127">
<rect width="131" height="24" fill="white"/>
</clipPath>
</defs>
</svg>
