<svg width="122" height="28" viewBox="0 0 122 28" fill="none" xmlns="http://www.w3.org/2000/svg">
<g clip-path="url(#clip0_59_186)">
<path d="M43.4494 17.2324C42.5171 18.2165 41.5614 18.6971 40.5125 18.6971C38.5078 18.6971 36.9461 17.0722 36.9461 14.9897C36.9461 12.8843 38.4612 11.2594 40.4192 11.2594C41.8644 11.2594 42.7968 12.0146 43.4261 12.6783L43.5427 12.8156L44.7548 11.5569L44.6382 11.4425C43.8224 10.5957 42.6103 9.61169 40.4425 9.61169C37.4589 9.61169 35.0347 12.0375 35.0347 15.0126C35.0347 18.0334 37.4122 20.4134 40.4425 20.4134C42.6336 20.4134 43.8923 19.3378 44.7315 18.4224L44.848 18.2851L43.5893 17.1409L43.4494 17.2324Z" fill="white"/>
<path d="M51.2811 9.58925C49.9059 9.58925 48.787 10.1156 47.9712 11.1684V5.56152L46.1064 6.45402V20.1165H47.9712V14.235C47.9712 12.4957 49.16 11.2829 50.8616 11.2829C52.5166 11.2829 53.4956 12.3584 53.4956 14.1206V20.1393H55.3604V13.7544C55.3604 11.2142 53.7753 9.58932 51.2811 9.58932V9.58925Z" fill="white"/>
<path d="M61.5838 9.63586C59.9754 9.63586 58.8099 10.0478 57.8076 10.5055L57.6677 10.5741L58.2505 12.1074L58.4137 12.0387C59.5092 11.5582 60.4183 11.3293 61.4439 11.3293C63.3086 11.3293 64.2876 12.199 64.2876 13.8695V13.9611C63.5184 13.7551 62.6326 13.5949 61.3506 13.5949C58.5069 13.5949 56.8286 14.8765 56.8286 17.0277C56.8286 19.2018 58.8332 20.346 60.8145 20.346C62.5161 20.346 63.6117 19.6366 64.3109 18.9271V20.1172H66.1524V13.8467C66.1524 12.5193 65.7795 11.5124 65.0336 10.7801C64.2411 10.0478 63.0523 9.63586 61.5838 9.63586ZM64.2876 15.4944V16.2954C64.2876 17.7371 62.9124 18.8127 61.071 18.8127C59.9288 18.8127 58.6934 18.2406 58.6934 16.9819C58.6934 15.8148 59.7423 15.1054 61.4905 15.1054C62.7026 15.1054 63.6583 15.3113 64.2876 15.4944Z" fill="white"/>
<path d="M73.5185 9.58845C72.1433 9.58845 71.0243 10.1148 70.2085 11.1676V9.81735H68.3438V20.161H70.2085V14.2338C70.2085 12.4945 71.3973 11.2817 73.0989 11.2817C74.7539 11.2817 75.7329 12.3573 75.7329 14.1194V20.1381H77.5977V13.7532C77.5977 11.213 75.9893 9.58813 73.5185 9.58813V9.58845Z" fill="white"/>
<path d="M87.9033 11.2824C86.9011 10.161 85.6193 9.58887 84.1038 9.58887C82.845 9.58887 81.587 10.0695 80.6775 10.8934C79.6754 11.8087 79.1392 13.0674 79.1392 14.4863C79.1392 15.8823 79.6754 17.1638 80.6775 18.0792C81.587 18.9031 82.845 19.3837 84.1038 19.3837C85.6193 19.3837 86.8782 18.7887 87.927 17.5987V18.2852C87.927 20.4364 86.6445 21.6722 84.4073 21.6722C83.032 21.6722 81.7502 21.2602 80.5841 20.4364L80.4209 20.322L79.559 21.7866L79.6984 21.8781C81.0736 22.8164 82.6818 23.297 84.4302 23.297C86.1319 23.297 87.5072 22.8164 88.4396 21.901C89.3253 21.0085 89.7919 19.7956 89.7919 18.2394V9.79506H87.927V11.2826H87.9033V11.2824ZM87.9738 14.4634C87.9738 16.5001 86.1557 17.7131 84.4073 17.7131C82.5186 17.7131 81.0507 16.2942 81.0507 14.4863C81.0507 12.6097 82.4489 11.2595 84.4073 11.2595C86.1557 11.2366 87.9738 12.4495 87.9738 14.4634Z" fill="white"/>
<path d="M96.5702 9.5885C93.6794 9.5885 91.512 11.8999 91.512 14.9894C91.512 18.0789 93.7729 20.3902 96.7801 20.3902C98.5515 20.3902 99.8801 19.7952 101.115 18.445L101.232 18.3077L100.019 17.255L99.903 17.3694C98.9944 18.3077 98.0152 18.7196 96.8261 18.7196C95.0317 18.7196 93.7032 17.5296 93.4465 15.7446H101.488L101.512 15.5844C101.535 15.3556 101.535 15.1953 101.535 15.0581C101.512 11.7855 99.5307 9.5885 96.5702 9.5885ZM99.6004 14.2113H93.4236C93.7032 12.4262 94.962 11.1905 96.5464 11.1905C98.481 11.1905 99.3905 12.7009 99.6004 14.2113Z" fill="white"/>
<path d="M103.264 20.1398H105.129V6.20276L103.264 7.11813V20.1397V20.1398Z" fill="white"/>
<path d="M107.574 20.139H109.439V5.56116L107.574 6.47652V20.139V20.139Z" fill="white"/>
<path d="M119.37 9.79529L116.199 17.8507L112.61 9.79529H110.559L115.267 19.9336C114.638 21.3524 114.102 21.6271 113.379 21.6271C112.773 21.6271 112.354 21.5355 111.864 21.2838L111.701 21.1923L111.048 22.7027L111.188 22.7713C111.957 23.1375 112.61 23.2977 113.426 23.2977C115.081 23.2977 116.107 22.451 116.969 20.3684L121.351 9.79529H119.37Z" fill="white"/>
<path d="M29.8702 0.0458111C29.7537 0.0458111 27.1663 0.160238 23.9495 0.915444C19.5907 1.92236 16.3273 3.59302 14.3226 5.85861C13.8797 6.36208 13.4602 6.84266 13.0872 7.30038C12.2947 7.50634 10.1036 8.10133 9.10127 8.28442C8.51852 8.39883 8.02902 8.71928 7.67942 9.19987C6.95682 10.2296 5.69811 12.3351 5.65152 12.4266L4.2063 14.8524L6.84031 13.731C7.98252 13.2276 9.59086 12.8844 10.0571 13.1589C10.0804 13.1819 10.1037 13.1819 10.1269 13.3191C10.1269 14.0515 10.3134 14.7609 10.6631 15.4703C9.94054 16.0196 9.54427 16.8892 9.59086 17.7817V20.9399H12.8075C13.7167 20.9856 14.5791 20.5737 15.1618 19.8872C15.8845 20.2304 16.607 20.3906 17.3529 20.4135C17.4695 20.4363 17.4928 20.4593 17.4928 20.4822C17.7725 20.9399 17.4229 22.5189 16.9101 23.6402L15.7679 26.2034L18.2387 24.7845C18.3319 24.7388 20.4764 23.503 21.5254 22.7936C22.0149 22.4731 22.3412 21.9697 22.4577 21.3975C22.6675 20.4135 23.2503 18.2623 23.46 17.4842C23.9263 17.118 24.4158 16.7061 24.9286 16.2713C30.3364 11.5799 30.8259 1.41882 30.8492 0.984044L30.8958 0L29.8702 0.0457699V0.0458111ZM10.4999 11.3741C9.89388 11.1911 9.19459 11.2139 8.5186 11.3284C8.77504 10.9164 9.0314 10.5274 9.24118 10.2299C9.28784 10.1383 9.38108 10.0926 9.49761 10.0697C9.96383 9.97819 10.6864 9.7951 11.409 9.63488C10.9894 10.2528 10.7097 10.8249 10.4999 11.3741ZM13.67 18.7203C13.4835 18.9719 13.1572 19.1093 12.8542 19.0864H12.5512L14.4858 16.1114L11.4556 18.0337V17.7133C11.4323 17.3929 11.5722 17.0954 11.8286 16.9123L15.5348 14.0288C15.7213 13.8686 15.9777 13.7542 16.2108 13.7084L17.1898 13.4796L16.9566 14.4408C16.8868 14.6925 16.7935 14.9214 16.6303 15.1044L13.67 18.7203ZM20.6162 21.0316C20.593 21.1231 20.5464 21.2147 20.4531 21.2833C20.1501 21.4893 19.7539 21.7411 19.3342 21.9928C19.4508 21.3292 19.4741 20.6425 19.2876 20.0475C19.8471 19.8416 20.4298 19.5669 21.0592 19.1779C20.896 19.8644 20.7095 20.551 20.6162 21.0316ZM23.6931 14.8984C20.4764 17.6904 18.7049 18.5143 17.4229 18.56H17.3763C16.98 18.56 16.6536 18.4914 16.3273 18.3769L18.0522 16.2258C18.3786 15.8139 18.6116 15.3561 18.7516 14.8527L19.6839 11.008L15.7679 11.9234C15.2551 12.0378 14.7656 12.2666 14.3693 12.5871L12.1782 14.2805C12.0617 13.9602 11.9917 13.6397 11.9917 13.2507V13.205C12.015 11.9691 12.8775 10.207 15.7213 7.04884C19.1478 3.22708 26.2339 2.19722 28.8909 1.94553C28.6345 4.5773 27.5856 11.534 23.6929 14.8986L23.6931 14.8984Z" fill="#10D078"/>
<path d="M9.20697 25.4613C8.01818 25.6901 6.8061 25.7588 5.59403 25.7817C4.89474 25.7817 4.19546 25.7588 3.47289 25.6901C3.7526 25.2324 4.00901 24.7747 4.24211 24.2942C4.68498 23.31 5.01132 22.326 5.2677 21.3191C5.5008 20.3579 5.78051 19.4196 6.13018 18.4814C6.45651 17.543 6.82947 16.6047 7.24901 15.6665C6.87606 16.0327 6.54973 16.4217 6.24671 16.8336C5.94369 17.2455 5.64066 17.6804 5.36094 18.1152C4.82482 18.9848 4.35864 19.946 3.96238 20.8842C3.58943 21.7997 3.19317 22.715 2.72701 23.5389C2.26081 24.3628 1.72471 25.118 1.07201 25.8503L-0.000244141 27.0861L1.65476 27.315C2.96008 27.4981 4.28877 27.5896 5.61738 27.5438C6.29336 27.5209 6.94599 27.4751 7.62198 27.3607C8.27468 27.2692 8.95059 27.109 9.58 26.9259C10.862 26.5597 12.0974 25.9647 13.1929 25.2095C13.7291 24.8205 14.2419 24.3857 14.6615 23.8822C15.081 23.3787 15.4773 22.8524 15.7337 22.2574C14.8479 23.1728 13.7757 23.8364 12.6802 24.3628C11.5613 24.8892 10.3958 25.2324 9.20703 25.4613H9.20697Z" fill="#10D078"/>
<path d="M23.0176 10.9394C23.8567 10.9394 24.6958 10.619 25.3485 10.0011C26.6306 8.74242 26.6306 6.70566 25.3485 5.44698C24.7191 4.82908 23.9033 4.50867 23.0176 4.50867C22.1318 4.50867 21.316 4.85194 20.6866 5.44698C19.4046 6.70566 19.4046 8.74242 20.6866 10.0011C21.316 10.619 22.1551 10.9394 23.0176 10.9394ZM21.992 6.7286C22.2716 6.45398 22.6213 6.31667 22.9943 6.31667C23.3672 6.31667 23.7401 6.45398 23.9966 6.7286C24.556 7.27784 24.556 8.14742 23.9966 8.69669C23.4371 9.24588 22.5513 9.24588 21.992 8.69669C21.4558 8.17029 21.4558 7.27779 21.992 6.7286Z" fill="#10D078"/>
</g>
<defs>
<clipPath id="clip0_59_186">
<rect width="122" height="28" fill="white"/>
</clipPath>
</defs>
</svg>
